<?xml version="1.0" encoding="utf-8" standalone="no"?>
<!DOCTYPE svg PUBLIC "-//W3C//DTD SVG 1.1//EN"
  "http://www.w3.org/Graphics/SVG/1.1/DTD/svg11.dtd">
<svg xmlns:xlink="http://www.w3.org/1999/xlink" width="576pt" height="288pt" viewBox="0 0 576 288" xmlns="http://www.w3.org/2000/svg" version="1.1">
 <metadata>
  <rdf:RDF xmlns:dc="http://purl.org/dc/elements/1.1/" xmlns:cc="http://creativecommons.org/ns#" xmlns:rdf="http://www.w3.org/1999/02/22-rdf-syntax-ns#">
   <cc:Work>
    <dc:type rdf:resource="http://purl.org/dc/dcmitype/StillImage"/>
    <dc:date>2026-07-31T13:19:59.238980</dc:date>
    <dc:format>image/svg+xml</dc:format>
    <dc:creator>
     <cc:Agent>
      <dc:title>Matplotlib v3.11.0, https://matplotlib.org/</dc:title>
     </cc:Agent>
    </dc:creator>
   </cc:Work>
  </rdf:RDF>
 </metadata>
 <defs>
  <style type="text/css">*{stroke-linejoin: round; stroke-linecap: butt}</style>
 </defs>
 <g id="figure_1">
  <g id="patch_1">
   <path d="M 0 288 
L 576 288 
L 576 0 
L 0 0 
z
" style="fill: #ffffff"/>
  </g>
  <g id="axes_1">
   <g id="patch_2">
    <path d="M 47.962344 245.877656 
L 563.538576 245.877656 
L 563.538576 26.16 
L 47.962344 26.16 
z
" style="fill: #ffffff"/>
   </g>
   <g id="FillBetweenPolyCollection_1">
    <defs>
     <path id="m8b213a82fe" d="M 71.787731 -42.125336 
L 71.787731 -42.122344 
L 74.141075 -42.122344 
L 76.49442 -42.122344 
L 78.847764 -42.122344 
L 81.201109 -42.122344 
L 83.554453 -42.122344 
L 85.907798 -42.122344 
L 88.261143 -42.122344 
L 90.614487 -42.122344 
L 92.967832 -42.122344 
L 95.321176 -42.122344 
L 97.674521 -42.122344 
L 100.027865 -42.122344 
L 102.38121 -42.122344 
L 104.734554 -42.122344 
L 107.087899 -42.122344 
L 109.441243 -42.122344 
L 111.794588 -42.122344 
L 114.147932 -42.122344 
L 116.501277 -42.122344 
L 118.854621 -42.122344 
L 121.207966 -42.122344 
L 123.561311 -42.122344 
L 125.914655 -42.122344 
L 128.268 -42.122344 
L 130.621344 -42.122344 
L 132.974689 -42.122344 
L 135.328033 -42.122344 
L 137.681378 -42.122344 
L 140.034722 -42.122344 
L 142.388067 -42.122344 
L 144.741411 -42.122344 
L 147.094756 -42.122344 
L 149.4481 -42.122344 
L 151.801445 -42.122344 
L 154.154789 -42.122344 
L 156.508134 -42.122344 
L 158.861478 -42.122344 
L 161.214823 -42.122344 
L 163.568168 -42.122344 
L 165.921512 -42.122344 
L 168.274857 -42.122344 
L 170.628201 -42.122344 
L 172.981546 -42.122344 
L 175.33489 -42.122344 
L 177.688235 -42.122344 
L 180.041579 -42.122344 
L 182.394924 -42.122344 
L 184.748268 -42.122344 
L 187.101613 -42.122344 
L 189.454957 -42.122344 
L 191.808302 -42.122344 
L 194.161646 -42.122344 
L 196.514991 -42.122344 
L 198.868336 -42.122344 
L 201.22168 -42.122344 
L 203.575025 -42.122344 
L 205.928369 -42.122344 
L 208.281714 -42.122344 
L 210.635058 -42.122344 
L 212.988403 -42.122344 
L 215.341747 -42.122344 
L 217.695092 -42.122344 
L 220.048436 -42.122344 
L 222.401781 -42.122344 
L 224.755125 -42.122344 
L 227.10847 -42.122344 
L 229.461814 -42.122344 
L 231.815159 -42.122344 
L 234.168503 -42.122344 
L 236.521848 -42.122344 
L 238.875193 -42.122344 
L 241.228537 -42.122344 
L 243.581882 -42.122344 
L 245.935226 -42.122344 
L 248.288571 -42.122344 
L 250.641915 -42.122344 
L 252.99526 -42.122344 
L 255.348604 -42.122344 
L 257.701949 -42.122344 
L 260.055293 -42.122344 
L 262.408638 -42.122344 
L 264.761982 -42.122344 
L 267.115327 -42.122344 
L 269.468671 -42.122344 
L 271.822016 -42.122344 
L 274.175361 -42.122344 
L 276.528705 -42.122344 
L 278.88205 -42.122344 
L 281.235394 -42.122344 
L 283.588739 -42.122344 
L 285.942083 -42.122344 
L 288.295428 -42.122344 
L 290.648772 -42.122344 
L 293.002117 -42.122344 
L 295.355461 -42.122344 
L 297.708806 -42.122344 
L 300.06215 -42.122344 
L 302.415495 -42.122344 
L 304.768839 -42.122344 
L 307.122184 -42.122344 
L 309.475529 -42.122344 
L 311.828873 -42.122344 
L 314.182218 -42.122344 
L 316.535562 -42.122344 
L 318.888907 -42.122344 
L 321.242251 -42.122344 
L 323.595596 -42.122344 
L 325.94894 -42.122344 
L 328.302285 -42.122344 
L 330.655629 -42.122344 
L 333.008974 -42.122344 
L 335.362318 -42.122344 
L 337.715663 -42.122344 
L 340.069007 -42.122344 
L 342.422352 -42.122344 
L 344.775696 -42.122344 
L 347.129041 -42.122344 
L 349.482386 -42.122344 
L 351.83573 -42.122344 
L 354.189075 -42.122344 
L 356.542419 -42.122344 
L 358.895764 -42.122344 
L 361.249108 -42.122344 
L 363.602453 -42.122344 
L 365.955797 -42.122344 
L 368.309142 -42.122344 
L 370.662486 -42.122344 
L 373.015831 -42.122344 
L 375.369175 -42.122344 
L 377.72252 -42.122344 
L 380.075864 -42.122344 
L 382.429209 -42.122344 
L 384.782554 -42.122344 
L 387.135898 -42.122344 
L 389.489243 -42.122344 
L 391.842587 -42.122344 
L 394.195932 -42.122344 
L 396.549276 -42.122344 
L 398.902621 -42.122344 
L 401.255965 -42.122344 
L 403.60931 -42.122344 
L 405.962654 -42.122344 
L 408.315999 -42.122344 
L 410.669343 -42.122344 
L 413.022688 -42.122344 
L 415.376032 -42.122344 
L 417.729377 -42.122344 
L 420.082721 -42.122344 
L 422.436066 -42.122344 
L 424.789411 -42.122344 
L 427.142755 -42.122344 
L 429.4961 -42.122344 
L 431.849444 -42.122344 
L 434.202789 -42.122344 
L 436.556133 -42.122344 
L 438.909478 -42.122344 
L 441.262822 -42.122344 
L 443.616167 -42.122344 
L 445.969511 -42.122344 
L 448.322856 -42.122344 
L 450.6762 -42.122344 
L 453.029545 -42.122344 
L 455.382889 -42.122344 
L 457.736234 -42.122344 
L 460.089579 -42.122344 
L 462.442923 -42.122344 
L 464.796268 -42.122344 
L 467.149612 -42.122344 
L 469.502957 -42.122344 
L 471.856301 -42.122344 
L 474.209646 -42.122344 
L 476.56299 -42.122344 
L 478.916335 -42.122344 
L 481.269679 -42.122344 
L 483.623024 -42.122344 
L 485.976368 -42.122344 
L 488.329713 -42.122344 
L 490.683057 -42.122344 
L 493.036402 -42.122344 
L 495.389746 -42.122344 
L 497.743091 -42.122344 
L 500.096436 -42.122344 
L 502.44978 -42.122344 
L 504.803125 -42.122344 
L 507.156469 -42.122344 
L 509.509814 -42.122344 
L 511.863158 -42.122344 
L 514.216503 -42.122344 
L 516.569847 -42.122344 
L 518.923192 -42.122344 
L 521.276536 -42.122344 
L 523.629881 -42.122344 
L 525.983225 -42.122344 
L 528.33657 -42.122344 
L 530.689914 -42.122344 
L 533.043259 -42.122344 
L 535.396604 -42.122344 
L 537.749948 -42.122344 
L 540.103293 -42.122344 
L 540.103293 -42.12663 
L 540.103293 -42.12663 
L 537.749948 -42.130715 
L 535.396604 -42.13791 
L 533.043259 -42.149913 
L 530.689914 -42.168865 
L 528.33657 -42.197187 
L 525.983225 -42.237238 
L 523.629881 -42.290859 
L 521.276536 -42.358897 
L 518.923192 -42.440924 
L 516.569847 -42.535323 
L 514.216503 -42.639854 
L 511.863158 -42.752595 
L 509.509814 -42.872972 
L 507.156469 -43.002432 
L 504.803125 -43.144444 
L 502.44978 -43.30373 
L 500.096436 -43.485083 
L 497.743091 -43.69241 
L 495.389746 -43.928685 
L 493.036402 -44.197184 
L 490.683057 -44.503768 
L 488.329713 -44.859426 
L 485.976368 -45.28202 
L 483.623024 -45.796326 
L 481.269679 -46.432117 
L 478.916335 -47.220684 
L 476.56299 -48.190713 
L 474.209646 -49.364421 
L 471.856301 -50.754508 
L 469.502957 -52.362016 
L 467.149612 -54.175003 
L 464.796268 -56.168252 
L 462.442923 -58.304819 
L 460.089579 -60.540638 
L 457.736234 -62.833086 
L 455.382889 -65.153223 
L 453.029545 -67.49953 
L 450.6762 -69.909402 
L 448.322856 -72.464013 
L 445.969511 -75.283265 
L 443.616167 -78.510011 
L 441.262822 -82.285903 
L 438.909478 -86.72388 
L 436.556133 -91.883556 
L 434.202789 -97.755232 
L 431.849444 -104.25615 
L 429.4961 -111.239741 
L 427.142755 -118.515726 
L 424.789411 -125.876751 
L 422.436066 -133.126195 
L 420.082721 -140.101964 
L 417.729377 -146.692438 
L 415.376032 -152.84284 
L 413.022688 -158.552477 
L 410.669343 -163.864916 
L 408.315999 -168.853731 
L 405.962654 -173.606064 
L 403.60931 -178.20555 
L 401.255965 -182.715844 
L 398.902621 -187.166489 
L 396.549276 -191.543715 
L 394.195932 -195.789006 
L 391.842587 -199.807076 
L 389.489243 -203.482279 
L 387.135898 -206.699541 
L 384.782554 -209.364267 
L 382.429209 -211.416332 
L 380.075864 -212.83595 
L 377.72252 -213.642369 
L 375.369175 -213.888133 
L 373.015831 -213.651275 
L 370.662486 -213.025923 
L 368.309142 -212.110099 
L 365.955797 -210.989749 
L 363.602453 -209.720465 
L 361.249108 -208.311686 
L 358.895764 -206.720075 
L 356.542419 -204.857503 
L 354.189075 -202.614469 
L 351.83573 -199.893593 
L 349.482386 -196.643022 
L 347.129041 -192.878537 
L 344.775696 -188.686693 
L 342.422352 -184.207953 
L 340.069007 -179.605765 
L 337.715663 -175.031924 
L 335.362318 -170.598807 
L 333.008974 -166.365409 
L 330.655629 -162.338512 
L 328.302285 -158.485123 
L 325.94894 -154.749645 
L 323.595596 -151.069552 
L 321.242251 -147.38605 
L 318.888907 -143.649503 
L 316.535562 -139.821789 
L 314.182218 -135.878291 
L 311.828873 -131.810978 
L 309.475529 -127.632067 
L 307.122184 -123.376201 
L 304.768839 -119.098806 
L 302.415495 -114.869451 
L 300.06215 -110.760979 
L 297.708806 -106.837075 
L 295.355461 -103.141774 
L 293.002117 -99.693959 
L 290.648772 -96.488204 
L 288.295428 -93.501177 
L 285.942083 -90.701003 
L 283.588739 -88.056269 
L 281.235394 -85.541967 
L 278.88205 -83.141261 
L 276.528705 -80.843868 
L 274.175361 -78.643058 
L 271.822016 -76.533452 
L 269.468671 -74.510834 
L 267.115327 -72.57379 
L 264.761982 -70.725874 
L 262.408638 -68.976743 
L 260.055293 -67.341317 
L 257.701949 -65.837089 
L 255.348604 -64.480579 
L 252.99526 -63.284177 
L 250.641915 -62.254164 
L 248.288571 -61.389925 
L 245.935226 -60.68367 
L 243.581882 -60.119893 
L 241.228537 -59.674205 
L 238.875193 -59.31204 
L 236.521848 -58.988391 
L 234.168503 -58.649896 
L 231.815159 -58.240051 
L 229.461814 -57.707195 
L 227.10847 -57.013707 
L 224.755125 -56.144003 
L 222.401781 -55.109001 
L 220.048436 -53.945546 
L 217.695092 -52.710779 
L 215.341747 -51.472847 
L 212.988403 -50.300191 
L 210.635058 -49.251715 
L 208.281714 -48.369488 
L 205.928369 -47.674743 
L 203.575025 -47.167157 
L 201.22168 -46.826967 
L 198.868336 -46.619334 
L 196.514991 -46.500256 
L 194.161646 -46.42326 
L 191.808302 -46.34592 
L 189.454957 -46.23521 
L 187.101613 -46.070858 
L 184.748268 -45.84625 
L 182.394924 -45.56697 
L 180.041579 -45.247532 
L 177.688235 -44.907204 
L 175.33489 -44.56588 
L 172.981546 -44.240785 
L 170.628201 -43.944461 
L 168.274857 -43.684102 
L 165.921512 -43.46197 
L 163.568168 -43.276471 
L 161.214823 -43.123443 
L 158.861478 -42.997329 
L 156.508134 -42.892105 
L 154.154789 -42.801952 
L 151.801445 -42.721756 
L 149.4481 -42.647502 
L 147.094756 -42.576555 
L 144.741411 -42.50779 
L 142.388067 -42.441488 
L 140.034722 -42.379005 
L 137.681378 -42.322271 
L 135.328033 -42.273258 
L 132.974689 -42.233568 
L 130.621344 -42.204231 
L 128.268 -42.185706 
L 125.914655 -42.178021 
L 123.561311 -42.180906 
L 121.207966 -42.193811 
L 118.854621 -42.215768 
L 116.501277 -42.245139 
L 114.147932 -42.279391 
L 111.794588 -42.315044 
L 109.441243 -42.347922 
L 107.087899 -42.373726 
L 104.734554 -42.388805 
L 102.38121 -42.390916 
L 100.027865 -42.379715 
L 97.674521 -42.356827 
L 95.321176 -42.325444 
L 92.967832 -42.289588 
L 90.614487 -42.253272 
L 88.261143 -42.219789 
L 85.907798 -42.191292 
L 83.554453 -42.168724 
L 81.201109 -42.152004 
L 78.847764 -42.140377 
L 76.49442 -42.132767 
L 74.141075 -42.128071 
L 71.787731 -42.125336 
z
" style="stroke: #4682b4"/>
    </defs>
    <g clip-path="url(#pcc9a7a2419)">
     <use xlink:href="#m8b213a82fe" x="0" y="288" style="fill: #4682b4; fill-opacity: 0.4; stroke: #4682b4"/>
    </g>
   </g>
   <g id="FillBetweenPolyCollection_2">
    <defs>
     <path id="m89b9918c58" d="M 71.397627 -42.126242 
L 71.397627 -42.122344 
L 73.115454 -42.122344 
L 74.833281 -42.122344 
L 76.551109 -42.122344 
L 78.268936 -42.122344 
L 79.986763 -42.122344 
L 81.70459 -42.122344 
L 83.422417 -42.122344 
L 85.140244 -42.122344 
L 86.858072 -42.122344 
L 88.575899 -42.122344 
L 90.293726 -42.122344 
L 92.011553 -42.122344 
L 93.72938 -42.122344 
L 95.447207 -42.122344 
L 97.165035 -42.122344 
L 98.882862 -42.122344 
L 100.600689 -42.122344 
L 102.318516 -42.122344 
L 104.036343 -42.122344 
L 105.754171 -42.122344 
L 107.471998 -42.122344 
L 109.189825 -42.122344 
L 110.907652 -42.122344 
L 112.625479 -42.122344 
L 114.343306 -42.122344 
L 116.061134 -42.122344 
L 117.778961 -42.122344 
L 119.496788 -42.122344 
L 121.214615 -42.122344 
L 122.932442 -42.122344 
L 124.650269 -42.122344 
L 126.368097 -42.122344 
L 128.085924 -42.122344 
L 129.803751 -42.122344 
L 131.521578 -42.122344 
L 133.239405 -42.122344 
L 134.957232 -42.122344 
L 136.67506 -42.122344 
L 138.392887 -42.122344 
L 140.110714 -42.122344 
L 141.828541 -42.122344 
L 143.546368 -42.122344 
L 145.264196 -42.122344 
L 146.982023 -42.122344 
L 148.69985 -42.122344 
L 150.417677 -42.122344 
L 152.135504 -42.122344 
L 153.853331 -42.122344 
L 155.571159 -42.122344 
L 157.288986 -42.122344 
L 159.006813 -42.122344 
L 160.72464 -42.122344 
L 162.442467 -42.122344 
L 164.160294 -42.122344 
L 165.878122 -42.122344 
L 167.595949 -42.122344 
L 169.313776 -42.122344 
L 171.031603 -42.122344 
L 172.74943 -42.122344 
L 174.467257 -42.122344 
L 176.185085 -42.122344 
L 177.902912 -42.122344 
L 179.620739 -42.122344 
L 181.338566 -42.122344 
L 183.056393 -42.122344 
L 184.774221 -42.122344 
L 186.492048 -42.122344 
L 188.209875 -42.122344 
L 189.927702 -42.122344 
L 191.645529 -42.122344 
L 193.363356 -42.122344 
L 195.081184 -42.122344 
L 196.799011 -42.122344 
L 198.516838 -42.122344 
L 200.234665 -42.122344 
L 201.952492 -42.122344 
L 203.670319 -42.122344 
L 205.388147 -42.122344 
L 207.105974 -42.122344 
L 208.823801 -42.122344 
L 210.541628 -42.122344 
L 212.259455 -42.122344 
L 213.977282 -42.122344 
L 215.69511 -42.122344 
L 217.412937 -42.122344 
L 219.130764 -42.122344 
L 220.848591 -42.122344 
L 222.566418 -42.122344 
L 224.284246 -42.122344 
L 226.002073 -42.122344 
L 227.7199 -42.122344 
L 229.437727 -42.122344 
L 231.155554 -42.122344 
L 232.873381 -42.122344 
L 234.591209 -42.122344 
L 236.309036 -42.122344 
L 238.026863 -42.122344 
L 239.74469 -42.122344 
L 241.462517 -42.122344 
L 243.180344 -42.122344 
L 244.898172 -42.122344 
L 246.615999 -42.122344 
L 248.333826 -42.122344 
L 250.051653 -42.122344 
L 251.76948 -42.122344 
L 253.487307 -42.122344 
L 255.205135 -42.122344 
L 256.922962 -42.122344 
L 258.640789 -42.122344 
L 260.358616 -42.122344 
L 262.076443 -42.122344 
L 263.794271 -42.122344 
L 265.512098 -42.122344 
L 267.229925 -42.122344 
L 268.947752 -42.122344 
L 270.665579 -42.122344 
L 272.383406 -42.122344 
L 274.101234 -42.122344 
L 275.819061 -42.122344 
L 277.536888 -42.122344 
L 279.254715 -42.122344 
L 280.972542 -42.122344 
L 282.690369 -42.122344 
L 284.408197 -42.122344 
L 286.126024 -42.122344 
L 287.843851 -42.122344 
L 289.561678 -42.122344 
L 291.279505 -42.122344 
L 292.997332 -42.122344 
L 294.71516 -42.122344 
L 296.432987 -42.122344 
L 298.150814 -42.122344 
L 299.868641 -42.122344 
L 301.586468 -42.122344 
L 303.304296 -42.122344 
L 305.022123 -42.122344 
L 306.73995 -42.122344 
L 308.457777 -42.122344 
L 310.175604 -42.122344 
L 311.893431 -42.122344 
L 313.611259 -42.122344 
L 315.329086 -42.122344 
L 317.046913 -42.122344 
L 318.76474 -42.122344 
L 320.482567 -42.122344 
L 322.200394 -42.122344 
L 323.918222 -42.122344 
L 325.636049 -42.122344 
L 327.353876 -42.122344 
L 329.071703 -42.122344 
L 330.78953 -42.122344 
L 332.507357 -42.122344 
L 334.225185 -42.122344 
L 335.943012 -42.122344 
L 337.660839 -42.122344 
L 339.378666 -42.122344 
L 341.096493 -42.122344 
L 342.814321 -42.122344 
L 344.532148 -42.122344 
L 346.249975 -42.122344 
L 347.967802 -42.122344 
L 349.685629 -42.122344 
L 351.403456 -42.122344 
L 353.121284 -42.122344 
L 354.839111 -42.122344 
L 356.556938 -42.122344 
L 358.274765 -42.122344 
L 359.992592 -42.122344 
L 361.710419 -42.122344 
L 363.428247 -42.122344 
L 365.146074 -42.122344 
L 366.863901 -42.122344 
L 368.581728 -42.122344 
L 370.299555 -42.122344 
L 372.017382 -42.122344 
L 373.73521 -42.122344 
L 375.453037 -42.122344 
L 377.170864 -42.122344 
L 378.888691 -42.122344 
L 380.606518 -42.122344 
L 382.324346 -42.122344 
L 384.042173 -42.122344 
L 385.76 -42.122344 
L 387.477827 -42.122344 
L 389.195654 -42.122344 
L 390.913481 -42.122344 
L 392.631309 -42.122344 
L 394.349136 -42.122344 
L 396.066963 -42.122344 
L 397.78479 -42.122344 
L 399.502617 -42.122344 
L 401.220444 -42.122344 
L 402.938272 -42.122344 
L 404.656099 -42.122344 
L 406.373926 -42.122344 
L 408.091753 -42.122344 
L 409.80958 -42.122344 
L 411.527408 -42.122344 
L 413.245235 -42.122344 
L 413.245235 -42.126242 
L 413.245235 -42.126242 
L 411.527408 -42.12958 
L 409.80958 -42.135176 
L 408.091753 -42.144083 
L 406.373926 -42.157528 
L 404.656099 -42.176744 
L 402.938272 -42.202701 
L 401.220444 -42.235749 
L 399.502617 -42.275261 
L 397.78479 -42.319386 
L 396.066963 -42.365037 
L 394.349136 -42.408211 
L 392.631309 -42.444666 
L 390.913481 -42.470841 
L 389.195654 -42.484861 
L 387.477827 -42.487376 
L 385.76 -42.482043 
L 384.042173 -42.475542 
L 382.324346 -42.477152 
L 380.606518 -42.497975 
L 378.888691 -42.549992 
L 377.170864 -42.64507 
L 375.453037 -42.794024 
L 373.73521 -43.005761 
L 372.017382 -43.28655 
L 370.299555 -43.639469 
L 368.581728 -44.064143 
L 366.863901 -44.55689 
L 365.146074 -45.11139 
L 363.428247 -45.719849 
L 361.710419 -46.374528 
L 359.992592 -47.069366 
L 358.274765 -47.801388 
L 356.556938 -48.571634 
L 354.839111 -49.385456 
L 353.121284 -50.252167 
L 351.403456 -51.18411 
L 349.685629 -52.195275 
L 347.967802 -53.299586 
L 346.249975 -54.509084 
L 344.532148 -55.832322 
L 342.814321 -57.273447 
L 341.096493 -58.832412 
L 339.378666 -60.506613 
L 337.660839 -62.293791 
L 335.943012 -64.195618 
L 334.225185 -66.220956 
L 332.507357 -68.387792 
L 330.78953 -70.723085 
L 329.071703 -73.26039 
L 327.353876 -76.035651 
L 325.636049 -79.081981 
L 323.918222 -82.424344 
L 322.200394 -86.074885 
L 320.482567 -90.029456 
L 318.76474 -94.265773 
L 317.046913 -98.743687 
L 315.329086 -103.408154 
L 313.611259 -108.195402 
L 311.893431 -113.042311 
L 310.175604 -117.898062 
L 308.457777 -122.735974 
L 306.73995 -127.562513 
L 305.022123 -132.420242 
L 303.304296 -137.382337 
L 301.586468 -142.538058 
L 299.868641 -147.971014 
L 298.150814 -153.734327 
L 296.432987 -159.828412 
L 294.71516 -166.187396 
L 292.997332 -172.678976 
L 291.279505 -179.119845 
L 289.561678 -185.305079 
L 287.843851 -191.045893 
L 286.126024 -196.207136 
L 284.408197 -200.734878 
L 282.690369 -204.666322 
L 280.972542 -208.118777 
L 279.254715 -211.260429 
L 277.536888 -214.270986 
L 275.819061 -217.303086 
L 274.101234 -220.454474 
L 272.383406 -223.756782 
L 270.665579 -227.181057 
L 268.947752 -230.655125 
L 267.229925 -234.085366 
L 265.512098 -237.375932 
L 263.794271 -240.441271 
L 262.076443 -243.211294 
L 260.358616 -245.631237 
L 258.640789 -247.659305 
L 256.922962 -249.264517 
L 255.205135 -250.425702 
L 253.487307 -251.131093 
L 251.76948 -251.377254 
L 250.051653 -251.166331 
L 248.333826 -250.501561 
L 246.615999 -249.382202 
L 244.898172 -247.799904 
L 243.180344 -245.738759 
L 241.462517 -243.18057 
L 239.74469 -240.115289 
L 238.026863 -236.554506 
L 236.309036 -232.543935 
L 234.591209 -228.169823 
L 232.873381 -223.555004 
L 231.155554 -218.842975 
L 229.437727 -214.172427 
L 227.7199 -209.648621 
L 226.002073 -205.320194 
L 224.284246 -201.169165 
L 222.566418 -197.118062 
L 220.848591 -193.052471 
L 219.130764 -188.8522 
L 217.412937 -184.421603 
L 215.69511 -179.710546 
L 213.977282 -174.721379 
L 212.259455 -169.502331 
L 210.541628 -164.131853 
L 208.823801 -158.700126 
L 207.105974 -153.293091 
L 205.388147 -147.98189 
L 203.670319 -142.818032 
L 201.952492 -137.832953 
L 200.234665 -133.040314 
L 198.516838 -128.439818 
L 196.799011 -124.0219 
L 195.081184 -119.772804 
L 193.363356 -115.679389 
L 191.645529 -111.732766 
L 189.927702 -107.930004 
L 188.209875 -104.273628 
L 186.492048 -100.769353 
L 184.774221 -97.422951 
L 183.056393 -94.23726 
L 181.338566 -91.210006 
L 179.620739 -88.332685 
L 177.902912 -85.590428 
L 176.185085 -82.962723 
L 174.467257 -80.424967 
L 172.74943 -77.950904 
L 171.031603 -75.515968 
L 169.313776 -73.101195 
L 167.595949 -70.697096 
L 165.878122 -68.306576 
L 164.160294 -65.946034 
L 162.442467 -63.644095 
L 160.72464 -61.437932 
L 159.006813 -59.36772 
L 157.288986 -57.470243 
L 155.571159 -55.772846 
L 153.853331 -54.288937 
L 152.135504 -53.015884 
L 150.417677 -51.935713 
L 148.69985 -51.018429 
L 146.982023 -50.227271 
L 145.264196 -49.524805 
L 143.546368 -48.878602 
L 141.828541 -48.265394 
L 140.110714 -47.672947 
L 138.392887 -47.099511 
L 136.67506 -46.551237 
L 134.957232 -46.038408 
L 133.239405 -45.571535 
L 131.521578 -45.158208 
L 129.803751 -44.801297 
L 128.085924 -44.498635 
L 126.368097 -44.24391 
L 124.650269 -44.028277 
L 122.932442 -43.842117 
L 121.214615 -43.676543 
L 119.496788 -43.52442 
L 117.778961 -43.380884 
L 116.061134 -43.243472 
L 114.343306 -43.111959 
L 112.625479 -42.987995 
L 110.907652 -42.874536 
L 109.189825 -42.775094 
L 107.471998 -42.69283 
L 105.754171 -42.629641 
L 104.036343 -42.585435 
L 102.318516 -42.557801 
L 100.600689 -42.542226 
L 98.882862 -42.532837 
L 97.165035 -42.523506 
L 95.447207 -42.509042 
L 93.72938 -42.486139 
L 92.011553 -42.453843 
L 90.293726 -42.413441 
L 88.575899 -42.367872 
L 86.858072 -42.32085 
L 85.140244 -42.275981 
L 83.422417 -42.236087 
L 81.70459 -42.202852 
L 79.986763 -42.176808 
L 78.268936 -42.157554 
L 76.551109 -42.144093 
L 74.833281 -42.135179 
L 73.115454 -42.129581 
L 71.397627 -42.126242 
z
" style="stroke: #fa8072"/>
    </defs>
    <g clip-path="url(#pcc9a7a2419)">
     <use xlink:href="#m89b9918c58" x="0" y="288" style="fill: #fa8072; fill-opacity: 0.4; stroke: #fa8072"/>
    </g>
   </g>
   <g id="matplotlib.axis_1">
    <g id="xtick_1">
     <g id="line2d_1">
      <defs>
       <path id="ma794d01943" d="M 0 0 
L 0 3.5 
" style="stroke: #000000; stroke-width: 0.8"/>
      </defs>
      <g>
       <use xlink:href="#ma794d01943" x="115.713654" y="245.877656" style="stroke: #000000; stroke-width: 0.8"/>
      </g>
     </g>
     <g id="text_1">
      <!-- −0.2 -->
      <g transform="translate(103.572248 260.475312) scale(0.1 -0.1)">
       <defs>
        <path id="DejaVuSans-c9c" d="M 678 2272 
L 4684 2272 
L 4684 1741 
L 678 1741 
L 678 2272 
z
" transform="scale(0.015625)"/>
        <path id="DejaVuSans-13" d="M 2034 4250 
Q 1547 4250 1301 3770 
Q 1056 3291 1056 2328 
Q 1056 1369 1301 889 
Q 1547 409 2034 409 
Q 2525 409 2770 889 
Q 3016 1369 3016 2328 
Q 3016 3291 2770 3770 
Q 2525 4250 2034 4250 
z
M 2034 4750 
Q 2819 4750 3233 4129 
Q 3647 3509 3647 2328 
Q 3647 1150 3233 529 
Q 2819 -91 2034 -91 
Q 1250 -91 836 529 
Q 422 1150 422 2328 
Q 422 3509 836 4129 
Q 1250 4750 2034 4750 
z
" transform="scale(0.015625)"/>
        <path id="DejaVuSans-11" d="M 684 794 
L 1344 794 
L 1344 0 
L 684 0 
L 684 794 
z
" transform="scale(0.015625)"/>
        <path id="DejaVuSans-15" d="M 1228 531 
L 3431 531 
L 3431 0 
L 469 0 
L 469 531 
Q 828 903 1448 1529 
Q 2069 2156 2228 2338 
Q 2531 2678 2651 2914 
Q 2772 3150 2772 3378 
Q 2772 3750 2511 3984 
Q 2250 4219 1831 4219 
Q 1534 4219 1204 4116 
Q 875 4013 500 3803 
L 500 4441 
Q 881 4594 1212 4672 
Q 1544 4750 1819 4750 
Q 2544 4750 2975 4387 
Q 3406 4025 3406 3419 
Q 3406 3131 3298 2873 
Q 3191 2616 2906 2266 
Q 2828 2175 2409 1742 
Q 1991 1309 1228 531 
z
" transform="scale(0.015625)"/>
       </defs>
       <use xlink:href="#DejaVuSans-c9c"/>
       <use xlink:href="#DejaVuSans-13" transform="translate(83.796875 0)"/>
       <use xlink:href="#DejaVuSans-11" transform="translate(147.421875 0)"/>
       <use xlink:href="#DejaVuSans-15" transform="translate(179.203125 0)"/>
      </g>
     </g>
    </g>
    <g id="xtick_2">
     <g id="line2d_2">
      <g>
       <use xlink:href="#ma794d01943" x="189.146402" y="245.877656" style="stroke: #000000; stroke-width: 0.8"/>
      </g>
     </g>
     <g id="text_2">
      <!-- 0.0 -->
      <g transform="translate(181.194839 260.475312) scale(0.1 -0.1)">
       <use xlink:href="#DejaVuSans-13"/>
       <use xlink:href="#DejaVuSans-11" transform="translate(63.625 0)"/>
       <use xlink:href="#DejaVuSans-13" transform="translate(95.40625 0)"/>
      </g>
     </g>
    </g>
    <g id="xtick_3">
     <g id="line2d_3">
      <g>
       <use xlink:href="#ma794d01943" x="262.57915" y="245.877656" style="stroke: #000000; stroke-width: 0.8"/>
      </g>
     </g>
     <g id="text_3">
      <!-- 0.2 -->
      <g transform="translate(254.627587 260.475312) scale(0.1 -0.1)">
       <use xlink:href="#DejaVuSans-13"/>
       <use xlink:href="#DejaVuSans-11" transform="translate(63.625 0)"/>
       <use xlink:href="#DejaVuSans-15" transform="translate(95.40625 0)"/>
      </g>
     </g>
    </g>
    <g id="xtick_4">
     <g id="line2d_4">
      <g>
       <use xlink:href="#ma794d01943" x="336.011898" y="245.877656" style="stroke: #000000; stroke-width: 0.8"/>
      </g>
     </g>
     <g id="text_4">
      <!-- 0.4 -->
      <g transform="translate(328.060335 260.475312) scale(0.1 -0.1)">
       <defs>
        <path id="DejaVuSans-17" d="M 2419 4116 
L 825 1625 
L 2419 1625 
L 2419 4116 
z
M 2253 4666 
L 3047 4666 
L 3047 1625 
L 3713 1625 
L 3713 1100 
L 3047 1100 
L 3047 0 
L 2419 0 
L 2419 1100 
L 313 1100 
L 313 1709 
L 2253 4666 
z
" transform="scale(0.015625)"/>
       </defs>
       <use xlink:href="#DejaVuSans-13"/>
       <use xlink:href="#DejaVuSans-11" transform="translate(63.625 0)"/>
       <use xlink:href="#DejaVuSans-17" transform="translate(95.40625 0)"/>
      </g>
     </g>
    </g>
    <g id="xtick_5">
     <g id="line2d_5">
      <g>
       <use xlink:href="#ma794d01943" x="409.444646" y="245.877656" style="stroke: #000000; stroke-width: 0.8"/>
      </g>
     </g>
     <g id="text_5">
      <!-- 0.6 -->
      <g transform="translate(401.493083 260.475312) scale(0.1 -0.1)">
       <defs>
        <path id="DejaVuSans-19" d="M 2113 2584 
Q 1688 2584 1439 2293 
Q 1191 2003 1191 1497 
Q 1191 994 1439 701 
Q 1688 409 2113 409 
Q 2538 409 2786 701 
Q 3034 994 3034 1497 
Q 3034 2003 2786 2293 
Q 2538 2584 2113 2584 
z
M 3366 4563 
L 3366 3988 
Q 3128 4100 2886 4159 
Q 2644 4219 2406 4219 
Q 1781 4219 1451 3797 
Q 1122 3375 1075 2522 
Q 1259 2794 1537 2939 
Q 1816 3084 2150 3084 
Q 2853 3084 3261 2657 
Q 3669 2231 3669 1497 
Q 3669 778 3244 343 
Q 2819 -91 2113 -91 
Q 1303 -91 875 529 
Q 447 1150 447 2328 
Q 447 3434 972 4092 
Q 1497 4750 2381 4750 
Q 2619 4750 2861 4703 
Q 3103 4656 3366 4563 
z
" transform="scale(0.015625)"/>
       </defs>
       <use xlink:href="#DejaVuSans-13"/>
       <use xlink:href="#DejaVuSans-11" transform="translate(63.625 0)"/>
       <use xlink:href="#DejaVuSans-19" transform="translate(95.40625 0)"/>
      </g>
     </g>
    </g>
    <g id="xtick_6">
     <g id="line2d_6">
      <g>
       <use xlink:href="#ma794d01943" x="482.877394" y="245.877656" style="stroke: #000000; stroke-width: 0.8"/>
      </g>
     </g>
     <g id="text_6">
      <!-- 0.8 -->
      <g transform="translate(474.925831 260.475312) scale(0.1 -0.1)">
       <defs>
        <path id="DejaVuSans-1b" d="M 2034 2216 
Q 1584 2216 1326 1975 
Q 1069 1734 1069 1313 
Q 1069 891 1326 650 
Q 1584 409 2034 409 
Q 2484 409 2743 651 
Q 3003 894 3003 1313 
Q 3003 1734 2745 1975 
Q 2488 2216 2034 2216 
z
M 1403 2484 
Q 997 2584 770 2862 
Q 544 3141 544 3541 
Q 544 4100 942 4425 
Q 1341 4750 2034 4750 
Q 2731 4750 3128 4425 
Q 3525 4100 3525 3541 
Q 3525 3141 3298 2862 
Q 3072 2584 2669 2484 
Q 3125 2378 3379 2068 
Q 3634 1759 3634 1313 
Q 3634 634 3220 271 
Q 2806 -91 2034 -91 
Q 1263 -91 848 271 
Q 434 634 434 1313 
Q 434 1759 690 2068 
Q 947 2378 1403 2484 
z
M 1172 3481 
Q 1172 3119 1398 2916 
Q 1625 2713 2034 2713 
Q 2441 2713 2670 2916 
Q 2900 3119 2900 3481 
Q 2900 3844 2670 4047 
Q 2441 4250 2034 4250 
Q 1625 4250 1398 4047 
Q 1172 3844 1172 3481 
z
" transform="scale(0.015625)"/>
       </defs>
       <use xlink:href="#DejaVuSans-13"/>
       <use xlink:href="#DejaVuSans-11" transform="translate(63.625 0)"/>
       <use xlink:href="#DejaVuSans-1b" transform="translate(95.40625 0)"/>
      </g>
     </g>
    </g>
    <g id="xtick_7">
     <g id="line2d_7">
      <g>
       <use xlink:href="#ma794d01943" x="556.310142" y="245.877656" style="stroke: #000000; stroke-width: 0.8"/>
      </g>
     </g>
     <g id="text_7">
      <!-- 1.0 -->
      <g transform="translate(548.358579 260.475312) scale(0.1 -0.1)">
       <defs>
        <path id="DejaVuSans-14" d="M 794 531 
L 1825 531 
L 1825 4091 
L 703 3866 
L 703 4441 
L 1819 4666 
L 2450 4666 
L 2450 531 
L 3481 531 
L 3481 0 
L 794 0 
L 794 531 
z
" transform="scale(0.015625)"/>
       </defs>
       <use xlink:href="#DejaVuSans-14"/>
       <use xlink:href="#DejaVuSans-11" transform="translate(63.625 0)"/>
       <use xlink:href="#DejaVuSans-13" transform="translate(95.40625 0)"/>
      </g>
     </g>
    </g>
    <g id="text_8">
     <!-- Cosine Similarity -->
     <g transform="translate(263.73171 274.476094) scale(0.1 -0.1)">
      <defs>
       <path id="DejaVuSans-26" d="M 4122 4306 
L 4122 3641 
Q 3803 3938 3442 4084 
Q 3081 4231 2675 4231 
Q 1875 4231 1450 3742 
Q 1025 3253 1025 2328 
Q 1025 1406 1450 917 
Q 1875 428 2675 428 
Q 3081 428 3442 575 
Q 3803 722 4122 1019 
L 4122 359 
Q 3791 134 3420 21 
Q 3050 -91 2638 -91 
Q 1578 -91 968 557 
Q 359 1206 359 2328 
Q 359 3453 968 4101 
Q 1578 4750 2638 4750 
Q 3056 4750 3426 4639 
Q 3797 4528 4122 4306 
z
" transform="scale(0.015625)"/>
       <path id="DejaVuSans-52" d="M 1959 3097 
Q 1497 3097 1228 2736 
Q 959 2375 959 1747 
Q 959 1119 1226 758 
Q 1494 397 1959 397 
Q 2419 397 2687 759 
Q 2956 1122 2956 1747 
Q 2956 2369 2687 2733 
Q 2419 3097 1959 3097 
z
M 1959 3584 
Q 2709 3584 3137 3096 
Q 3566 2609 3566 1747 
Q 3566 888 3137 398 
Q 2709 -91 1959 -91 
Q 1206 -91 779 398 
Q 353 888 353 1747 
Q 353 2609 779 3096 
Q 1206 3584 1959 3584 
z
" transform="scale(0.015625)"/>
       <path id="DejaVuSans-56" d="M 2834 3397 
L 2834 2853 
Q 2591 2978 2328 3040 
Q 2066 3103 1784 3103 
Q 1356 3103 1142 2972 
Q 928 2841 928 2578 
Q 928 2378 1081 2264 
Q 1234 2150 1697 2047 
L 1894 2003 
Q 2506 1872 2764 1633 
Q 3022 1394 3022 966 
Q 3022 478 2636 193 
Q 2250 -91 1575 -91 
Q 1294 -91 989 -36 
Q 684 19 347 128 
L 347 722 
Q 666 556 975 473 
Q 1284 391 1588 391 
Q 1994 391 2212 530 
Q 2431 669 2431 922 
Q 2431 1156 2273 1281 
Q 2116 1406 1581 1522 
L 1381 1569 
Q 847 1681 609 1914 
Q 372 2147 372 2553 
Q 372 3047 722 3315 
Q 1072 3584 1716 3584 
Q 2034 3584 2315 3537 
Q 2597 3491 2834 3397 
z
" transform="scale(0.015625)"/>
       <path id="DejaVuSans-4c" d="M 603 3500 
L 1178 3500 
L 1178 0 
L 603 0 
L 603 3500 
z
M 603 4863 
L 1178 4863 
L 1178 4134 
L 603 4134 
L 603 4863 
z
" transform="scale(0.015625)"/>
       <path id="DejaVuSans-51" d="M 3513 2113 
L 3513 0 
L 2938 0 
L 2938 2094 
Q 2938 2591 2744 2837 
Q 2550 3084 2163 3084 
Q 1697 3084 1428 2787 
Q 1159 2491 1159 1978 
L 1159 0 
L 581 0 
L 581 3500 
L 1159 3500 
L 1159 2956 
Q 1366 3272 1645 3428 
Q 1925 3584 2291 3584 
Q 2894 3584 3203 3211 
Q 3513 2838 3513 2113 
z
" transform="scale(0.015625)"/>
       <path id="DejaVuSans-48" d="M 3597 1894 
L 3597 1613 
L 953 1613 
Q 991 1019 1311 708 
Q 1631 397 2203 397 
Q 2534 397 2845 478 
Q 3156 559 3463 722 
L 3463 178 
Q 3153 47 2828 -22 
Q 2503 -91 2169 -91 
Q 1331 -91 842 396 
Q 353 884 353 1716 
Q 353 2575 817 3079 
Q 1281 3584 2069 3584 
Q 2775 3584 3186 3129 
Q 3597 2675 3597 1894 
z
M 3022 2063 
Q 3016 2534 2758 2815 
Q 2500 3097 2075 3097 
Q 1594 3097 1305 2825 
Q 1016 2553 972 2059 
L 3022 2063 
z
" transform="scale(0.015625)"/>
       <path id="DejaVuSans-3" transform="scale(0.015625)"/>
       <path id="DejaVuSans-36" d="M 3425 4513 
L 3425 3897 
Q 3066 4069 2747 4153 
Q 2428 4238 2131 4238 
Q 1616 4238 1336 4038 
Q 1056 3838 1056 3469 
Q 1056 3159 1242 3001 
Q 1428 2844 1947 2747 
L 2328 2669 
Q 3034 2534 3370 2195 
Q 3706 1856 3706 1288 
Q 3706 609 3251 259 
Q 2797 -91 1919 -91 
Q 1588 -91 1214 -16 
Q 841 59 441 206 
L 441 856 
Q 825 641 1194 531 
Q 1563 422 1919 422 
Q 2459 422 2753 634 
Q 3047 847 3047 1241 
Q 3047 1584 2836 1778 
Q 2625 1972 2144 2069 
L 1759 2144 
Q 1053 2284 737 2584 
Q 422 2884 422 3419 
Q 422 4038 858 4394 
Q 1294 4750 2059 4750 
Q 2388 4750 2728 4690 
Q 3069 4631 3425 4513 
z
" transform="scale(0.015625)"/>
       <path id="DejaVuSans-50" d="M 3328 2828 
Q 3544 3216 3844 3400 
Q 4144 3584 4550 3584 
Q 5097 3584 5394 3201 
Q 5691 2819 5691 2113 
L 5691 0 
L 5113 0 
L 5113 2094 
Q 5113 2597 4934 2840 
Q 4756 3084 4391 3084 
Q 3944 3084 3684 2787 
Q 3425 2491 3425 1978 
L 3425 0 
L 2847 0 
L 2847 2094 
Q 2847 2600 2669 2842 
Q 2491 3084 2119 3084 
Q 1678 3084 1418 2786 
Q 1159 2488 1159 1978 
L 1159 0 
L 581 0 
L 581 3500 
L 1159 3500 
L 1159 2956 
Q 1356 3278 1631 3431 
Q 1906 3584 2284 3584 
Q 2666 3584 2933 3390 
Q 3200 3197 3328 2828 
z
" transform="scale(0.015625)"/>
       <path id="DejaVuSans-4f" d="M 603 4863 
L 1178 4863 
L 1178 0 
L 603 0 
L 603 4863 
z
" transform="scale(0.015625)"/>
       <path id="DejaVuSans-44" d="M 2194 1759 
Q 1497 1759 1228 1600 
Q 959 1441 959 1056 
Q 959 750 1161 570 
Q 1363 391 1709 391 
Q 2188 391 2477 730 
Q 2766 1069 2766 1631 
L 2766 1759 
L 2194 1759 
z
M 3341 1997 
L 3341 0 
L 2766 0 
L 2766 531 
Q 2569 213 2275 61 
Q 1981 -91 1556 -91 
Q 1019 -91 701 211 
Q 384 513 384 1019 
Q 384 1609 779 1909 
Q 1175 2209 1959 2209 
L 2766 2209 
L 2766 2266 
Q 2766 2663 2505 2880 
Q 2244 3097 1772 3097 
Q 1472 3097 1187 3025 
Q 903 2953 641 2809 
L 641 3341 
Q 956 3463 1253 3523 
Q 1550 3584 1831 3584 
Q 2591 3584 2966 3190 
Q 3341 2797 3341 1997 
z
" transform="scale(0.015625)"/>
       <path id="DejaVuSans-55" d="M 2631 2963 
Q 2534 3019 2420 3045 
Q 2306 3072 2169 3072 
Q 1681 3072 1420 2755 
Q 1159 2438 1159 1844 
L 1159 0 
L 581 0 
L 581 3500 
L 1159 3500 
L 1159 2956 
Q 1341 3275 1631 3429 
Q 1922 3584 2338 3584 
Q 2397 3584 2469 3576 
Q 2541 3569 2628 3553 
L 2631 2963 
z
" transform="scale(0.015625)"/>
       <path id="DejaVuSans-57" d="M 1172 4494 
L 1172 3500 
L 2356 3500 
L 2356 3053 
L 1172 3053 
L 1172 1153 
Q 1172 725 1289 603 
Q 1406 481 1766 481 
L 2356 481 
L 2356 0 
L 1766 0 
Q 1100 0 847 248 
Q 594 497 594 1153 
L 594 3053 
L 172 3053 
L 172 3500 
L 594 3500 
L 594 4494 
L 1172 4494 
z
" transform="scale(0.015625)"/>
       <path id="DejaVuSans-5c" d="M 2059 -325 
Q 1816 -950 1584 -1140 
Q 1353 -1331 966 -1331 
L 506 -1331 
L 506 -850 
L 844 -850 
Q 1081 -850 1212 -737 
Q 1344 -625 1503 -206 
L 1606 56 
L 191 3500 
L 800 3500 
L 1894 763 
L 2988 3500 
L 3597 3500 
L 2059 -325 
z
" transform="scale(0.015625)"/>
      </defs>
      <use xlink:href="#DejaVuSans-26"/>
      <use xlink:href="#DejaVuSans-52" transform="translate(69.828125 0)"/>
      <use xlink:href="#DejaVuSans-56" transform="translate(131.015625 0)"/>
      <use xlink:href="#DejaVuSans-4c" transform="translate(183.109375 0)"/>
      <use xlink:href="#DejaVuSans-51" transform="translate(210.890625 0)"/>
      <use xlink:href="#DejaVuSans-48" transform="translate(274.265625 0)"/>
      <use xlink:href="#DejaVuSans-3" transform="translate(335.796875 0)"/>
      <use xlink:href="#DejaVuSans-36" transform="translate(367.578125 0)"/>
      <use xlink:href="#DejaVuSans-4c" transform="translate(431.0625 0)"/>
      <use xlink:href="#DejaVuSans-50" transform="translate(458.84375 0)"/>
      <use xlink:href="#DejaVuSans-4c" transform="translate(556.25 0)"/>
      <use xlink:href="#DejaVuSans-4f" transform="translate(584.03125 0)"/>
      <use xlink:href="#DejaVuSans-44" transform="translate(611.8125 0)"/>
      <use xlink:href="#DejaVuSans-55" transform="translate(673.09375 0)"/>
      <use xlink:href="#DejaVuSans-4c" transform="translate(714.203125 0)"/>
      <use xlink:href="#DejaVuSans-57" transform="translate(741.984375 0)"/>
      <use xlink:href="#DejaVuSans-5c" transform="translate(781.1875 0)"/>
     </g>
    </g>
   </g>
   <g id="matplotlib.axis_2">
    <g id="ytick_1">
     <g id="line2d_8">
      <defs>
       <path id="m3ee2230a87" d="M 0 0 
L -3.5 0 
" style="stroke: #000000; stroke-width: 0.8"/>
      </defs>
      <g>
       <use xlink:href="#m3ee2230a87" x="47.962344" y="245.877656" style="stroke: #000000; stroke-width: 0.8"/>
      </g>
     </g>
     <g id="text_9">
      <!-- 0.0 -->
      <g transform="translate(25.059219 249.676484) scale(0.1 -0.1)">
       <use xlink:href="#DejaVuSans-13"/>
       <use xlink:href="#DejaVuSans-11" transform="translate(63.625 0)"/>
       <use xlink:href="#DejaVuSans-13" transform="translate(95.40625 0)"/>
      </g>
     </g>
    </g>
    <g id="ytick_2">
     <g id="line2d_9">
      <g>
       <use xlink:href="#m3ee2230a87" x="47.962344" y="217.010481" style="stroke: #000000; stroke-width: 0.8"/>
      </g>
     </g>
     <g id="text_10">
      <!-- 0.5 -->
      <g transform="translate(25.059219 220.809309) scale(0.1 -0.1)">
       <defs>
        <path id="DejaVuSans-18" d="M 691 4666 
L 3169 4666 
L 3169 4134 
L 1269 4134 
L 1269 2991 
Q 1406 3038 1543 3061 
Q 1681 3084 1819 3084 
Q 2600 3084 3056 2656 
Q 3513 2228 3513 1497 
Q 3513 744 3044 326 
Q 2575 -91 1722 -91 
Q 1428 -91 1123 -41 
Q 819 9 494 109 
L 494 744 
Q 775 591 1075 516 
Q 1375 441 1709 441 
Q 2250 441 2565 725 
Q 2881 1009 2881 1497 
Q 2881 1984 2565 2268 
Q 2250 2553 1709 2553 
Q 1456 2553 1204 2497 
Q 953 2441 691 2322 
L 691 4666 
z
" transform="scale(0.015625)"/>
       </defs>
       <use xlink:href="#DejaVuSans-13"/>
       <use xlink:href="#DejaVuSans-11" transform="translate(63.625 0)"/>
       <use xlink:href="#DejaVuSans-18" transform="translate(95.40625 0)"/>
      </g>
     </g>
    </g>
    <g id="ytick_3">
     <g id="line2d_10">
      <g>
       <use xlink:href="#m3ee2230a87" x="47.962344" y="188.143305" style="stroke: #000000; stroke-width: 0.8"/>
      </g>
     </g>
     <g id="text_11">
      <!-- 1.0 -->
      <g transform="translate(25.059219 191.942133) scale(0.1 -0.1)">
       <use xlink:href="#DejaVuSans-14"/>
       <use xlink:href="#DejaVuSans-11" transform="translate(63.625 0)"/>
       <use xlink:href="#DejaVuSans-13" transform="translate(95.40625 0)"/>
      </g>
     </g>
    </g>
    <g id="ytick_4">
     <g id="line2d_11">
      <g>
       <use xlink:href="#m3ee2230a87" x="47.962344" y="159.27613" style="stroke: #000000; stroke-width: 0.8"/>
      </g>
     </g>
     <g id="text_12">
      <!-- 1.5 -->
      <g transform="translate(25.059219 163.074958) scale(0.1 -0.1)">
       <use xlink:href="#DejaVuSans-14"/>
       <use xlink:href="#DejaVuSans-11" transform="translate(63.625 0)"/>
       <use xlink:href="#DejaVuSans-18" transform="translate(95.40625 0)"/>
      </g>
     </g>
    </g>
    <g id="ytick_5">
     <g id="line2d_12">
      <g>
       <use xlink:href="#m3ee2230a87" x="47.962344" y="130.408954" style="stroke: #000000; stroke-width: 0.8"/>
      </g>
     </g>
     <g id="text_13">
      <!-- 2.0 -->
      <g transform="translate(25.059219 134.207782) scale(0.1 -0.1)">
       <use xlink:href="#DejaVuSans-15"/>
       <use xlink:href="#DejaVuSans-11" transform="translate(63.625 0)"/>
       <use xlink:href="#DejaVuSans-13" transform="translate(95.40625 0)"/>
      </g>
     </g>
    </g>
    <g id="ytick_6">
     <g id="line2d_13">
      <g>
       <use xlink:href="#m3ee2230a87" x="47.962344" y="101.541779" style="stroke: #000000; stroke-width: 0.8"/>
      </g>
     </g>
     <g id="text_14">
      <!-- 2.5 -->
      <g transform="translate(25.059219 105.340607) scale(0.1 -0.1)">
       <use xlink:href="#DejaVuSans-15"/>
       <use xlink:href="#DejaVuSans-11" transform="translate(63.625 0)"/>
       <use xlink:href="#DejaVuSans-18" transform="translate(95.40625 0)"/>
      </g>
     </g>
    </g>
    <g id="ytick_7">
     <g id="line2d_14">
      <g>
       <use xlink:href="#m3ee2230a87" x="47.962344" y="72.674603" style="stroke: #000000; stroke-width: 0.8"/>
      </g>
     </g>
     <g id="text_15">
      <!-- 3.0 -->
      <g transform="translate(25.059219 76.473431) scale(0.1 -0.1)">
       <defs>
        <path id="DejaVuSans-16" d="M 2597 2516 
Q 3050 2419 3304 2112 
Q 3559 1806 3559 1356 
Q 3559 666 3084 287 
Q 2609 -91 1734 -91 
Q 1441 -91 1130 -33 
Q 819 25 488 141 
L 488 750 
Q 750 597 1062 519 
Q 1375 441 1716 441 
Q 2309 441 2620 675 
Q 2931 909 2931 1356 
Q 2931 1769 2642 2001 
Q 2353 2234 1838 2234 
L 1294 2234 
L 1294 2753 
L 1863 2753 
Q 2328 2753 2575 2939 
Q 2822 3125 2822 3475 
Q 2822 3834 2567 4026 
Q 2313 4219 1838 4219 
Q 1578 4219 1281 4162 
Q 984 4106 628 3988 
L 628 4550 
Q 988 4650 1302 4700 
Q 1616 4750 1894 4750 
Q 2613 4750 3031 4423 
Q 3450 4097 3450 3541 
Q 3450 3153 3228 2886 
Q 3006 2619 2597 2516 
z
" transform="scale(0.015625)"/>
       </defs>
       <use xlink:href="#DejaVuSans-16"/>
       <use xlink:href="#DejaVuSans-11" transform="translate(63.625 0)"/>
       <use xlink:href="#DejaVuSans-13" transform="translate(95.40625 0)"/>
      </g>
     </g>
    </g>
    <g id="ytick_8">
     <g id="line2d_15">
      <g>
       <use xlink:href="#m3ee2230a87" x="47.962344" y="43.807427" style="stroke: #000000; stroke-width: 0.8"/>
      </g>
     </g>
     <g id="text_16">
      <!-- 3.5 -->
      <g transform="translate(25.059219 47.606256) scale(0.1 -0.1)">
       <use xlink:href="#DejaVuSans-16"/>
       <use xlink:href="#DejaVuSans-11" transform="translate(63.625 0)"/>
       <use xlink:href="#DejaVuSans-18" transform="translate(95.40625 0)"/>
      </g>
     </g>
    </g>
    <g id="text_17">
     <!-- Density -->
     <g transform="translate(18.656875 155.027422) rotate(-90) scale(0.1 -0.1)">
      <defs>
       <path id="DejaVuSans-27" d="M 1259 4147 
L 1259 519 
L 2022 519 
Q 2988 519 3436 956 
Q 3884 1394 3884 2338 
Q 3884 3275 3436 3711 
Q 2988 4147 2022 4147 
L 1259 4147 
z
M 628 4666 
L 1925 4666 
Q 3281 4666 3915 4102 
Q 4550 3538 4550 2338 
Q 4550 1131 3912 565 
Q 3275 0 1925 0 
L 628 0 
L 628 4666 
z
" transform="scale(0.015625)"/>
      </defs>
      <use xlink:href="#DejaVuSans-27"/>
      <use xlink:href="#DejaVuSans-48" transform="translate(77 0)"/>
      <use xlink:href="#DejaVuSans-51" transform="translate(138.53125 0)"/>
      <use xlink:href="#DejaVuSans-56" transform="translate(201.90625 0)"/>
      <use xlink:href="#DejaVuSans-4c" transform="translate(254 0)"/>
      <use xlink:href="#DejaVuSans-57" transform="translate(281.78125 0)"/>
      <use xlink:href="#DejaVuSans-5c" transform="translate(320.984375 0)"/>
     </g>
    </g>
   </g>
   <g id="line2d_16">
    <path d="M 309.556339 245.877656 
L 309.556339 26.16 
" clip-path="url(#pcc9a7a2419)" style="fill: none; stroke-dasharray: 3.7,1.6; stroke-dashoffset: 0; stroke: #000000"/>
   </g>
   <g id="patch_3">
    <path d="M 47.962344 245.877656 
L 47.962344 26.16 
" style="fill: none; stroke: #000000; stroke-width: 0.8; stroke-linejoin: miter; stroke-linecap: square"/>
   </g>
   <g id="patch_4">
    <path d="M 563.538576 245.877656 
L 563.538576 26.16 
" style="fill: none; stroke: #000000; stroke-width: 0.8; stroke-linejoin: miter; stroke-linecap: square"/>
   </g>
   <g id="patch_5">
    <path d="M 47.962344 245.877656 
L 563.538576 245.877656 
" style="fill: none; stroke: #000000; stroke-width: 0.8; stroke-linejoin: miter; stroke-linecap: square"/>
   </g>
   <g id="patch_6">
    <path d="M 47.962344 26.16 
L 563.538576 26.16 
" style="fill: none; stroke: #000000; stroke-width: 0.8; stroke-linejoin: miter; stroke-linecap: square"/>
   </g>
   <g id="text_18">
    <!-- Caucasian — Brightness (β=1.75) -->
    <g transform="translate(204.255772 20.16) scale(0.12 -0.12)">
     <defs>
      <path id="DejaVuSans-58" d="M 544 1381 
L 544 3500 
L 1119 3500 
L 1119 1403 
Q 1119 906 1312 657 
Q 1506 409 1894 409 
Q 2359 409 2629 706 
Q 2900 1003 2900 1516 
L 2900 3500 
L 3475 3500 
L 3475 0 
L 2900 0 
L 2900 538 
Q 2691 219 2414 64 
Q 2138 -91 1772 -91 
Q 1169 -91 856 284 
Q 544 659 544 1381 
z
M 1991 3584 
L 1991 3584 
z
" transform="scale(0.015625)"/>
      <path id="DejaVuSans-46" d="M 3122 3366 
L 3122 2828 
Q 2878 2963 2633 3030 
Q 2388 3097 2138 3097 
Q 1578 3097 1268 2742 
Q 959 2388 959 1747 
Q 959 1106 1268 751 
Q 1578 397 2138 397 
Q 2388 397 2633 464 
Q 2878 531 3122 666 
L 3122 134 
Q 2881 22 2623 -34 
Q 2366 -91 2075 -91 
Q 1284 -91 818 406 
Q 353 903 353 1747 
Q 353 2603 823 3093 
Q 1294 3584 2113 3584 
Q 2378 3584 2631 3529 
Q 2884 3475 3122 3366 
z
" transform="scale(0.015625)"/>
      <path id="DejaVuSans-af6" d="M 313 1978 
L 6088 1978 
L 6088 1528 
L 313 1528 
L 313 1978 
z
" transform="scale(0.015625)"/>
      <path id="DejaVuSans-25" d="M 1259 2228 
L 1259 519 
L 2272 519 
Q 2781 519 3026 730 
Q 3272 941 3272 1375 
Q 3272 1813 3026 2020 
Q 2781 2228 2272 2228 
L 1259 2228 
z
M 1259 4147 
L 1259 2741 
L 2194 2741 
Q 2656 2741 2882 2914 
Q 3109 3088 3109 3444 
Q 3109 3797 2882 3972 
Q 2656 4147 2194 4147 
L 1259 4147 
z
M 628 4666 
L 2241 4666 
Q 2963 4666 3353 4366 
Q 3744 4066 3744 3513 
Q 3744 3084 3544 2831 
Q 3344 2578 2956 2516 
Q 3422 2416 3680 2098 
Q 3938 1781 3938 1306 
Q 3938 681 3513 340 
Q 3088 0 2303 0 
L 628 0 
L 628 4666 
z
" transform="scale(0.015625)"/>
      <path id="DejaVuSans-4a" d="M 2906 1791 
Q 2906 2416 2648 2759 
Q 2391 3103 1925 3103 
Q 1463 3103 1205 2759 
Q 947 2416 947 1791 
Q 947 1169 1205 825 
Q 1463 481 1925 481 
Q 2391 481 2648 825 
Q 2906 1169 2906 1791 
z
M 3481 434 
Q 3481 -459 3084 -895 
Q 2688 -1331 1869 -1331 
Q 1566 -1331 1297 -1286 
Q 1028 -1241 775 -1147 
L 775 -588 
Q 1028 -725 1275 -790 
Q 1522 -856 1778 -856 
Q 2344 -856 2625 -561 
Q 2906 -266 2906 331 
L 2906 616 
Q 2728 306 2450 153 
Q 2172 0 1784 0 
Q 1141 0 747 490 
Q 353 981 353 1791 
Q 353 2603 747 3093 
Q 1141 3584 1784 3584 
Q 2172 3584 2450 3431 
Q 2728 3278 2906 2969 
L 2906 3500 
L 3481 3500 
L 3481 434 
z
" transform="scale(0.015625)"/>
      <path id="DejaVuSans-4b" d="M 3513 2113 
L 3513 0 
L 2938 0 
L 2938 2094 
Q 2938 2591 2744 2837 
Q 2550 3084 2163 3084 
Q 1697 3084 1428 2787 
Q 1159 2491 1159 1978 
L 1159 0 
L 581 0 
L 581 4863 
L 1159 4863 
L 1159 2956 
Q 1366 3272 1645 3428 
Q 1925 3584 2291 3584 
Q 2894 3584 3203 3211 
Q 3513 2838 3513 2113 
z
" transform="scale(0.015625)"/>
      <path id="DejaVuSans-b" d="M 1984 4856 
Q 1566 4138 1362 3434 
Q 1159 2731 1159 2009 
Q 1159 1288 1364 580 
Q 1569 -128 1984 -844 
L 1484 -844 
Q 1016 -109 783 600 
Q 550 1309 550 2009 
Q 550 2706 781 3412 
Q 1013 4119 1484 4856 
L 1984 4856 
z
" transform="scale(0.015625)"/>
      <path id="DejaVuSans-346" d="M 1178 216 
L 1178 -1331 
L 600 -1331 
L 600 3478 
Q 600 4903 1931 4903 
Q 3288 4903 3288 3700 
Q 3288 2844 2750 2531 
Q 3625 2250 3625 1416 
Q 3625 -66 2119 -66 
Q 1456 -66 1178 216 
z
M 1178 966 
Q 1525 425 2141 425 
Q 3041 425 3041 1406 
Q 3041 2288 1591 2219 
L 1591 2750 
Q 2725 2750 2725 3750 
Q 2725 4434 1994 4434 
Q 1178 4434 1178 3459 
L 1178 966 
z
" transform="scale(0.015625)"/>
      <path id="DejaVuSans-20" d="M 678 2906 
L 4684 2906 
L 4684 2381 
L 678 2381 
L 678 2906 
z
M 678 1631 
L 4684 1631 
L 4684 1100 
L 678 1100 
L 678 1631 
z
" transform="scale(0.015625)"/>
      <path id="DejaVuSans-1a" d="M 525 4666 
L 3525 4666 
L 3525 4397 
L 1831 0 
L 1172 0 
L 2766 4134 
L 525 4134 
L 525 4666 
z
" transform="scale(0.015625)"/>
      <path id="DejaVuSans-c" d="M 513 4856 
L 1013 4856 
Q 1481 4119 1714 3412 
Q 1947 2706 1947 2009 
Q 1947 1309 1714 600 
Q 1481 -109 1013 -844 
L 513 -844 
Q 928 -128 1133 580 
Q 1338 1288 1338 2009 
Q 1338 2731 1133 3434 
Q 928 4138 513 4856 
z
" transform="scale(0.015625)"/>
     </defs>
     <use xlink:href="#DejaVuSans-26"/>
     <use xlink:href="#DejaVuSans-44" transform="translate(69.828125 0)"/>
     <use xlink:href="#DejaVuSans-58" transform="translate(131.109375 0)"/>
     <use xlink:href="#DejaVuSans-46" transform="translate(194.484375 0)"/>
     <use xlink:href="#DejaVuSans-44" transform="translate(249.46875 0)"/>
     <use xlink:href="#DejaVuSans-56" transform="translate(310.75 0)"/>
     <use xlink:href="#DejaVuSans-4c" transform="translate(362.84375 0)"/>
     <use xlink:href="#DejaVuSans-44" transform="translate(390.625 0)"/>
     <use xlink:href="#DejaVuSans-51" transform="translate(451.90625 0)"/>
     <use xlink:href="#DejaVuSans-3" transform="translate(515.28125 0)"/>
     <use xlink:href="#DejaVuSans-af6" transform="translate(547.0625 0)"/>
     <use xlink:href="#DejaVuSans-3" transform="translate(647.0625 0)"/>
     <use xlink:href="#DejaVuSans-25" transform="translate(678.84375 0)"/>
     <use xlink:href="#DejaVuSans-55" transform="translate(747.453125 0)"/>
     <use xlink:href="#DejaVuSans-4c" transform="translate(788.5625 0)"/>
     <use xlink:href="#DejaVuSans-4a" transform="translate(816.34375 0)"/>
     <use xlink:href="#DejaVuSans-4b" transform="translate(879.828125 0)"/>
     <use xlink:href="#DejaVuSans-57" transform="translate(943.203125 0)"/>
     <use xlink:href="#DejaVuSans-51" transform="translate(982.40625 0)"/>
     <use xlink:href="#DejaVuSans-48" transform="translate(1045.78125 0)"/>
     <use xlink:href="#DejaVuSans-56" transform="translate(1107.3125 0)"/>
     <use xlink:href="#DejaVuSans-56" transform="translate(1159.40625 0)"/>
     <use xlink:href="#DejaVuSans-3" transform="translate(1211.5 0)"/>
     <use xlink:href="#DejaVuSans-b" transform="translate(1243.28125 0)"/>
     <use xlink:href="#DejaVuSans-346" transform="translate(1282.296875 0)"/>
     <use xlink:href="#DejaVuSans-20" transform="translate(1346.109375 0)"/>
     <use xlink:href="#DejaVuSans-14" transform="translate(1429.90625 0)"/>
     <use xlink:href="#DejaVuSans-11" transform="translate(1493.53125 0)"/>
     <use xlink:href="#DejaVuSans-1a" transform="translate(1525.3125 0)"/>
     <use xlink:href="#DejaVuSans-18" transform="translate(1588.9375 0)"/>
     <use xlink:href="#DejaVuSans-c" transform="translate(1652.5625 0)"/>
    </g>
   </g>
   <g id="legend_1">
    <g id="patch_7">
     <path d="M 450.397951 79.162344 
L 556.538576 79.162344 
Q 558.538576 79.162344 558.538576 77.162344 
L 558.538576 33.16 
Q 558.538576 31.16 556.538576 31.16 
L 450.397951 31.16 
Q 448.397951 31.16 448.397951 33.16 
L 448.397951 77.162344 
Q 448.397951 79.162344 450.397951 79.162344 
z
" style="fill: #ffffff; opacity: 0.8; stroke: #cccccc; stroke-linejoin: miter"/>
    </g>
    <g id="patch_8">
     <path d="M 452.397951 42.758437 
L 472.397951 42.758437 
L 472.397951 35.758437 
L 452.397951 35.758437 
z
" style="fill: #4682b4; fill-opacity: 0.4; stroke: #4682b4; stroke-linejoin: miter"/>
    </g>
    <g id="text_19">
     <!-- Genuine -->
     <g transform="translate(480.397951 42.758437) scale(0.1 -0.1)">
      <defs>
       <path id="DejaVuSans-2a" d="M 3809 666 
L 3809 1919 
L 2778 1919 
L 2778 2438 
L 4434 2438 
L 4434 434 
Q 4069 175 3628 42 
Q 3188 -91 2688 -91 
Q 1594 -91 976 548 
Q 359 1188 359 2328 
Q 359 3472 976 4111 
Q 1594 4750 2688 4750 
Q 3144 4750 3555 4637 
Q 3966 4525 4313 4306 
L 4313 3634 
Q 3963 3931 3569 4081 
Q 3175 4231 2741 4231 
Q 1884 4231 1454 3753 
Q 1025 3275 1025 2328 
Q 1025 1384 1454 906 
Q 1884 428 2741 428 
Q 3075 428 3337 486 
Q 3600 544 3809 666 
z
" transform="scale(0.015625)"/>
      </defs>
      <use xlink:href="#DejaVuSans-2a"/>
      <use xlink:href="#DejaVuSans-48" transform="translate(77.484375 0)"/>
      <use xlink:href="#DejaVuSans-51" transform="translate(139.015625 0)"/>
      <use xlink:href="#DejaVuSans-58" transform="translate(202.390625 0)"/>
      <use xlink:href="#DejaVuSans-4c" transform="translate(265.765625 0)"/>
      <use xlink:href="#DejaVuSans-51" transform="translate(293.546875 0)"/>
      <use xlink:href="#DejaVuSans-48" transform="translate(356.921875 0)"/>
     </g>
    </g>
    <g id="patch_9">
     <path d="M 452.397951 57.759219 
L 472.397951 57.759219 
L 472.397951 50.759219 
L 452.397951 50.759219 
z
" style="fill: #fa8072; fill-opacity: 0.4; stroke: #fa8072; stroke-linejoin: miter"/>
    </g>
    <g id="text_20">
     <!-- Impostor -->
     <g transform="translate(480.397951 57.759219) scale(0.1 -0.1)">
      <defs>
       <path id="DejaVuSans-2c" d="M 628 4666 
L 1259 4666 
L 1259 0 
L 628 0 
L 628 4666 
z
" transform="scale(0.015625)"/>
       <path id="DejaVuSans-53" d="M 1159 525 
L 1159 -1331 
L 581 -1331 
L 581 3500 
L 1159 3500 
L 1159 2969 
Q 1341 3281 1617 3432 
Q 1894 3584 2278 3584 
Q 2916 3584 3314 3078 
Q 3713 2572 3713 1747 
Q 3713 922 3314 415 
Q 2916 -91 2278 -91 
Q 1894 -91 1617 61 
Q 1341 213 1159 525 
z
M 3116 1747 
Q 3116 2381 2855 2742 
Q 2594 3103 2138 3103 
Q 1681 3103 1420 2742 
Q 1159 2381 1159 1747 
Q 1159 1113 1420 752 
Q 1681 391 2138 391 
Q 2594 391 2855 752 
Q 3116 1113 3116 1747 
z
" transform="scale(0.015625)"/>
      </defs>
      <use xlink:href="#DejaVuSans-2c"/>
      <use xlink:href="#DejaVuSans-50" transform="translate(29.5 0)"/>
      <use xlink:href="#DejaVuSans-53" transform="translate(126.90625 0)"/>
      <use xlink:href="#DejaVuSans-52" transform="translate(190.390625 0)"/>
      <use xlink:href="#DejaVuSans-56" transform="translate(251.578125 0)"/>
      <use xlink:href="#DejaVuSans-57" transform="translate(303.671875 0)"/>
      <use xlink:href="#DejaVuSans-52" transform="translate(342.875 0)"/>
      <use xlink:href="#DejaVuSans-55" transform="translate(404.0625 0)"/>
     </g>
    </g>
    <g id="line2d_17">
     <path d="M 452.397951 69.26 
L 462.397951 69.26 
L 472.397951 69.26 
" style="fill: none; stroke-dasharray: 3.7,1.6; stroke-dashoffset: 0; stroke: #000000"/>
    </g>
    <g id="text_21">
     <!-- EER thr=0.328 -->
     <g transform="translate(480.397951 72.76) scale(0.1 -0.1)">
      <defs>
       <path id="DejaVuSans-28" d="M 628 4666 
L 3578 4666 
L 3578 4134 
L 1259 4134 
L 1259 2753 
L 3481 2753 
L 3481 2222 
L 1259 2222 
L 1259 531 
L 3634 531 
L 3634 0 
L 628 0 
L 628 4666 
z
" transform="scale(0.015625)"/>
       <path id="DejaVuSans-35" d="M 2841 2188 
Q 3044 2119 3236 1894 
Q 3428 1669 3622 1275 
L 4263 0 
L 3584 0 
L 2988 1197 
Q 2756 1666 2539 1819 
Q 2322 1972 1947 1972 
L 1259 1972 
L 1259 0 
L 628 0 
L 628 4666 
L 2053 4666 
Q 2853 4666 3247 4331 
Q 3641 3997 3641 3322 
Q 3641 2881 3436 2590 
Q 3231 2300 2841 2188 
z
M 1259 4147 
L 1259 2491 
L 2053 2491 
Q 2509 2491 2742 2702 
Q 2975 2913 2975 3322 
Q 2975 3731 2742 3939 
Q 2509 4147 2053 4147 
L 1259 4147 
z
" transform="scale(0.015625)"/>
      </defs>
      <use xlink:href="#DejaVuSans-28"/>
      <use xlink:href="#DejaVuSans-28" transform="translate(63.1875 0)"/>
      <use xlink:href="#DejaVuSans-35" transform="translate(126.375 0)"/>
      <use xlink:href="#DejaVuSans-3" transform="translate(195.859375 0)"/>
      <use xlink:href="#DejaVuSans-57" transform="translate(227.640625 0)"/>
      <use xlink:href="#DejaVuSans-4b" transform="translate(266.84375 0)"/>
      <use xlink:href="#DejaVuSans-55" transform="translate(330.21875 0)"/>
      <use xlink:href="#DejaVuSans-20" transform="translate(371.328125 0)"/>
      <use xlink:href="#DejaVuSans-13" transform="translate(455.125 0)"/>
      <use xlink:href="#DejaVuSans-11" transform="translate(518.75 0)"/>
      <use xlink:href="#DejaVuSans-16" transform="translate(550.53125 0)"/>
      <use xlink:href="#DejaVuSans-15" transform="translate(614.15625 0)"/>
      <use xlink:href="#DejaVuSans-1b" transform="translate(677.78125 0)"/>
     </g>
    </g>
   </g>
  </g>
 </g>
 <defs>
  <clipPath id="pcc9a7a2419">
   <rect x="47.962344" y="26.16" width="515.576232" height="219.717656"/>
  </clipPath>
 </defs>
</svg>
