<?xml version="1.0" encoding="utf-8" standalone="no"?>
<!DOCTYPE svg PUBLIC "-//W3C//DTD SVG 1.1//EN"
  "http://www.w3.org/Graphics/SVG/1.1/DTD/svg11.dtd">
<svg xmlns:xlink="http://www.w3.org/1999/xlink" width="576pt" height="288pt" viewBox="0 0 576 288" xmlns="http://www.w3.org/2000/svg" version="1.1">
 <metadata>
  <rdf:RDF xmlns:dc="http://purl.org/dc/elements/1.1/" xmlns:cc="http://creativecommons.org/ns#" xmlns:rdf="http://www.w3.org/1999/02/22-rdf-syntax-ns#">
   <cc:Work>
    <dc:type rdf:resource="http://purl.org/dc/dcmitype/StillImage"/>
    <dc:date>2026-07-30T17:32:36.567311</dc:date>
    <dc:format>image/svg+xml</dc:format>
    <dc:creator>
     <cc:Agent>
      <dc:title>Matplotlib v3.11.0, https://matplotlib.org/</dc:title>
     </cc:Agent>
    </dc:creator>
   </cc:Work>
  </rdf:RDF>
 </metadata>
 <defs>
  <style type="text/css">*{stroke-linejoin: round; stroke-linecap: butt}</style>
 </defs>
 <g id="figure_1">
  <g id="patch_1">
   <path d="M 0 288 
L 576 288 
L 576 0 
L 0 0 
z
" style="fill: #ffffff"/>
  </g>
  <g id="axes_1">
   <g id="patch_2">
    <path d="M 38.602344 245.877656 
L 559.857726 245.877656 
L 559.857726 26.16 
L 38.602344 26.16 
z
" style="fill: #ffffff"/>
   </g>
   <g id="FillBetweenPolyCollection_1">
    <defs>
     <path id="m12df1fdd96" d="M 136.533074 -42.125524 
L 136.533074 -42.122344 
L 138.541271 -42.122344 
L 140.549468 -42.122344 
L 142.557666 -42.122344 
L 144.565863 -42.122344 
L 146.57406 -42.122344 
L 148.582257 -42.122344 
L 150.590454 -42.122344 
L 152.598651 -42.122344 
L 154.606848 -42.122344 
L 156.615045 -42.122344 
L 158.623242 -42.122344 
L 160.63144 -42.122344 
L 162.639637 -42.122344 
L 164.647834 -42.122344 
L 166.656031 -42.122344 
L 168.664228 -42.122344 
L 170.672425 -42.122344 
L 172.680622 -42.122344 
L 174.688819 -42.122344 
L 176.697016 -42.122344 
L 178.705214 -42.122344 
L 180.713411 -42.122344 
L 182.721608 -42.122344 
L 184.729805 -42.122344 
L 186.738002 -42.122344 
L 188.746199 -42.122344 
L 190.754396 -42.122344 
L 192.762593 -42.122344 
L 194.77079 -42.122344 
L 196.778988 -42.122344 
L 198.787185 -42.122344 
L 200.795382 -42.122344 
L 202.803579 -42.122344 
L 204.811776 -42.122344 
L 206.819973 -42.122344 
L 208.82817 -42.122344 
L 210.836367 -42.122344 
L 212.844564 -42.122344 
L 214.852762 -42.122344 
L 216.860959 -42.122344 
L 218.869156 -42.122344 
L 220.877353 -42.122344 
L 222.88555 -42.122344 
L 224.893747 -42.122344 
L 226.901944 -42.122344 
L 228.910141 -42.122344 
L 230.918338 -42.122344 
L 232.926536 -42.122344 
L 234.934733 -42.122344 
L 236.94293 -42.122344 
L 238.951127 -42.122344 
L 240.959324 -42.122344 
L 242.967521 -42.122344 
L 244.975718 -42.122344 
L 246.983915 -42.122344 
L 248.992112 -42.122344 
L 251.00031 -42.122344 
L 253.008507 -42.122344 
L 255.016704 -42.122344 
L 257.024901 -42.122344 
L 259.033098 -42.122344 
L 261.041295 -42.122344 
L 263.049492 -42.122344 
L 265.057689 -42.122344 
L 267.065886 -42.122344 
L 269.074084 -42.122344 
L 271.082281 -42.122344 
L 273.090478 -42.122344 
L 275.098675 -42.122344 
L 277.106872 -42.122344 
L 279.115069 -42.122344 
L 281.123266 -42.122344 
L 283.131463 -42.122344 
L 285.13966 -42.122344 
L 287.147858 -42.122344 
L 289.156055 -42.122344 
L 291.164252 -42.122344 
L 293.172449 -42.122344 
L 295.180646 -42.122344 
L 297.188843 -42.122344 
L 299.19704 -42.122344 
L 301.205237 -42.122344 
L 303.213434 -42.122344 
L 305.221632 -42.122344 
L 307.229829 -42.122344 
L 309.238026 -42.122344 
L 311.246223 -42.122344 
L 313.25442 -42.122344 
L 315.262617 -42.122344 
L 317.270814 -42.122344 
L 319.279011 -42.122344 
L 321.287208 -42.122344 
L 323.295406 -42.122344 
L 325.303603 -42.122344 
L 327.3118 -42.122344 
L 329.319997 -42.122344 
L 331.328194 -42.122344 
L 333.336391 -42.122344 
L 335.344588 -42.122344 
L 337.352785 -42.122344 
L 339.360982 -42.122344 
L 341.36918 -42.122344 
L 343.377377 -42.122344 
L 345.385574 -42.122344 
L 347.393771 -42.122344 
L 349.401968 -42.122344 
L 351.410165 -42.122344 
L 353.418362 -42.122344 
L 355.426559 -42.122344 
L 357.434756 -42.122344 
L 359.442954 -42.122344 
L 361.451151 -42.122344 
L 363.459348 -42.122344 
L 365.467545 -42.122344 
L 367.475742 -42.122344 
L 369.483939 -42.122344 
L 371.492136 -42.122344 
L 373.500333 -42.122344 
L 375.50853 -42.122344 
L 377.516728 -42.122344 
L 379.524925 -42.122344 
L 381.533122 -42.122344 
L 383.541319 -42.122344 
L 385.549516 -42.122344 
L 387.557713 -42.122344 
L 389.56591 -42.122344 
L 391.574107 -42.122344 
L 393.582304 -42.122344 
L 395.590502 -42.122344 
L 397.598699 -42.122344 
L 399.606896 -42.122344 
L 401.615093 -42.122344 
L 403.62329 -42.122344 
L 405.631487 -42.122344 
L 407.639684 -42.122344 
L 409.647881 -42.122344 
L 411.656078 -42.122344 
L 413.664276 -42.122344 
L 415.672473 -42.122344 
L 417.68067 -42.122344 
L 419.688867 -42.122344 
L 421.697064 -42.122344 
L 423.705261 -42.122344 
L 425.713458 -42.122344 
L 427.721655 -42.122344 
L 429.729852 -42.122344 
L 431.73805 -42.122344 
L 433.746247 -42.122344 
L 435.754444 -42.122344 
L 437.762641 -42.122344 
L 439.770838 -42.122344 
L 441.779035 -42.122344 
L 443.787232 -42.122344 
L 445.795429 -42.122344 
L 447.803626 -42.122344 
L 449.811824 -42.122344 
L 451.820021 -42.122344 
L 453.828218 -42.122344 
L 455.836415 -42.122344 
L 457.844612 -42.122344 
L 459.852809 -42.122344 
L 461.861006 -42.122344 
L 463.869203 -42.122344 
L 465.8774 -42.122344 
L 467.885598 -42.122344 
L 469.893795 -42.122344 
L 471.901992 -42.122344 
L 473.910189 -42.122344 
L 475.918386 -42.122344 
L 477.926583 -42.122344 
L 479.93478 -42.122344 
L 481.942977 -42.122344 
L 483.951174 -42.122344 
L 485.959372 -42.122344 
L 487.967569 -42.122344 
L 489.975766 -42.122344 
L 491.983963 -42.122344 
L 493.99216 -42.122344 
L 496.000357 -42.122344 
L 498.008554 -42.122344 
L 500.016751 -42.122344 
L 502.024948 -42.122344 
L 504.033146 -42.122344 
L 506.041343 -42.122344 
L 508.04954 -42.122344 
L 510.057737 -42.122344 
L 512.065934 -42.122344 
L 514.074131 -42.122344 
L 516.082328 -42.122344 
L 518.090525 -42.122344 
L 520.098722 -42.122344 
L 522.10692 -42.122344 
L 524.115117 -42.122344 
L 526.123314 -42.122344 
L 528.131511 -42.122344 
L 530.139708 -42.122344 
L 532.147905 -42.122344 
L 534.156102 -42.122344 
L 536.164299 -42.122344 
L 536.164299 -42.127549 
L 536.164299 -42.127549 
L 534.156102 -42.132491 
L 532.147905 -42.141205 
L 530.139708 -42.155781 
L 528.131511 -42.178907 
L 526.123314 -42.213701 
L 524.115117 -42.263333 
L 522.10692 -42.330449 
L 520.098722 -42.416483 
L 518.090525 -42.521059 
L 516.082328 -42.641686 
L 514.074131 -42.773953 
L 512.065934 -42.912279 
L 510.057737 -43.05111 
L 508.04954 -43.186261 
L 506.041343 -43.316062 
L 504.033146 -43.441964 
L 502.024948 -43.568472 
L 500.016751 -43.702461 
L 498.008554 -43.852113 
L 496.000357 -44.025835 
L 493.99216 -44.231521 
L 491.983963 -44.476423 
L 489.975766 -44.767739 
L 487.967569 -45.113796 
L 485.959372 -45.525408 
L 483.951174 -46.0168 
L 481.942977 -46.605416 
L 479.93478 -47.310146 
L 477.926583 -48.148019 
L 475.918386 -49.130015 
L 473.910189 -50.257213 
L 471.901992 -51.518727 
L 469.893795 -52.892533 
L 467.885598 -54.349572 
L 465.8774 -55.86036 
L 463.869203 -57.402405 
L 461.861006 -58.966145 
L 459.852809 -60.557485 
L 457.844612 -62.196122 
L 455.836415 -63.910543 
L 453.828218 -65.731999 
L 451.820021 -67.690338 
L 449.811824 -69.813708 
L 447.803626 -72.13222 
L 445.795429 -74.683353 
L 443.787232 -77.515458 
L 441.779035 -80.685928 
L 439.770838 -84.252617 
L 437.762641 -88.260096 
L 435.754444 -92.725085 
L 433.746247 -97.626541 
L 431.73805 -102.904797 
L 429.729852 -108.471119 
L 427.721655 -114.22526 
L 425.713458 -120.075447 
L 423.705261 -125.954248 
L 421.697064 -131.825249 
L 419.688867 -137.678929 
L 417.68067 -143.520235 
L 415.672473 -149.353228 
L 413.664276 -155.168851 
L 411.656078 -160.939925 
L 409.647881 -166.624047 
L 407.639684 -172.171596 
L 405.631487 -177.534133 
L 403.62329 -182.668907 
L 401.615093 -187.537549 
L 399.606896 -192.100328 
L 397.598699 -196.309862 
L 395.590502 -200.108892 
L 393.582304 -203.435185 
L 391.574107 -206.233467 
L 389.56591 -208.470907 
L 387.557713 -210.150378 
L 385.549516 -211.315672 
L 383.541319 -212.045126 
L 381.533122 -212.433977 
L 379.524925 -212.569911 
L 377.516728 -212.509059 
L 375.50853 -212.260031 
L 373.500333 -211.781286 
L 371.492136 -210.992916 
L 369.483939 -209.799446 
L 367.475742 -208.117027 
L 365.467545 -205.897574 
L 363.459348 -203.143912 
L 361.451151 -199.912989 
L 359.442954 -196.307579 
L 357.434756 -192.459568 
L 355.426559 -188.509343 
L 353.418362 -184.586039 
L 351.410165 -180.792393 
L 349.401968 -177.196186 
L 347.393771 -173.828166 
L 345.385574 -170.684647 
L 343.377377 -167.732298 
L 341.36918 -164.913233 
L 339.360982 -162.150046 
L 337.352785 -159.351947 
L 335.344588 -156.423718 
L 333.336391 -153.278388 
L 331.328194 -149.852502 
L 329.319997 -146.120733 
L 327.3118 -142.105418 
L 325.303603 -137.877197 
L 323.295406 -133.545154 
L 321.287208 -129.238083 
L 319.279011 -125.081202 
L 317.270814 -121.174047 
L 315.262617 -117.574665 
L 313.25442 -114.293147 
L 311.246223 -111.294776 
L 309.238026 -108.510732 
L 307.229829 -105.853099 
L 305.221632 -103.230862 
L 303.213434 -100.564371 
L 301.205237 -97.796631 
L 299.19704 -94.900466 
L 297.188843 -91.880981 
L 295.180646 -88.773085 
L 293.172449 -85.634382 
L 291.164252 -82.534603 
L 289.156055 -79.543522 
L 287.147858 -76.719748 
L 285.13966 -74.102505 
L 283.131463 -71.707635 
L 281.123266 -69.52797 
L 279.115069 -67.537356 
L 277.106872 -65.697193 
L 275.098675 -63.9644 
L 273.090478 -62.299756 
L 271.082281 -60.675516 
L 269.074084 -59.080946 
L 267.065886 -57.524353 
L 265.057689 -56.030612 
L 263.049492 -54.634313 
L 261.041295 -53.37 
L 259.033098 -52.262185 
L 257.024901 -51.318059 
L 255.016704 -50.525141 
L 253.008507 -49.854506 
L 251.00031 -49.268487 
L 248.992112 -48.730368 
L 246.983915 -48.21308 
L 244.975718 -47.704359 
L 242.967521 -47.207074 
L 240.959324 -46.734977 
L 238.951127 -46.305595 
L 236.94293 -45.932751 
L 234.934733 -45.621197 
L 232.926536 -45.364929 
L 230.918338 -45.149372 
L 228.910141 -44.956265 
L 226.901944 -44.769236 
L 224.893747 -44.57805 
L 222.88555 -44.380241 
L 220.877353 -44.179977 
L 218.869156 -43.985033 
L 216.860959 -43.80327 
L 214.852762 -43.639946 
L 212.844564 -43.496579 
L 210.836367 -43.371381 
L 208.82817 -43.260674 
L 206.819973 -43.16052 
L 204.811776 -43.067888 
L 202.803579 -42.981087 
L 200.795382 -42.899556 
L 198.787185 -42.823331 
L 196.778988 -42.752597 
L 194.77079 -42.687545 
L 192.762593 -42.628542 
L 190.754396 -42.576461 
L 188.746199 -42.532865 
L 186.738002 -42.499871 
L 184.729805 -42.479629 
L 182.721608 -42.473562 
L 180.713411 -42.481635 
L 178.705214 -42.5019 
L 176.697016 -42.530511 
L 174.688819 -42.562197 
L 172.680622 -42.591078 
L 170.672425 -42.611601 
L 168.664228 -42.619385 
L 166.656031 -42.611829 
L 164.647834 -42.588393 
L 162.639637 -42.550547 
L 160.63144 -42.50143 
L 158.623242 -42.445271 
L 156.615045 -42.386704 
L 154.606848 -42.330061 
L 152.598651 -42.278811 
L 150.590454 -42.235212 
L 148.582257 -42.200234 
L 146.57406 -42.17372 
L 144.565863 -42.154709 
L 142.557666 -42.141803 
L 140.549468 -42.133504 
L 138.541271 -42.128446 
L 136.533074 -42.125524 
z
" style="stroke: #4682b4"/>
    </defs>
    <g clip-path="url(#p75a6b6a0d0)">
     <use xlink:href="#m12df1fdd96" x="0" y="288" style="fill: #4682b4; fill-opacity: 0.4; stroke: #4682b4"/>
    </g>
   </g>
   <g id="FillBetweenPolyCollection_2">
    <defs>
     <path id="mddeec1153b" d="M 62.29577 -42.126154 
L 62.29577 -42.122344 
L 63.756729 -42.122344 
L 65.217689 -42.122344 
L 66.678648 -42.122344 
L 68.139607 -42.122344 
L 69.600566 -42.122344 
L 71.061525 -42.122344 
L 72.522485 -42.122344 
L 73.983444 -42.122344 
L 75.444403 -42.122344 
L 76.905362 -42.122344 
L 78.366321 -42.122344 
L 79.82728 -42.122344 
L 81.28824 -42.122344 
L 82.749199 -42.122344 
L 84.210158 -42.122344 
L 85.671117 -42.122344 
L 87.132076 -42.122344 
L 88.593036 -42.122344 
L 90.053995 -42.122344 
L 91.514954 -42.122344 
L 92.975913 -42.122344 
L 94.436872 -42.122344 
L 95.897832 -42.122344 
L 97.358791 -42.122344 
L 98.81975 -42.122344 
L 100.280709 -42.122344 
L 101.741668 -42.122344 
L 103.202628 -42.122344 
L 104.663587 -42.122344 
L 106.124546 -42.122344 
L 107.585505 -42.122344 
L 109.046464 -42.122344 
L 110.507423 -42.122344 
L 111.968383 -42.122344 
L 113.429342 -42.122344 
L 114.890301 -42.122344 
L 116.35126 -42.122344 
L 117.812219 -42.122344 
L 119.273179 -42.122344 
L 120.734138 -42.122344 
L 122.195097 -42.122344 
L 123.656056 -42.122344 
L 125.117015 -42.122344 
L 126.577975 -42.122344 
L 128.038934 -42.122344 
L 129.499893 -42.122344 
L 130.960852 -42.122344 
L 132.421811 -42.122344 
L 133.88277 -42.122344 
L 135.34373 -42.122344 
L 136.804689 -42.122344 
L 138.265648 -42.122344 
L 139.726607 -42.122344 
L 141.187566 -42.122344 
L 142.648526 -42.122344 
L 144.109485 -42.122344 
L 145.570444 -42.122344 
L 147.031403 -42.122344 
L 148.492362 -42.122344 
L 149.953322 -42.122344 
L 151.414281 -42.122344 
L 152.87524 -42.122344 
L 154.336199 -42.122344 
L 155.797158 -42.122344 
L 157.258118 -42.122344 
L 158.719077 -42.122344 
L 160.180036 -42.122344 
L 161.640995 -42.122344 
L 163.101954 -42.122344 
L 164.562913 -42.122344 
L 166.023873 -42.122344 
L 167.484832 -42.122344 
L 168.945791 -42.122344 
L 170.40675 -42.122344 
L 171.867709 -42.122344 
L 173.328669 -42.122344 
L 174.789628 -42.122344 
L 176.250587 -42.122344 
L 177.711546 -42.122344 
L 179.172505 -42.122344 
L 180.633465 -42.122344 
L 182.094424 -42.122344 
L 183.555383 -42.122344 
L 185.016342 -42.122344 
L 186.477301 -42.122344 
L 187.938261 -42.122344 
L 189.39922 -42.122344 
L 190.860179 -42.122344 
L 192.321138 -42.122344 
L 193.782097 -42.122344 
L 195.243056 -42.122344 
L 196.704016 -42.122344 
L 198.164975 -42.122344 
L 199.625934 -42.122344 
L 201.086893 -42.122344 
L 202.547852 -42.122344 
L 204.008812 -42.122344 
L 205.469771 -42.122344 
L 206.93073 -42.122344 
L 208.391689 -42.122344 
L 209.852648 -42.122344 
L 211.313608 -42.122344 
L 212.774567 -42.122344 
L 214.235526 -42.122344 
L 215.696485 -42.122344 
L 217.157444 -42.122344 
L 218.618403 -42.122344 
L 220.079363 -42.122344 
L 221.540322 -42.122344 
L 223.001281 -42.122344 
L 224.46224 -42.122344 
L 225.923199 -42.122344 
L 227.384159 -42.122344 
L 228.845118 -42.122344 
L 230.306077 -42.122344 
L 231.767036 -42.122344 
L 233.227995 -42.122344 
L 234.688955 -42.122344 
L 236.149914 -42.122344 
L 237.610873 -42.122344 
L 239.071832 -42.122344 
L 240.532791 -42.122344 
L 241.993751 -42.122344 
L 243.45471 -42.122344 
L 244.915669 -42.122344 
L 246.376628 -42.122344 
L 247.837587 -42.122344 
L 249.298546 -42.122344 
L 250.759506 -42.122344 
L 252.220465 -42.122344 
L 253.681424 -42.122344 
L 255.142383 -42.122344 
L 256.603342 -42.122344 
L 258.064302 -42.122344 
L 259.525261 -42.122344 
L 260.98622 -42.122344 
L 262.447179 -42.122344 
L 263.908138 -42.122344 
L 265.369098 -42.122344 
L 266.830057 -42.122344 
L 268.291016 -42.122344 
L 269.751975 -42.122344 
L 271.212934 -42.122344 
L 272.673894 -42.122344 
L 274.134853 -42.122344 
L 275.595812 -42.122344 
L 277.056771 -42.122344 
L 278.51773 -42.122344 
L 279.978689 -42.122344 
L 281.439649 -42.122344 
L 282.900608 -42.122344 
L 284.361567 -42.122344 
L 285.822526 -42.122344 
L 287.283485 -42.122344 
L 288.744445 -42.122344 
L 290.205404 -42.122344 
L 291.666363 -42.122344 
L 293.127322 -42.122344 
L 294.588281 -42.122344 
L 296.049241 -42.122344 
L 297.5102 -42.122344 
L 298.971159 -42.122344 
L 300.432118 -42.122344 
L 301.893077 -42.122344 
L 303.354036 -42.122344 
L 304.814996 -42.122344 
L 306.275955 -42.122344 
L 307.736914 -42.122344 
L 309.197873 -42.122344 
L 310.658832 -42.122344 
L 312.119792 -42.122344 
L 313.580751 -42.122344 
L 315.04171 -42.122344 
L 316.502669 -42.122344 
L 317.963628 -42.122344 
L 319.424588 -42.122344 
L 320.885547 -42.122344 
L 322.346506 -42.122344 
L 323.807465 -42.122344 
L 325.268424 -42.122344 
L 326.729384 -42.122344 
L 328.190343 -42.122344 
L 329.651302 -42.122344 
L 331.112261 -42.122344 
L 332.57322 -42.122344 
L 334.034179 -42.122344 
L 335.495139 -42.122344 
L 336.956098 -42.122344 
L 338.417057 -42.122344 
L 339.878016 -42.122344 
L 341.338975 -42.122344 
L 342.799935 -42.122344 
L 344.260894 -42.122344 
L 345.721853 -42.122344 
L 347.182812 -42.122344 
L 348.643771 -42.122344 
L 350.104731 -42.122344 
L 351.56569 -42.122344 
L 353.026649 -42.122344 
L 353.026649 -42.129718 
L 353.026649 -42.129718 
L 351.56569 -42.135982 
L 350.104731 -42.146658 
L 348.643771 -42.164148 
L 347.182812 -42.191702 
L 345.721853 -42.233463 
L 344.260894 -42.294387 
L 342.799935 -42.380009 
L 341.338975 -42.496045 
L 339.878016 -42.647881 
L 338.417057 -42.840039 
L 336.956098 -43.075744 
L 335.495139 -43.356715 
L 334.034179 -43.683256 
L 332.57322 -44.054666 
L 331.112261 -44.469851 
L 329.651302 -44.927985 
L 328.190343 -45.428987 
L 326.729384 -45.973643 
L 325.268424 -46.563244 
L 323.807465 -47.198795 
L 322.346506 -47.879987 
L 320.885547 -48.604267 
L 319.424588 -49.366383 
L 317.963628 -50.158758 
L 316.502669 -50.972839 
L 315.04171 -51.801313 
L 313.580751 -52.640798 
L 312.119792 -53.49439 
L 310.658832 -54.373403 
L 309.197873 -55.29778 
L 307.736914 -56.294922 
L 306.275955 -57.397109 
L 304.814996 -58.637993 
L 303.354036 -60.0489 
L 301.893077 -61.655694 
L 300.432118 -63.476818 
L 298.971159 -65.522813 
L 297.5102 -67.797268 
L 296.049241 -70.298738 
L 294.588281 -73.022936 
L 293.127322 -75.964382 
L 291.666363 -79.11681 
L 290.205404 -82.472004 
L 288.744445 -86.017242 
L 287.283485 -89.7321 
L 285.822526 -93.585837 
L 284.361567 -97.536728 
L 282.900608 -101.534418 
L 281.439649 -105.525685 
L 279.978689 -109.46296 
L 278.51773 -113.313951 
L 277.056771 -117.07003 
L 275.595812 -120.75099 
L 274.134853 -124.40444 
L 272.673894 -128.099348 
L 271.212934 -131.914765 
L 269.751975 -135.926046 
L 268.291016 -140.19164 
L 266.830057 -144.743357 
L 265.369098 -149.58215 
L 263.908138 -154.679929 
L 262.447179 -159.986355 
L 260.98622 -165.438303 
L 259.525261 -170.969273 
L 258.064302 -176.516396 
L 256.603342 -182.023946 
L 255.142383 -187.443686 
L 253.681424 -192.733624 
L 252.220465 -197.857153 
L 250.759506 -202.784051 
L 249.298546 -207.493533 
L 247.837587 -211.978136 
L 246.376628 -216.246225 
L 244.915669 -220.320888 
L 243.45471 -224.234 
L 241.993751 -228.015895 
L 240.532791 -231.68288 
L 239.071832 -235.225995 
L 237.610873 -238.604676 
L 236.149914 -241.748025 
L 234.688955 -244.564634 
L 233.227995 -246.959573 
L 231.767036 -248.855023 
L 230.306077 -250.209548 
L 228.845118 -251.030752 
L 227.384159 -251.377254 
L 225.923199 -251.348392 
L 224.46224 -251.063178 
L 223.001281 -250.632983 
L 221.540322 -250.134213 
L 220.079363 -249.587444 
L 218.618403 -248.947958 
L 217.157444 -248.110009 
L 215.696485 -246.924122 
L 214.235526 -245.224112 
L 212.774567 -242.858746 
L 211.313608 -239.722245 
L 209.852648 -235.777986 
L 208.391689 -231.070857 
L 206.93073 -225.725487 
L 205.469771 -219.930036 
L 204.008812 -213.908019 
L 202.547852 -207.883318 
L 201.086893 -202.045276 
L 199.625934 -196.52111 
L 198.164975 -191.361341 
L 196.704016 -186.540927 
L 195.243056 -181.975061 
L 193.782097 -177.545185 
L 192.321138 -173.128713 
L 190.860179 -168.625728 
L 189.39922 -163.97739 
L 187.938261 -159.173423 
L 186.477301 -154.248806 
L 185.016342 -149.272147 
L 183.555383 -144.329404 
L 182.094424 -139.506831 
L 180.633465 -134.876403 
L 179.172505 -130.485856 
L 177.711546 -126.354306 
L 176.250587 -122.473354 
L 174.789628 -118.812658 
L 173.328669 -115.328411 
L 171.867709 -111.972793 
L 170.40675 -108.702544 
L 168.945791 -105.485174 
L 167.484832 -102.302025 
L 166.023873 -99.148169 
L 164.562913 -96.029825 
L 163.101954 -92.960393 
L 161.640995 -89.956263 
L 160.180036 -87.033322 
L 158.719077 -84.204692 
L 157.258118 -81.479789 
L 155.797158 -78.864495 
L 154.336199 -76.362014 
L 152.87524 -73.973977 
L 151.414281 -71.70141 
L 149.953322 -69.545312 
L 148.492362 -67.50676 
L 147.031403 -65.58661 
L 145.570444 -63.784964 
L 144.109485 -62.100635 
L 142.648526 -60.530812 
L 141.187566 -59.07105 
L 139.726607 -57.715607 
L 138.265648 -56.458053 
L 136.804689 -55.292003 
L 135.34373 -54.211789 
L 133.88277 -53.212917 
L 132.421811 -52.292204 
L 130.960852 -51.447546 
L 129.499893 -50.677387 
L 128.038934 -49.979995 
L 126.577975 -49.352761 
L 125.117015 -48.7917 
L 123.656056 -48.291354 
L 122.195097 -47.845155 
L 120.734138 -47.446207 
L 119.273179 -47.088295 
L 117.812219 -46.766824 
L 116.35126 -46.479373 
L 114.890301 -46.225615 
L 113.429342 -46.006544 
L 111.968383 -45.82312 
L 110.507423 -45.674683 
L 109.046464 -45.557557 
L 107.585505 -45.464292 
L 106.124546 -45.383842 
L 104.663587 -45.302735 
L 103.202628 -45.207062 
L 101.741668 -45.084835 
L 100.280709 -44.928199 
L 98.81975 -44.734934 
L 97.358791 -44.508897 
L 95.897832 -44.259261 
L 94.436872 -43.998734 
L 92.975913 -43.741169 
L 91.514954 -43.499126 
L 90.053995 -43.28193 
L 88.593036 -43.094604 
L 87.132076 -42.937821 
L 85.671117 -42.808733 
L 84.210158 -42.702355 
L 82.749199 -42.613078 
L 81.28824 -42.535919 
L 79.82728 -42.467293 
L 78.366321 -42.405226 
L 76.905362 -42.349109 
L 75.444403 -42.299198 
L 73.983444 -42.256049 
L 72.522485 -42.220071 
L 71.061525 -42.191273 
L 69.600566 -42.169195 
L 68.139607 -42.153004 
L 66.678648 -42.14165 
L 65.217689 -42.134035 
L 63.756729 -42.129152 
L 62.29577 -42.126154 
z
" style="stroke: #fa8072"/>
    </defs>
    <g clip-path="url(#p75a6b6a0d0)">
     <use xlink:href="#mddeec1153b" x="0" y="288" style="fill: #fa8072; fill-opacity: 0.4; stroke: #fa8072"/>
    </g>
   </g>
   <g id="matplotlib.axis_1">
    <g id="xtick_1">
     <g id="line2d_1">
      <defs>
       <path id="ma36815e56d" d="M 0 0 
L 0 3.5 
" style="stroke: #000000; stroke-width: 0.8"/>
      </defs>
      <g>
       <use xlink:href="#ma36815e56d" x="64.951475" y="245.877656" style="stroke: #000000; stroke-width: 0.8"/>
      </g>
     </g>
     <g id="text_1">
      <!-- −0.2 -->
      <g transform="translate(52.810068 260.475312) scale(0.1 -0.1)">
       <defs>
        <path id="DejaVuSans-c9c" d="M 678 2272 
L 4684 2272 
L 4684 1741 
L 678 1741 
L 678 2272 
z
" transform="scale(0.015625)"/>
        <path id="DejaVuSans-13" d="M 2034 4250 
Q 1547 4250 1301 3770 
Q 1056 3291 1056 2328 
Q 1056 1369 1301 889 
Q 1547 409 2034 409 
Q 2525 409 2770 889 
Q 3016 1369 3016 2328 
Q 3016 3291 2770 3770 
Q 2525 4250 2034 4250 
z
M 2034 4750 
Q 2819 4750 3233 4129 
Q 3647 3509 3647 2328 
Q 3647 1150 3233 529 
Q 2819 -91 2034 -91 
Q 1250 -91 836 529 
Q 422 1150 422 2328 
Q 422 3509 836 4129 
Q 1250 4750 2034 4750 
z
" transform="scale(0.015625)"/>
        <path id="DejaVuSans-11" d="M 684 794 
L 1344 794 
L 1344 0 
L 684 0 
L 684 794 
z
" transform="scale(0.015625)"/>
        <path id="DejaVuSans-15" d="M 1228 531 
L 3431 531 
L 3431 0 
L 469 0 
L 469 531 
Q 828 903 1448 1529 
Q 2069 2156 2228 2338 
Q 2531 2678 2651 2914 
Q 2772 3150 2772 3378 
Q 2772 3750 2511 3984 
Q 2250 4219 1831 4219 
Q 1534 4219 1204 4116 
Q 875 4013 500 3803 
L 500 4441 
Q 881 4594 1212 4672 
Q 1544 4750 1819 4750 
Q 2544 4750 2975 4387 
Q 3406 4025 3406 3419 
Q 3406 3131 3298 2873 
Q 3191 2616 2906 2266 
Q 2828 2175 2409 1742 
Q 1991 1309 1228 531 
z
" transform="scale(0.015625)"/>
       </defs>
       <use xlink:href="#DejaVuSans-c9c"/>
       <use xlink:href="#DejaVuSans-13" transform="translate(83.796875 0)"/>
       <use xlink:href="#DejaVuSans-11" transform="translate(147.421875 0)"/>
       <use xlink:href="#DejaVuSans-15" transform="translate(179.203125 0)"/>
      </g>
     </g>
    </g>
    <g id="xtick_2">
     <g id="line2d_2">
      <g>
       <use xlink:href="#ma36815e56d" x="146.934187" y="245.877656" style="stroke: #000000; stroke-width: 0.8"/>
      </g>
     </g>
     <g id="text_2">
      <!-- 0.0 -->
      <g transform="translate(138.982625 260.475312) scale(0.1 -0.1)">
       <use xlink:href="#DejaVuSans-13"/>
       <use xlink:href="#DejaVuSans-11" transform="translate(63.625 0)"/>
       <use xlink:href="#DejaVuSans-13" transform="translate(95.40625 0)"/>
      </g>
     </g>
    </g>
    <g id="xtick_3">
     <g id="line2d_3">
      <g>
       <use xlink:href="#ma36815e56d" x="228.9169" y="245.877656" style="stroke: #000000; stroke-width: 0.8"/>
      </g>
     </g>
     <g id="text_3">
      <!-- 0.2 -->
      <g transform="translate(220.965337 260.475312) scale(0.1 -0.1)">
       <use xlink:href="#DejaVuSans-13"/>
       <use xlink:href="#DejaVuSans-11" transform="translate(63.625 0)"/>
       <use xlink:href="#DejaVuSans-15" transform="translate(95.40625 0)"/>
      </g>
     </g>
    </g>
    <g id="xtick_4">
     <g id="line2d_4">
      <g>
       <use xlink:href="#ma36815e56d" x="310.899612" y="245.877656" style="stroke: #000000; stroke-width: 0.8"/>
      </g>
     </g>
     <g id="text_4">
      <!-- 0.4 -->
      <g transform="translate(302.94805 260.475312) scale(0.1 -0.1)">
       <defs>
        <path id="DejaVuSans-17" d="M 2419 4116 
L 825 1625 
L 2419 1625 
L 2419 4116 
z
M 2253 4666 
L 3047 4666 
L 3047 1625 
L 3713 1625 
L 3713 1100 
L 3047 1100 
L 3047 0 
L 2419 0 
L 2419 1100 
L 313 1100 
L 313 1709 
L 2253 4666 
z
" transform="scale(0.015625)"/>
       </defs>
       <use xlink:href="#DejaVuSans-13"/>
       <use xlink:href="#DejaVuSans-11" transform="translate(63.625 0)"/>
       <use xlink:href="#DejaVuSans-17" transform="translate(95.40625 0)"/>
      </g>
     </g>
    </g>
    <g id="xtick_5">
     <g id="line2d_5">
      <g>
       <use xlink:href="#ma36815e56d" x="392.882325" y="245.877656" style="stroke: #000000; stroke-width: 0.8"/>
      </g>
     </g>
     <g id="text_5">
      <!-- 0.6 -->
      <g transform="translate(384.930762 260.475312) scale(0.1 -0.1)">
       <defs>
        <path id="DejaVuSans-19" d="M 2113 2584 
Q 1688 2584 1439 2293 
Q 1191 2003 1191 1497 
Q 1191 994 1439 701 
Q 1688 409 2113 409 
Q 2538 409 2786 701 
Q 3034 994 3034 1497 
Q 3034 2003 2786 2293 
Q 2538 2584 2113 2584 
z
M 3366 4563 
L 3366 3988 
Q 3128 4100 2886 4159 
Q 2644 4219 2406 4219 
Q 1781 4219 1451 3797 
Q 1122 3375 1075 2522 
Q 1259 2794 1537 2939 
Q 1816 3084 2150 3084 
Q 2853 3084 3261 2657 
Q 3669 2231 3669 1497 
Q 3669 778 3244 343 
Q 2819 -91 2113 -91 
Q 1303 -91 875 529 
Q 447 1150 447 2328 
Q 447 3434 972 4092 
Q 1497 4750 2381 4750 
Q 2619 4750 2861 4703 
Q 3103 4656 3366 4563 
z
" transform="scale(0.015625)"/>
       </defs>
       <use xlink:href="#DejaVuSans-13"/>
       <use xlink:href="#DejaVuSans-11" transform="translate(63.625 0)"/>
       <use xlink:href="#DejaVuSans-19" transform="translate(95.40625 0)"/>
      </g>
     </g>
    </g>
    <g id="xtick_6">
     <g id="line2d_6">
      <g>
       <use xlink:href="#ma36815e56d" x="474.865037" y="245.877656" style="stroke: #000000; stroke-width: 0.8"/>
      </g>
     </g>
     <g id="text_6">
      <!-- 0.8 -->
      <g transform="translate(466.913474 260.475312) scale(0.1 -0.1)">
       <defs>
        <path id="DejaVuSans-1b" d="M 2034 2216 
Q 1584 2216 1326 1975 
Q 1069 1734 1069 1313 
Q 1069 891 1326 650 
Q 1584 409 2034 409 
Q 2484 409 2743 651 
Q 3003 894 3003 1313 
Q 3003 1734 2745 1975 
Q 2488 2216 2034 2216 
z
M 1403 2484 
Q 997 2584 770 2862 
Q 544 3141 544 3541 
Q 544 4100 942 4425 
Q 1341 4750 2034 4750 
Q 2731 4750 3128 4425 
Q 3525 4100 3525 3541 
Q 3525 3141 3298 2862 
Q 3072 2584 2669 2484 
Q 3125 2378 3379 2068 
Q 3634 1759 3634 1313 
Q 3634 634 3220 271 
Q 2806 -91 2034 -91 
Q 1263 -91 848 271 
Q 434 634 434 1313 
Q 434 1759 690 2068 
Q 947 2378 1403 2484 
z
M 1172 3481 
Q 1172 3119 1398 2916 
Q 1625 2713 2034 2713 
Q 2441 2713 2670 2916 
Q 2900 3119 2900 3481 
Q 2900 3844 2670 4047 
Q 2441 4250 2034 4250 
Q 1625 4250 1398 4047 
Q 1172 3844 1172 3481 
z
" transform="scale(0.015625)"/>
       </defs>
       <use xlink:href="#DejaVuSans-13"/>
       <use xlink:href="#DejaVuSans-11" transform="translate(63.625 0)"/>
       <use xlink:href="#DejaVuSans-1b" transform="translate(95.40625 0)"/>
      </g>
     </g>
    </g>
    <g id="xtick_7">
     <g id="line2d_7">
      <g>
       <use xlink:href="#ma36815e56d" x="556.847749" y="245.877656" style="stroke: #000000; stroke-width: 0.8"/>
      </g>
     </g>
     <g id="text_7">
      <!-- 1.0 -->
      <g transform="translate(548.896187 260.475312) scale(0.1 -0.1)">
       <defs>
        <path id="DejaVuSans-14" d="M 794 531 
L 1825 531 
L 1825 4091 
L 703 3866 
L 703 4441 
L 1819 4666 
L 2450 4666 
L 2450 531 
L 3481 531 
L 3481 0 
L 794 0 
L 794 531 
z
" transform="scale(0.015625)"/>
       </defs>
       <use xlink:href="#DejaVuSans-14"/>
       <use xlink:href="#DejaVuSans-11" transform="translate(63.625 0)"/>
       <use xlink:href="#DejaVuSans-13" transform="translate(95.40625 0)"/>
      </g>
     </g>
    </g>
    <g id="text_8">
     <!-- Cosine Similarity -->
     <g transform="translate(257.211285 274.476094) scale(0.1 -0.1)">
      <defs>
       <path id="DejaVuSans-26" d="M 4122 4306 
L 4122 3641 
Q 3803 3938 3442 4084 
Q 3081 4231 2675 4231 
Q 1875 4231 1450 3742 
Q 1025 3253 1025 2328 
Q 1025 1406 1450 917 
Q 1875 428 2675 428 
Q 3081 428 3442 575 
Q 3803 722 4122 1019 
L 4122 359 
Q 3791 134 3420 21 
Q 3050 -91 2638 -91 
Q 1578 -91 968 557 
Q 359 1206 359 2328 
Q 359 3453 968 4101 
Q 1578 4750 2638 4750 
Q 3056 4750 3426 4639 
Q 3797 4528 4122 4306 
z
" transform="scale(0.015625)"/>
       <path id="DejaVuSans-52" d="M 1959 3097 
Q 1497 3097 1228 2736 
Q 959 2375 959 1747 
Q 959 1119 1226 758 
Q 1494 397 1959 397 
Q 2419 397 2687 759 
Q 2956 1122 2956 1747 
Q 2956 2369 2687 2733 
Q 2419 3097 1959 3097 
z
M 1959 3584 
Q 2709 3584 3137 3096 
Q 3566 2609 3566 1747 
Q 3566 888 3137 398 
Q 2709 -91 1959 -91 
Q 1206 -91 779 398 
Q 353 888 353 1747 
Q 353 2609 779 3096 
Q 1206 3584 1959 3584 
z
" transform="scale(0.015625)"/>
       <path id="DejaVuSans-56" d="M 2834 3397 
L 2834 2853 
Q 2591 2978 2328 3040 
Q 2066 3103 1784 3103 
Q 1356 3103 1142 2972 
Q 928 2841 928 2578 
Q 928 2378 1081 2264 
Q 1234 2150 1697 2047 
L 1894 2003 
Q 2506 1872 2764 1633 
Q 3022 1394 3022 966 
Q 3022 478 2636 193 
Q 2250 -91 1575 -91 
Q 1294 -91 989 -36 
Q 684 19 347 128 
L 347 722 
Q 666 556 975 473 
Q 1284 391 1588 391 
Q 1994 391 2212 530 
Q 2431 669 2431 922 
Q 2431 1156 2273 1281 
Q 2116 1406 1581 1522 
L 1381 1569 
Q 847 1681 609 1914 
Q 372 2147 372 2553 
Q 372 3047 722 3315 
Q 1072 3584 1716 3584 
Q 2034 3584 2315 3537 
Q 2597 3491 2834 3397 
z
" transform="scale(0.015625)"/>
       <path id="DejaVuSans-4c" d="M 603 3500 
L 1178 3500 
L 1178 0 
L 603 0 
L 603 3500 
z
M 603 4863 
L 1178 4863 
L 1178 4134 
L 603 4134 
L 603 4863 
z
" transform="scale(0.015625)"/>
       <path id="DejaVuSans-51" d="M 3513 2113 
L 3513 0 
L 2938 0 
L 2938 2094 
Q 2938 2591 2744 2837 
Q 2550 3084 2163 3084 
Q 1697 3084 1428 2787 
Q 1159 2491 1159 1978 
L 1159 0 
L 581 0 
L 581 3500 
L 1159 3500 
L 1159 2956 
Q 1366 3272 1645 3428 
Q 1925 3584 2291 3584 
Q 2894 3584 3203 3211 
Q 3513 2838 3513 2113 
z
" transform="scale(0.015625)"/>
       <path id="DejaVuSans-48" d="M 3597 1894 
L 3597 1613 
L 953 1613 
Q 991 1019 1311 708 
Q 1631 397 2203 397 
Q 2534 397 2845 478 
Q 3156 559 3463 722 
L 3463 178 
Q 3153 47 2828 -22 
Q 2503 -91 2169 -91 
Q 1331 -91 842 396 
Q 353 884 353 1716 
Q 353 2575 817 3079 
Q 1281 3584 2069 3584 
Q 2775 3584 3186 3129 
Q 3597 2675 3597 1894 
z
M 3022 2063 
Q 3016 2534 2758 2815 
Q 2500 3097 2075 3097 
Q 1594 3097 1305 2825 
Q 1016 2553 972 2059 
L 3022 2063 
z
" transform="scale(0.015625)"/>
       <path id="DejaVuSans-3" transform="scale(0.015625)"/>
       <path id="DejaVuSans-36" d="M 3425 4513 
L 3425 3897 
Q 3066 4069 2747 4153 
Q 2428 4238 2131 4238 
Q 1616 4238 1336 4038 
Q 1056 3838 1056 3469 
Q 1056 3159 1242 3001 
Q 1428 2844 1947 2747 
L 2328 2669 
Q 3034 2534 3370 2195 
Q 3706 1856 3706 1288 
Q 3706 609 3251 259 
Q 2797 -91 1919 -91 
Q 1588 -91 1214 -16 
Q 841 59 441 206 
L 441 856 
Q 825 641 1194 531 
Q 1563 422 1919 422 
Q 2459 422 2753 634 
Q 3047 847 3047 1241 
Q 3047 1584 2836 1778 
Q 2625 1972 2144 2069 
L 1759 2144 
Q 1053 2284 737 2584 
Q 422 2884 422 3419 
Q 422 4038 858 4394 
Q 1294 4750 2059 4750 
Q 2388 4750 2728 4690 
Q 3069 4631 3425 4513 
z
" transform="scale(0.015625)"/>
       <path id="DejaVuSans-50" d="M 3328 2828 
Q 3544 3216 3844 3400 
Q 4144 3584 4550 3584 
Q 5097 3584 5394 3201 
Q 5691 2819 5691 2113 
L 5691 0 
L 5113 0 
L 5113 2094 
Q 5113 2597 4934 2840 
Q 4756 3084 4391 3084 
Q 3944 3084 3684 2787 
Q 3425 2491 3425 1978 
L 3425 0 
L 2847 0 
L 2847 2094 
Q 2847 2600 2669 2842 
Q 2491 3084 2119 3084 
Q 1678 3084 1418 2786 
Q 1159 2488 1159 1978 
L 1159 0 
L 581 0 
L 581 3500 
L 1159 3500 
L 1159 2956 
Q 1356 3278 1631 3431 
Q 1906 3584 2284 3584 
Q 2666 3584 2933 3390 
Q 3200 3197 3328 2828 
z
" transform="scale(0.015625)"/>
       <path id="DejaVuSans-4f" d="M 603 4863 
L 1178 4863 
L 1178 0 
L 603 0 
L 603 4863 
z
" transform="scale(0.015625)"/>
       <path id="DejaVuSans-44" d="M 2194 1759 
Q 1497 1759 1228 1600 
Q 959 1441 959 1056 
Q 959 750 1161 570 
Q 1363 391 1709 391 
Q 2188 391 2477 730 
Q 2766 1069 2766 1631 
L 2766 1759 
L 2194 1759 
z
M 3341 1997 
L 3341 0 
L 2766 0 
L 2766 531 
Q 2569 213 2275 61 
Q 1981 -91 1556 -91 
Q 1019 -91 701 211 
Q 384 513 384 1019 
Q 384 1609 779 1909 
Q 1175 2209 1959 2209 
L 2766 2209 
L 2766 2266 
Q 2766 2663 2505 2880 
Q 2244 3097 1772 3097 
Q 1472 3097 1187 3025 
Q 903 2953 641 2809 
L 641 3341 
Q 956 3463 1253 3523 
Q 1550 3584 1831 3584 
Q 2591 3584 2966 3190 
Q 3341 2797 3341 1997 
z
" transform="scale(0.015625)"/>
       <path id="DejaVuSans-55" d="M 2631 2963 
Q 2534 3019 2420 3045 
Q 2306 3072 2169 3072 
Q 1681 3072 1420 2755 
Q 1159 2438 1159 1844 
L 1159 0 
L 581 0 
L 581 3500 
L 1159 3500 
L 1159 2956 
Q 1341 3275 1631 3429 
Q 1922 3584 2338 3584 
Q 2397 3584 2469 3576 
Q 2541 3569 2628 3553 
L 2631 2963 
z
" transform="scale(0.015625)"/>
       <path id="DejaVuSans-57" d="M 1172 4494 
L 1172 3500 
L 2356 3500 
L 2356 3053 
L 1172 3053 
L 1172 1153 
Q 1172 725 1289 603 
Q 1406 481 1766 481 
L 2356 481 
L 2356 0 
L 1766 0 
Q 1100 0 847 248 
Q 594 497 594 1153 
L 594 3053 
L 172 3053 
L 172 3500 
L 594 3500 
L 594 4494 
L 1172 4494 
z
" transform="scale(0.015625)"/>
       <path id="DejaVuSans-5c" d="M 2059 -325 
Q 1816 -950 1584 -1140 
Q 1353 -1331 966 -1331 
L 506 -1331 
L 506 -850 
L 844 -850 
Q 1081 -850 1212 -737 
Q 1344 -625 1503 -206 
L 1606 56 
L 191 3500 
L 800 3500 
L 1894 763 
L 2988 3500 
L 3597 3500 
L 2059 -325 
z
" transform="scale(0.015625)"/>
      </defs>
      <use xlink:href="#DejaVuSans-26"/>
      <use xlink:href="#DejaVuSans-52" transform="translate(69.828125 0)"/>
      <use xlink:href="#DejaVuSans-56" transform="translate(131.015625 0)"/>
      <use xlink:href="#DejaVuSans-4c" transform="translate(183.109375 0)"/>
      <use xlink:href="#DejaVuSans-51" transform="translate(210.890625 0)"/>
      <use xlink:href="#DejaVuSans-48" transform="translate(274.265625 0)"/>
      <use xlink:href="#DejaVuSans-3" transform="translate(335.796875 0)"/>
      <use xlink:href="#DejaVuSans-36" transform="translate(367.578125 0)"/>
      <use xlink:href="#DejaVuSans-4c" transform="translate(431.0625 0)"/>
      <use xlink:href="#DejaVuSans-50" transform="translate(458.84375 0)"/>
      <use xlink:href="#DejaVuSans-4c" transform="translate(556.25 0)"/>
      <use xlink:href="#DejaVuSans-4f" transform="translate(584.03125 0)"/>
      <use xlink:href="#DejaVuSans-44" transform="translate(611.8125 0)"/>
      <use xlink:href="#DejaVuSans-55" transform="translate(673.09375 0)"/>
      <use xlink:href="#DejaVuSans-4c" transform="translate(714.203125 0)"/>
      <use xlink:href="#DejaVuSans-57" transform="translate(741.984375 0)"/>
      <use xlink:href="#DejaVuSans-5c" transform="translate(781.1875 0)"/>
     </g>
    </g>
   </g>
   <g id="matplotlib.axis_2">
    <g id="ytick_1">
     <g id="line2d_8">
      <defs>
       <path id="m155fb664f7" d="M 0 0 
L -3.5 0 
" style="stroke: #000000; stroke-width: 0.8"/>
      </defs>
      <g>
       <use xlink:href="#m155fb664f7" x="38.602344" y="245.877656" style="stroke: #000000; stroke-width: 0.8"/>
      </g>
     </g>
     <g id="text_9">
      <!-- 0 -->
      <g transform="translate(25.239844 249.676484) scale(0.1 -0.1)">
       <use xlink:href="#DejaVuSans-13"/>
      </g>
     </g>
    </g>
    <g id="ytick_2">
     <g id="line2d_9">
      <g>
       <use xlink:href="#m155fb664f7" x="38.602344" y="199.950726" style="stroke: #000000; stroke-width: 0.8"/>
      </g>
     </g>
     <g id="text_10">
      <!-- 1 -->
      <g transform="translate(25.239844 203.749555) scale(0.1 -0.1)">
       <use xlink:href="#DejaVuSans-14"/>
      </g>
     </g>
    </g>
    <g id="ytick_3">
     <g id="line2d_10">
      <g>
       <use xlink:href="#m155fb664f7" x="38.602344" y="154.023797" style="stroke: #000000; stroke-width: 0.8"/>
      </g>
     </g>
     <g id="text_11">
      <!-- 2 -->
      <g transform="translate(25.239844 157.822625) scale(0.1 -0.1)">
       <use xlink:href="#DejaVuSans-15"/>
      </g>
     </g>
    </g>
    <g id="ytick_4">
     <g id="line2d_11">
      <g>
       <use xlink:href="#m155fb664f7" x="38.602344" y="108.096867" style="stroke: #000000; stroke-width: 0.8"/>
      </g>
     </g>
     <g id="text_12">
      <!-- 3 -->
      <g transform="translate(25.239844 111.895695) scale(0.1 -0.1)">
       <defs>
        <path id="DejaVuSans-16" d="M 2597 2516 
Q 3050 2419 3304 2112 
Q 3559 1806 3559 1356 
Q 3559 666 3084 287 
Q 2609 -91 1734 -91 
Q 1441 -91 1130 -33 
Q 819 25 488 141 
L 488 750 
Q 750 597 1062 519 
Q 1375 441 1716 441 
Q 2309 441 2620 675 
Q 2931 909 2931 1356 
Q 2931 1769 2642 2001 
Q 2353 2234 1838 2234 
L 1294 2234 
L 1294 2753 
L 1863 2753 
Q 2328 2753 2575 2939 
Q 2822 3125 2822 3475 
Q 2822 3834 2567 4026 
Q 2313 4219 1838 4219 
Q 1578 4219 1281 4162 
Q 984 4106 628 3988 
L 628 4550 
Q 988 4650 1302 4700 
Q 1616 4750 1894 4750 
Q 2613 4750 3031 4423 
Q 3450 4097 3450 3541 
Q 3450 3153 3228 2886 
Q 3006 2619 2597 2516 
z
" transform="scale(0.015625)"/>
       </defs>
       <use xlink:href="#DejaVuSans-16"/>
      </g>
     </g>
    </g>
    <g id="ytick_5">
     <g id="line2d_12">
      <g>
       <use xlink:href="#m155fb664f7" x="38.602344" y="62.169937" style="stroke: #000000; stroke-width: 0.8"/>
      </g>
     </g>
     <g id="text_13">
      <!-- 4 -->
      <g transform="translate(25.239844 65.968765) scale(0.1 -0.1)">
       <use xlink:href="#DejaVuSans-17"/>
      </g>
     </g>
    </g>
    <g id="text_14">
     <!-- Density -->
     <g transform="translate(18.8375 155.027422) rotate(-90) scale(0.1 -0.1)">
      <defs>
       <path id="DejaVuSans-27" d="M 1259 4147 
L 1259 519 
L 2022 519 
Q 2988 519 3436 956 
Q 3884 1394 3884 2338 
Q 3884 3275 3436 3711 
Q 2988 4147 2022 4147 
L 1259 4147 
z
M 628 4666 
L 1925 4666 
Q 3281 4666 3915 4102 
Q 4550 3538 4550 2338 
Q 4550 1131 3912 565 
Q 3275 0 1925 0 
L 628 0 
L 628 4666 
z
" transform="scale(0.015625)"/>
      </defs>
      <use xlink:href="#DejaVuSans-27"/>
      <use xlink:href="#DejaVuSans-48" transform="translate(77 0)"/>
      <use xlink:href="#DejaVuSans-51" transform="translate(138.53125 0)"/>
      <use xlink:href="#DejaVuSans-56" transform="translate(201.90625 0)"/>
      <use xlink:href="#DejaVuSans-4c" transform="translate(254 0)"/>
      <use xlink:href="#DejaVuSans-57" transform="translate(281.78125 0)"/>
      <use xlink:href="#DejaVuSans-5c" transform="translate(320.984375 0)"/>
     </g>
    </g>
   </g>
   <g id="line2d_13">
    <path d="M 286.015846 245.877656 
L 286.015846 26.16 
" clip-path="url(#p75a6b6a0d0)" style="fill: none; stroke-dasharray: 3.7,1.6; stroke-dashoffset: 0; stroke: #000000"/>
   </g>
   <g id="patch_3">
    <path d="M 38.602344 245.877656 
L 38.602344 26.16 
" style="fill: none; stroke: #000000; stroke-width: 0.8; stroke-linejoin: miter; stroke-linecap: square"/>
   </g>
   <g id="patch_4">
    <path d="M 559.857726 245.877656 
L 559.857726 26.16 
" style="fill: none; stroke: #000000; stroke-width: 0.8; stroke-linejoin: miter; stroke-linecap: square"/>
   </g>
   <g id="patch_5">
    <path d="M 38.602344 245.877656 
L 559.857726 245.877656 
" style="fill: none; stroke: #000000; stroke-width: 0.8; stroke-linejoin: miter; stroke-linecap: square"/>
   </g>
   <g id="patch_6">
    <path d="M 38.602344 26.16 
L 559.857726 26.16 
" style="fill: none; stroke: #000000; stroke-width: 0.8; stroke-linejoin: miter; stroke-linecap: square"/>
   </g>
   <g id="text_15">
    <!-- Caucasian — Brightness (β=0.95) -->
    <g transform="translate(197.735347 20.16) scale(0.12 -0.12)">
     <defs>
      <path id="DejaVuSans-58" d="M 544 1381 
L 544 3500 
L 1119 3500 
L 1119 1403 
Q 1119 906 1312 657 
Q 1506 409 1894 409 
Q 2359 409 2629 706 
Q 2900 1003 2900 1516 
L 2900 3500 
L 3475 3500 
L 3475 0 
L 2900 0 
L 2900 538 
Q 2691 219 2414 64 
Q 2138 -91 1772 -91 
Q 1169 -91 856 284 
Q 544 659 544 1381 
z
M 1991 3584 
L 1991 3584 
z
" transform="scale(0.015625)"/>
      <path id="DejaVuSans-46" d="M 3122 3366 
L 3122 2828 
Q 2878 2963 2633 3030 
Q 2388 3097 2138 3097 
Q 1578 3097 1268 2742 
Q 959 2388 959 1747 
Q 959 1106 1268 751 
Q 1578 397 2138 397 
Q 2388 397 2633 464 
Q 2878 531 3122 666 
L 3122 134 
Q 2881 22 2623 -34 
Q 2366 -91 2075 -91 
Q 1284 -91 818 406 
Q 353 903 353 1747 
Q 353 2603 823 3093 
Q 1294 3584 2113 3584 
Q 2378 3584 2631 3529 
Q 2884 3475 3122 3366 
z
" transform="scale(0.015625)"/>
      <path id="DejaVuSans-af6" d="M 313 1978 
L 6088 1978 
L 6088 1528 
L 313 1528 
L 313 1978 
z
" transform="scale(0.015625)"/>
      <path id="DejaVuSans-25" d="M 1259 2228 
L 1259 519 
L 2272 519 
Q 2781 519 3026 730 
Q 3272 941 3272 1375 
Q 3272 1813 3026 2020 
Q 2781 2228 2272 2228 
L 1259 2228 
z
M 1259 4147 
L 1259 2741 
L 2194 2741 
Q 2656 2741 2882 2914 
Q 3109 3088 3109 3444 
Q 3109 3797 2882 3972 
Q 2656 4147 2194 4147 
L 1259 4147 
z
M 628 4666 
L 2241 4666 
Q 2963 4666 3353 4366 
Q 3744 4066 3744 3513 
Q 3744 3084 3544 2831 
Q 3344 2578 2956 2516 
Q 3422 2416 3680 2098 
Q 3938 1781 3938 1306 
Q 3938 681 3513 340 
Q 3088 0 2303 0 
L 628 0 
L 628 4666 
z
" transform="scale(0.015625)"/>
      <path id="DejaVuSans-4a" d="M 2906 1791 
Q 2906 2416 2648 2759 
Q 2391 3103 1925 3103 
Q 1463 3103 1205 2759 
Q 947 2416 947 1791 
Q 947 1169 1205 825 
Q 1463 481 1925 481 
Q 2391 481 2648 825 
Q 2906 1169 2906 1791 
z
M 3481 434 
Q 3481 -459 3084 -895 
Q 2688 -1331 1869 -1331 
Q 1566 -1331 1297 -1286 
Q 1028 -1241 775 -1147 
L 775 -588 
Q 1028 -725 1275 -790 
Q 1522 -856 1778 -856 
Q 2344 -856 2625 -561 
Q 2906 -266 2906 331 
L 2906 616 
Q 2728 306 2450 153 
Q 2172 0 1784 0 
Q 1141 0 747 490 
Q 353 981 353 1791 
Q 353 2603 747 3093 
Q 1141 3584 1784 3584 
Q 2172 3584 2450 3431 
Q 2728 3278 2906 2969 
L 2906 3500 
L 3481 3500 
L 3481 434 
z
" transform="scale(0.015625)"/>
      <path id="DejaVuSans-4b" d="M 3513 2113 
L 3513 0 
L 2938 0 
L 2938 2094 
Q 2938 2591 2744 2837 
Q 2550 3084 2163 3084 
Q 1697 3084 1428 2787 
Q 1159 2491 1159 1978 
L 1159 0 
L 581 0 
L 581 4863 
L 1159 4863 
L 1159 2956 
Q 1366 3272 1645 3428 
Q 1925 3584 2291 3584 
Q 2894 3584 3203 3211 
Q 3513 2838 3513 2113 
z
" transform="scale(0.015625)"/>
      <path id="DejaVuSans-b" d="M 1984 4856 
Q 1566 4138 1362 3434 
Q 1159 2731 1159 2009 
Q 1159 1288 1364 580 
Q 1569 -128 1984 -844 
L 1484 -844 
Q 1016 -109 783 600 
Q 550 1309 550 2009 
Q 550 2706 781 3412 
Q 1013 4119 1484 4856 
L 1984 4856 
z
" transform="scale(0.015625)"/>
      <path id="DejaVuSans-346" d="M 1178 216 
L 1178 -1331 
L 600 -1331 
L 600 3478 
Q 600 4903 1931 4903 
Q 3288 4903 3288 3700 
Q 3288 2844 2750 2531 
Q 3625 2250 3625 1416 
Q 3625 -66 2119 -66 
Q 1456 -66 1178 216 
z
M 1178 966 
Q 1525 425 2141 425 
Q 3041 425 3041 1406 
Q 3041 2288 1591 2219 
L 1591 2750 
Q 2725 2750 2725 3750 
Q 2725 4434 1994 4434 
Q 1178 4434 1178 3459 
L 1178 966 
z
" transform="scale(0.015625)"/>
      <path id="DejaVuSans-20" d="M 678 2906 
L 4684 2906 
L 4684 2381 
L 678 2381 
L 678 2906 
z
M 678 1631 
L 4684 1631 
L 4684 1100 
L 678 1100 
L 678 1631 
z
" transform="scale(0.015625)"/>
      <path id="DejaVuSans-1c" d="M 703 97 
L 703 672 
Q 941 559 1184 500 
Q 1428 441 1663 441 
Q 2288 441 2617 861 
Q 2947 1281 2994 2138 
Q 2813 1869 2534 1725 
Q 2256 1581 1919 1581 
Q 1219 1581 811 2004 
Q 403 2428 403 3163 
Q 403 3881 828 4315 
Q 1253 4750 1959 4750 
Q 2769 4750 3195 4129 
Q 3622 3509 3622 2328 
Q 3622 1225 3098 567 
Q 2575 -91 1691 -91 
Q 1453 -91 1209 -44 
Q 966 3 703 97 
z
M 1959 2075 
Q 2384 2075 2632 2365 
Q 2881 2656 2881 3163 
Q 2881 3666 2632 3958 
Q 2384 4250 1959 4250 
Q 1534 4250 1286 3958 
Q 1038 3666 1038 3163 
Q 1038 2656 1286 2365 
Q 1534 2075 1959 2075 
z
" transform="scale(0.015625)"/>
      <path id="DejaVuSans-18" d="M 691 4666 
L 3169 4666 
L 3169 4134 
L 1269 4134 
L 1269 2991 
Q 1406 3038 1543 3061 
Q 1681 3084 1819 3084 
Q 2600 3084 3056 2656 
Q 3513 2228 3513 1497 
Q 3513 744 3044 326 
Q 2575 -91 1722 -91 
Q 1428 -91 1123 -41 
Q 819 9 494 109 
L 494 744 
Q 775 591 1075 516 
Q 1375 441 1709 441 
Q 2250 441 2565 725 
Q 2881 1009 2881 1497 
Q 2881 1984 2565 2268 
Q 2250 2553 1709 2553 
Q 1456 2553 1204 2497 
Q 953 2441 691 2322 
L 691 4666 
z
" transform="scale(0.015625)"/>
      <path id="DejaVuSans-c" d="M 513 4856 
L 1013 4856 
Q 1481 4119 1714 3412 
Q 1947 2706 1947 2009 
Q 1947 1309 1714 600 
Q 1481 -109 1013 -844 
L 513 -844 
Q 928 -128 1133 580 
Q 1338 1288 1338 2009 
Q 1338 2731 1133 3434 
Q 928 4138 513 4856 
z
" transform="scale(0.015625)"/>
     </defs>
     <use xlink:href="#DejaVuSans-26"/>
     <use xlink:href="#DejaVuSans-44" transform="translate(69.828125 0)"/>
     <use xlink:href="#DejaVuSans-58" transform="translate(131.109375 0)"/>
     <use xlink:href="#DejaVuSans-46" transform="translate(194.484375 0)"/>
     <use xlink:href="#DejaVuSans-44" transform="translate(249.46875 0)"/>
     <use xlink:href="#DejaVuSans-56" transform="translate(310.75 0)"/>
     <use xlink:href="#DejaVuSans-4c" transform="translate(362.84375 0)"/>
     <use xlink:href="#DejaVuSans-44" transform="translate(390.625 0)"/>
     <use xlink:href="#DejaVuSans-51" transform="translate(451.90625 0)"/>
     <use xlink:href="#DejaVuSans-3" transform="translate(515.28125 0)"/>
     <use xlink:href="#DejaVuSans-af6" transform="translate(547.0625 0)"/>
     <use xlink:href="#DejaVuSans-3" transform="translate(647.0625 0)"/>
     <use xlink:href="#DejaVuSans-25" transform="translate(678.84375 0)"/>
     <use xlink:href="#DejaVuSans-55" transform="translate(747.453125 0)"/>
     <use xlink:href="#DejaVuSans-4c" transform="translate(788.5625 0)"/>
     <use xlink:href="#DejaVuSans-4a" transform="translate(816.34375 0)"/>
     <use xlink:href="#DejaVuSans-4b" transform="translate(879.828125 0)"/>
     <use xlink:href="#DejaVuSans-57" transform="translate(943.203125 0)"/>
     <use xlink:href="#DejaVuSans-51" transform="translate(982.40625 0)"/>
     <use xlink:href="#DejaVuSans-48" transform="translate(1045.78125 0)"/>
     <use xlink:href="#DejaVuSans-56" transform="translate(1107.3125 0)"/>
     <use xlink:href="#DejaVuSans-56" transform="translate(1159.40625 0)"/>
     <use xlink:href="#DejaVuSans-3" transform="translate(1211.5 0)"/>
     <use xlink:href="#DejaVuSans-b" transform="translate(1243.28125 0)"/>
     <use xlink:href="#DejaVuSans-346" transform="translate(1282.296875 0)"/>
     <use xlink:href="#DejaVuSans-20" transform="translate(1346.109375 0)"/>
     <use xlink:href="#DejaVuSans-13" transform="translate(1429.90625 0)"/>
     <use xlink:href="#DejaVuSans-11" transform="translate(1493.53125 0)"/>
     <use xlink:href="#DejaVuSans-1c" transform="translate(1525.3125 0)"/>
     <use xlink:href="#DejaVuSans-18" transform="translate(1588.9375 0)"/>
     <use xlink:href="#DejaVuSans-c" transform="translate(1652.5625 0)"/>
    </g>
   </g>
   <g id="legend_1">
    <g id="patch_7">
     <path d="M 446.717101 79.162344 
L 552.857726 79.162344 
Q 554.857726 79.162344 554.857726 77.162344 
L 554.857726 33.16 
Q 554.857726 31.16 552.857726 31.16 
L 446.717101 31.16 
Q 444.717101 31.16 444.717101 33.16 
L 444.717101 77.162344 
Q 444.717101 79.162344 446.717101 79.162344 
z
" style="fill: #ffffff; opacity: 0.8; stroke: #cccccc; stroke-linejoin: miter"/>
    </g>
    <g id="patch_8">
     <path d="M 448.717101 42.758437 
L 468.717101 42.758437 
L 468.717101 35.758437 
L 448.717101 35.758437 
z
" style="fill: #4682b4; fill-opacity: 0.4; stroke: #4682b4; stroke-linejoin: miter"/>
    </g>
    <g id="text_16">
     <!-- Genuine -->
     <g transform="translate(476.717101 42.758437) scale(0.1 -0.1)">
      <defs>
       <path id="DejaVuSans-2a" d="M 3809 666 
L 3809 1919 
L 2778 1919 
L 2778 2438 
L 4434 2438 
L 4434 434 
Q 4069 175 3628 42 
Q 3188 -91 2688 -91 
Q 1594 -91 976 548 
Q 359 1188 359 2328 
Q 359 3472 976 4111 
Q 1594 4750 2688 4750 
Q 3144 4750 3555 4637 
Q 3966 4525 4313 4306 
L 4313 3634 
Q 3963 3931 3569 4081 
Q 3175 4231 2741 4231 
Q 1884 4231 1454 3753 
Q 1025 3275 1025 2328 
Q 1025 1384 1454 906 
Q 1884 428 2741 428 
Q 3075 428 3337 486 
Q 3600 544 3809 666 
z
" transform="scale(0.015625)"/>
      </defs>
      <use xlink:href="#DejaVuSans-2a"/>
      <use xlink:href="#DejaVuSans-48" transform="translate(77.484375 0)"/>
      <use xlink:href="#DejaVuSans-51" transform="translate(139.015625 0)"/>
      <use xlink:href="#DejaVuSans-58" transform="translate(202.390625 0)"/>
      <use xlink:href="#DejaVuSans-4c" transform="translate(265.765625 0)"/>
      <use xlink:href="#DejaVuSans-51" transform="translate(293.546875 0)"/>
      <use xlink:href="#DejaVuSans-48" transform="translate(356.921875 0)"/>
     </g>
    </g>
    <g id="patch_9">
     <path d="M 448.717101 57.759219 
L 468.717101 57.759219 
L 468.717101 50.759219 
L 448.717101 50.759219 
z
" style="fill: #fa8072; fill-opacity: 0.4; stroke: #fa8072; stroke-linejoin: miter"/>
    </g>
    <g id="text_17">
     <!-- Impostor -->
     <g transform="translate(476.717101 57.759219) scale(0.1 -0.1)">
      <defs>
       <path id="DejaVuSans-2c" d="M 628 4666 
L 1259 4666 
L 1259 0 
L 628 0 
L 628 4666 
z
" transform="scale(0.015625)"/>
       <path id="DejaVuSans-53" d="M 1159 525 
L 1159 -1331 
L 581 -1331 
L 581 3500 
L 1159 3500 
L 1159 2969 
Q 1341 3281 1617 3432 
Q 1894 3584 2278 3584 
Q 2916 3584 3314 3078 
Q 3713 2572 3713 1747 
Q 3713 922 3314 415 
Q 2916 -91 2278 -91 
Q 1894 -91 1617 61 
Q 1341 213 1159 525 
z
M 3116 1747 
Q 3116 2381 2855 2742 
Q 2594 3103 2138 3103 
Q 1681 3103 1420 2742 
Q 1159 2381 1159 1747 
Q 1159 1113 1420 752 
Q 1681 391 2138 391 
Q 2594 391 2855 752 
Q 3116 1113 3116 1747 
z
" transform="scale(0.015625)"/>
      </defs>
      <use xlink:href="#DejaVuSans-2c"/>
      <use xlink:href="#DejaVuSans-50" transform="translate(29.5 0)"/>
      <use xlink:href="#DejaVuSans-53" transform="translate(126.90625 0)"/>
      <use xlink:href="#DejaVuSans-52" transform="translate(190.390625 0)"/>
      <use xlink:href="#DejaVuSans-56" transform="translate(251.578125 0)"/>
      <use xlink:href="#DejaVuSans-57" transform="translate(303.671875 0)"/>
      <use xlink:href="#DejaVuSans-52" transform="translate(342.875 0)"/>
      <use xlink:href="#DejaVuSans-55" transform="translate(404.0625 0)"/>
     </g>
    </g>
    <g id="line2d_14">
     <path d="M 448.717101 69.26 
L 458.717101 69.26 
L 468.717101 69.26 
" style="fill: none; stroke-dasharray: 3.7,1.6; stroke-dashoffset: 0; stroke: #000000"/>
    </g>
    <g id="text_18">
     <!-- EER thr=0.339 -->
     <g transform="translate(476.717101 72.76) scale(0.1 -0.1)">
      <defs>
       <path id="DejaVuSans-28" d="M 628 4666 
L 3578 4666 
L 3578 4134 
L 1259 4134 
L 1259 2753 
L 3481 2753 
L 3481 2222 
L 1259 2222 
L 1259 531 
L 3634 531 
L 3634 0 
L 628 0 
L 628 4666 
z
" transform="scale(0.015625)"/>
       <path id="DejaVuSans-35" d="M 2841 2188 
Q 3044 2119 3236 1894 
Q 3428 1669 3622 1275 
L 4263 0 
L 3584 0 
L 2988 1197 
Q 2756 1666 2539 1819 
Q 2322 1972 1947 1972 
L 1259 1972 
L 1259 0 
L 628 0 
L 628 4666 
L 2053 4666 
Q 2853 4666 3247 4331 
Q 3641 3997 3641 3322 
Q 3641 2881 3436 2590 
Q 3231 2300 2841 2188 
z
M 1259 4147 
L 1259 2491 
L 2053 2491 
Q 2509 2491 2742 2702 
Q 2975 2913 2975 3322 
Q 2975 3731 2742 3939 
Q 2509 4147 2053 4147 
L 1259 4147 
z
" transform="scale(0.015625)"/>
      </defs>
      <use xlink:href="#DejaVuSans-28"/>
      <use xlink:href="#DejaVuSans-28" transform="translate(63.1875 0)"/>
      <use xlink:href="#DejaVuSans-35" transform="translate(126.375 0)"/>
      <use xlink:href="#DejaVuSans-3" transform="translate(195.859375 0)"/>
      <use xlink:href="#DejaVuSans-57" transform="translate(227.640625 0)"/>
      <use xlink:href="#DejaVuSans-4b" transform="translate(266.84375 0)"/>
      <use xlink:href="#DejaVuSans-55" transform="translate(330.21875 0)"/>
      <use xlink:href="#DejaVuSans-20" transform="translate(371.328125 0)"/>
      <use xlink:href="#DejaVuSans-13" transform="translate(455.125 0)"/>
      <use xlink:href="#DejaVuSans-11" transform="translate(518.75 0)"/>
      <use xlink:href="#DejaVuSans-16" transform="translate(550.53125 0)"/>
      <use xlink:href="#DejaVuSans-16" transform="translate(614.15625 0)"/>
      <use xlink:href="#DejaVuSans-1c" transform="translate(677.78125 0)"/>
     </g>
    </g>
   </g>
  </g>
 </g>
 <defs>
  <clipPath id="p75a6b6a0d0">
   <rect x="38.602344" y="26.16" width="521.255382" height="219.717656"/>
  </clipPath>
 </defs>
</svg>
