<?xml version="1.0" encoding="utf-8" standalone="no"?>
<!DOCTYPE svg PUBLIC "-//W3C//DTD SVG 1.1//EN"
  "http://www.w3.org/Graphics/SVG/1.1/DTD/svg11.dtd">
<svg xmlns:xlink="http://www.w3.org/1999/xlink" width="576pt" height="288pt" viewBox="0 0 576 288" xmlns="http://www.w3.org/2000/svg" version="1.1">
 <metadata>
  <rdf:RDF xmlns:dc="http://purl.org/dc/elements/1.1/" xmlns:cc="http://creativecommons.org/ns#" xmlns:rdf="http://www.w3.org/1999/02/22-rdf-syntax-ns#">
   <cc:Work>
    <dc:type rdf:resource="http://purl.org/dc/dcmitype/StillImage"/>
    <dc:date>2026-07-31T13:20:36.881408</dc:date>
    <dc:format>image/svg+xml</dc:format>
    <dc:creator>
     <cc:Agent>
      <dc:title>Matplotlib v3.11.0, https://matplotlib.org/</dc:title>
     </cc:Agent>
    </dc:creator>
   </cc:Work>
  </rdf:RDF>
 </metadata>
 <defs>
  <style type="text/css">*{stroke-linejoin: round; stroke-linecap: butt}</style>
 </defs>
 <g id="figure_1">
  <g id="patch_1">
   <path d="M 0 288 
L 576 288 
L 576 0 
L 0 0 
z
" style="fill: #ffffff"/>
  </g>
  <g id="axes_1">
   <g id="patch_2">
    <path d="M 47.962344 245.877656 
L 565.2 245.877656 
L 565.2 26.16 
L 47.962344 26.16 
z
" style="fill: #ffffff"/>
   </g>
   <g id="FillBetweenPolyCollection_1">
    <defs>
     <path id="mcfff7bd8ff" d="M 102.083817 -42.125909 
L 102.083817 -42.122344 
L 104.292889 -42.122344 
L 106.501962 -42.122344 
L 108.711034 -42.122344 
L 110.920106 -42.122344 
L 113.129178 -42.122344 
L 115.338251 -42.122344 
L 117.547323 -42.122344 
L 119.756395 -42.122344 
L 121.965467 -42.122344 
L 124.17454 -42.122344 
L 126.383612 -42.122344 
L 128.592684 -42.122344 
L 130.801756 -42.122344 
L 133.010829 -42.122344 
L 135.219901 -42.122344 
L 137.428973 -42.122344 
L 139.638046 -42.122344 
L 141.847118 -42.122344 
L 144.05619 -42.122344 
L 146.265262 -42.122344 
L 148.474335 -42.122344 
L 150.683407 -42.122344 
L 152.892479 -42.122344 
L 155.101551 -42.122344 
L 157.310624 -42.122344 
L 159.519696 -42.122344 
L 161.728768 -42.122344 
L 163.93784 -42.122344 
L 166.146913 -42.122344 
L 168.355985 -42.122344 
L 170.565057 -42.122344 
L 172.774129 -42.122344 
L 174.983202 -42.122344 
L 177.192274 -42.122344 
L 179.401346 -42.122344 
L 181.610419 -42.122344 
L 183.819491 -42.122344 
L 186.028563 -42.122344 
L 188.237635 -42.122344 
L 190.446708 -42.122344 
L 192.65578 -42.122344 
L 194.864852 -42.122344 
L 197.073924 -42.122344 
L 199.282997 -42.122344 
L 201.492069 -42.122344 
L 203.701141 -42.122344 
L 205.910213 -42.122344 
L 208.119286 -42.122344 
L 210.328358 -42.122344 
L 212.53743 -42.122344 
L 214.746502 -42.122344 
L 216.955575 -42.122344 
L 219.164647 -42.122344 
L 221.373719 -42.122344 
L 223.582792 -42.122344 
L 225.791864 -42.122344 
L 228.000936 -42.122344 
L 230.210008 -42.122344 
L 232.419081 -42.122344 
L 234.628153 -42.122344 
L 236.837225 -42.122344 
L 239.046297 -42.122344 
L 241.25537 -42.122344 
L 243.464442 -42.122344 
L 245.673514 -42.122344 
L 247.882586 -42.122344 
L 250.091659 -42.122344 
L 252.300731 -42.122344 
L 254.509803 -42.122344 
L 256.718875 -42.122344 
L 258.927948 -42.122344 
L 261.13702 -42.122344 
L 263.346092 -42.122344 
L 265.555165 -42.122344 
L 267.764237 -42.122344 
L 269.973309 -42.122344 
L 272.182381 -42.122344 
L 274.391454 -42.122344 
L 276.600526 -42.122344 
L 278.809598 -42.122344 
L 281.01867 -42.122344 
L 283.227743 -42.122344 
L 285.436815 -42.122344 
L 287.645887 -42.122344 
L 289.854959 -42.122344 
L 292.064032 -42.122344 
L 294.273104 -42.122344 
L 296.482176 -42.122344 
L 298.691248 -42.122344 
L 300.900321 -42.122344 
L 303.109393 -42.122344 
L 305.318465 -42.122344 
L 307.527538 -42.122344 
L 309.73661 -42.122344 
L 311.945682 -42.122344 
L 314.154754 -42.122344 
L 316.363827 -42.122344 
L 318.572899 -42.122344 
L 320.781971 -42.122344 
L 322.991043 -42.122344 
L 325.200116 -42.122344 
L 327.409188 -42.122344 
L 329.61826 -42.122344 
L 331.827332 -42.122344 
L 334.036405 -42.122344 
L 336.245477 -42.122344 
L 338.454549 -42.122344 
L 340.663621 -42.122344 
L 342.872694 -42.122344 
L 345.081766 -42.122344 
L 347.290838 -42.122344 
L 349.499911 -42.122344 
L 351.708983 -42.122344 
L 353.918055 -42.122344 
L 356.127127 -42.122344 
L 358.3362 -42.122344 
L 360.545272 -42.122344 
L 362.754344 -42.122344 
L 364.963416 -42.122344 
L 367.172489 -42.122344 
L 369.381561 -42.122344 
L 371.590633 -42.122344 
L 373.799705 -42.122344 
L 376.008778 -42.122344 
L 378.21785 -42.122344 
L 380.426922 -42.122344 
L 382.635994 -42.122344 
L 384.845067 -42.122344 
L 387.054139 -42.122344 
L 389.263211 -42.122344 
L 391.472284 -42.122344 
L 393.681356 -42.122344 
L 395.890428 -42.122344 
L 398.0995 -42.122344 
L 400.308573 -42.122344 
L 402.517645 -42.122344 
L 404.726717 -42.122344 
L 406.935789 -42.122344 
L 409.144862 -42.122344 
L 411.353934 -42.122344 
L 413.563006 -42.122344 
L 415.772078 -42.122344 
L 417.981151 -42.122344 
L 420.190223 -42.122344 
L 422.399295 -42.122344 
L 424.608367 -42.122344 
L 426.81744 -42.122344 
L 429.026512 -42.122344 
L 431.235584 -42.122344 
L 433.444657 -42.122344 
L 435.653729 -42.122344 
L 437.862801 -42.122344 
L 440.071873 -42.122344 
L 442.280946 -42.122344 
L 444.490018 -42.122344 
L 446.69909 -42.122344 
L 448.908162 -42.122344 
L 451.117235 -42.122344 
L 453.326307 -42.122344 
L 455.535379 -42.122344 
L 457.744451 -42.122344 
L 459.953524 -42.122344 
L 462.162596 -42.122344 
L 464.371668 -42.122344 
L 466.58074 -42.122344 
L 468.789813 -42.122344 
L 470.998885 -42.122344 
L 473.207957 -42.122344 
L 475.41703 -42.122344 
L 477.626102 -42.122344 
L 479.835174 -42.122344 
L 482.044246 -42.122344 
L 484.253319 -42.122344 
L 486.462391 -42.122344 
L 488.671463 -42.122344 
L 490.880535 -42.122344 
L 493.089608 -42.122344 
L 495.29868 -42.122344 
L 497.507752 -42.122344 
L 499.716824 -42.122344 
L 501.925897 -42.122344 
L 504.134969 -42.122344 
L 506.344041 -42.122344 
L 508.553113 -42.122344 
L 510.762186 -42.122344 
L 512.971258 -42.122344 
L 515.18033 -42.122344 
L 517.389403 -42.122344 
L 519.598475 -42.122344 
L 521.807547 -42.122344 
L 524.016619 -42.122344 
L 526.225692 -42.122344 
L 528.434764 -42.122344 
L 530.643836 -42.122344 
L 532.852908 -42.122344 
L 535.061981 -42.122344 
L 537.271053 -42.122344 
L 539.480125 -42.122344 
L 541.689197 -42.122344 
L 541.689197 -42.126157 
L 541.689197 -42.126157 
L 539.480125 -42.129402 
L 537.271053 -42.134894 
L 535.061981 -42.143793 
L 532.852908 -42.157599 
L 530.643836 -42.178109 
L 528.434764 -42.207287 
L 526.225692 -42.247041 
L 524.016619 -42.29891 
L 521.807547 -42.363704 
L 519.598475 -42.441164 
L 517.389403 -42.529713 
L 515.18033 -42.626401 
L 512.971258 -42.727089 
L 510.762186 -42.826939 
L 508.553113 -42.921181 
L 506.344041 -43.006106 
L 504.134969 -43.080173 
L 501.925897 -43.145055 
L 499.716824 -43.206431 
L 497.507752 -43.274315 
L 495.29868 -43.362755 
L 493.089608 -43.48881 
L 490.880535 -43.670817 
L 488.671463 -43.926124 
L 486.462391 -44.268553 
L 484.253319 -44.706025 
L 482.044246 -45.238822 
L 479.835174 -45.858928 
L 477.626102 -46.550814 
L 475.41703 -47.29375 
L 473.207957 -48.065461 
L 470.998885 -48.846589 
L 468.789813 -49.62517 
L 466.58074 -50.400211 
L 464.371668 -51.183467 
L 462.162596 -51.998816 
L 459.953524 -52.879057 
L 457.744451 -53.860536 
L 455.535379 -54.97663 
L 453.326307 -56.251604 
L 451.117235 -57.696511 
L 448.908162 -59.308496 
L 446.69909 -61.074122 
L 444.490018 -62.976167 
L 442.280946 -65.002327 
L 440.071873 -67.153477 
L 437.862801 -69.449148 
L 435.653729 -71.928507 
L 433.444657 -74.646268 
L 431.235584 -77.664203 
L 429.026512 -81.039885 
L 426.81744 -84.814855 
L 424.608367 -89.004439 
L 422.399295 -93.591218 
L 420.190223 -98.523557 
L 417.981151 -103.719858 
L 415.772078 -109.078138 
L 413.563006 -114.489384 
L 411.353934 -119.852162 
L 409.144862 -125.085534 
L 406.935789 -130.137728 
L 404.726717 -134.989171 
L 402.517645 -139.649968 
L 400.308573 -144.153207 
L 398.0995 -148.546116 
L 395.890428 -152.880986 
L 393.681356 -157.207276 
L 391.472284 -161.565698 
L 389.263211 -165.984631 
L 387.054139 -170.478886 
L 384.845067 -175.050508 
L 382.635994 -179.69085 
L 380.426922 -184.382718 
L 378.21785 -189.101373 
L 376.008778 -193.813741 
L 373.799705 -198.476282 
L 371.590633 -203.033118 
L 369.381561 -207.416574 
L 367.172489 -211.551702 
L 364.963416 -215.364869 
L 362.754344 -218.79453 
L 360.545272 -221.801015 
L 358.3362 -224.372036 
L 356.127127 -226.521988 
L 353.918055 -228.285259 
L 351.708983 -229.705787 
L 349.499911 -230.826051 
L 347.290838 -231.678341 
L 345.081766 -232.279701 
L 342.872694 -232.630399 
L 340.663621 -232.714738 
L 338.454549 -232.503055 
L 336.245477 -231.95449 
L 334.036405 -231.021009 
L 331.827332 -229.653419 
L 329.61826 -227.809613 
L 327.409188 -225.46405 
L 325.200116 -222.616365 
L 322.991043 -219.296581 
L 320.781971 -215.564978 
L 318.572899 -211.50614 
L 316.363827 -207.21834 
L 314.154754 -202.800639 
L 311.945682 -198.340457 
L 309.73661 -193.903978 
L 307.527538 -189.530961 
L 305.318465 -185.23462 
L 303.109393 -181.006499 
L 300.900321 -176.825504 
L 298.691248 -172.669459 
L 296.482176 -168.526744 
L 294.273104 -164.405111 
L 292.064032 -160.335092 
L 289.854959 -156.36661 
L 287.645887 -152.559401 
L 285.436815 -148.969762 
L 283.227743 -145.63734 
L 281.01867 -142.5755 
L 278.809598 -139.76744 
L 276.600526 -137.168241 
L 274.391454 -134.71135 
L 272.182381 -132.317253 
L 269.973309 -129.902443 
L 267.764237 -127.387766 
L 265.555165 -124.706086 
L 263.346092 -121.809423 
L 261.13702 -118.675189 
L 258.927948 -115.310277 
L 256.718875 -111.751301 
L 254.509803 -108.059721 
L 252.300731 -104.311972 
L 250.091659 -100.58648 
L 247.882586 -96.95077 
L 245.673514 -93.452123 
L 243.464442 -90.114094 
L 241.25537 -86.939283 
L 239.046297 -83.916664 
L 236.837225 -81.030568 
L 234.628153 -78.268255 
L 232.419081 -75.624095 
L 230.210008 -73.099864 
L 228.000936 -70.70213 
L 225.791864 -68.438455 
L 223.582792 -66.314097 
L 221.373719 -64.330262 
L 219.164647 -62.484056 
L 216.955575 -60.769617 
L 214.746502 -59.179578 
L 212.53743 -57.706191 
L 210.328358 -56.341796 
L 208.119286 -55.078752 
L 205.910213 -53.909182 
L 203.701141 -52.824927 
L 201.492069 -51.817872 
L 199.282997 -50.880611 
L 197.073924 -50.007161 
L 194.864852 -49.193415 
L 192.65578 -48.43712 
L 190.446708 -47.737351 
L 188.237635 -47.09367 
L 186.028563 -46.505284 
L 183.819491 -45.970509 
L 181.610419 -45.486701 
L 179.401346 -45.050642 
L 177.192274 -44.659157 
L 174.983202 -44.309684 
L 172.774129 -44.000548 
L 170.565057 -43.730834 
L 168.355985 -43.499932 
L 166.146913 -43.306952 
L 163.93784 -43.150217 
L 161.728768 -43.027014 
L 159.519696 -42.933619 
L 157.310624 -42.865554 
L 155.101551 -42.817949 
L 152.892479 -42.785894 
L 150.683407 -42.764706 
L 148.474335 -42.750087 
L 146.265262 -42.7382 
L 144.05619 -42.725702 
L 141.847118 -42.70977 
L 139.638046 -42.688171 
L 137.428973 -42.659371 
L 135.219901 -42.62267 
L 133.010829 -42.578322 
L 130.801756 -42.527553 
L 128.592684 -42.472455 
L 126.383612 -42.41571 
L 124.17454 -42.360204 
L 121.965467 -42.308601 
L 119.756395 -42.262978 
L 117.547323 -42.224597 
L 115.338251 -42.19386 
L 113.129178 -42.170415 
L 110.920106 -42.153377 
L 108.711034 -42.141574 
L 106.501962 -42.133777 
L 104.292889 -42.128863 
L 102.083817 -42.125909 
z
" style="stroke: #4682b4"/>
    </defs>
    <g clip-path="url(#p30a72f0114)">
     <use xlink:href="#mcfff7bd8ff" x="0" y="288" style="fill: #4682b4; fill-opacity: 0.4; stroke: #4682b4"/>
    </g>
   </g>
   <g id="FillBetweenPolyCollection_2">
    <defs>
     <path id="mced8afd7e0" d="M 71.473146 -42.126359 
L 71.473146 -42.122344 
L 73.384794 -42.122344 
L 75.296441 -42.122344 
L 77.208088 -42.122344 
L 79.119736 -42.122344 
L 81.031383 -42.122344 
L 82.94303 -42.122344 
L 84.854678 -42.122344 
L 86.766325 -42.122344 
L 88.677972 -42.122344 
L 90.589619 -42.122344 
L 92.501267 -42.122344 
L 94.412914 -42.122344 
L 96.324561 -42.122344 
L 98.236209 -42.122344 
L 100.147856 -42.122344 
L 102.059503 -42.122344 
L 103.971151 -42.122344 
L 105.882798 -42.122344 
L 107.794445 -42.122344 
L 109.706093 -42.122344 
L 111.61774 -42.122344 
L 113.529387 -42.122344 
L 115.441035 -42.122344 
L 117.352682 -42.122344 
L 119.264329 -42.122344 
L 121.175977 -42.122344 
L 123.087624 -42.122344 
L 124.999271 -42.122344 
L 126.910919 -42.122344 
L 128.822566 -42.122344 
L 130.734213 -42.122344 
L 132.645861 -42.122344 
L 134.557508 -42.122344 
L 136.469155 -42.122344 
L 138.380802 -42.122344 
L 140.29245 -42.122344 
L 142.204097 -42.122344 
L 144.115744 -42.122344 
L 146.027392 -42.122344 
L 147.939039 -42.122344 
L 149.850686 -42.122344 
L 151.762334 -42.122344 
L 153.673981 -42.122344 
L 155.585628 -42.122344 
L 157.497276 -42.122344 
L 159.408923 -42.122344 
L 161.32057 -42.122344 
L 163.232218 -42.122344 
L 165.143865 -42.122344 
L 167.055512 -42.122344 
L 168.96716 -42.122344 
L 170.878807 -42.122344 
L 172.790454 -42.122344 
L 174.702102 -42.122344 
L 176.613749 -42.122344 
L 178.525396 -42.122344 
L 180.437044 -42.122344 
L 182.348691 -42.122344 
L 184.260338 -42.122344 
L 186.171985 -42.122344 
L 188.083633 -42.122344 
L 189.99528 -42.122344 
L 191.906927 -42.122344 
L 193.818575 -42.122344 
L 195.730222 -42.122344 
L 197.641869 -42.122344 
L 199.553517 -42.122344 
L 201.465164 -42.122344 
L 203.376811 -42.122344 
L 205.288459 -42.122344 
L 207.200106 -42.122344 
L 209.111753 -42.122344 
L 211.023401 -42.122344 
L 212.935048 -42.122344 
L 214.846695 -42.122344 
L 216.758343 -42.122344 
L 218.66999 -42.122344 
L 220.581637 -42.122344 
L 222.493285 -42.122344 
L 224.404932 -42.122344 
L 226.316579 -42.122344 
L 228.228226 -42.122344 
L 230.139874 -42.122344 
L 232.051521 -42.122344 
L 233.963168 -42.122344 
L 235.874816 -42.122344 
L 237.786463 -42.122344 
L 239.69811 -42.122344 
L 241.609758 -42.122344 
L 243.521405 -42.122344 
L 245.433052 -42.122344 
L 247.3447 -42.122344 
L 249.256347 -42.122344 
L 251.167994 -42.122344 
L 253.079642 -42.122344 
L 254.991289 -42.122344 
L 256.902936 -42.122344 
L 258.814584 -42.122344 
L 260.726231 -42.122344 
L 262.637878 -42.122344 
L 264.549526 -42.122344 
L 266.461173 -42.122344 
L 268.37282 -42.122344 
L 270.284468 -42.122344 
L 272.196115 -42.122344 
L 274.107762 -42.122344 
L 276.019409 -42.122344 
L 277.931057 -42.122344 
L 279.842704 -42.122344 
L 281.754351 -42.122344 
L 283.665999 -42.122344 
L 285.577646 -42.122344 
L 287.489293 -42.122344 
L 289.400941 -42.122344 
L 291.312588 -42.122344 
L 293.224235 -42.122344 
L 295.135883 -42.122344 
L 297.04753 -42.122344 
L 298.959177 -42.122344 
L 300.870825 -42.122344 
L 302.782472 -42.122344 
L 304.694119 -42.122344 
L 306.605767 -42.122344 
L 308.517414 -42.122344 
L 310.429061 -42.122344 
L 312.340709 -42.122344 
L 314.252356 -42.122344 
L 316.164003 -42.122344 
L 318.07565 -42.122344 
L 319.987298 -42.122344 
L 321.898945 -42.122344 
L 323.810592 -42.122344 
L 325.72224 -42.122344 
L 327.633887 -42.122344 
L 329.545534 -42.122344 
L 331.457182 -42.122344 
L 333.368829 -42.122344 
L 335.280476 -42.122344 
L 337.192124 -42.122344 
L 339.103771 -42.122344 
L 341.015418 -42.122344 
L 342.927066 -42.122344 
L 344.838713 -42.122344 
L 346.75036 -42.122344 
L 348.662008 -42.122344 
L 350.573655 -42.122344 
L 352.485302 -42.122344 
L 354.39695 -42.122344 
L 356.308597 -42.122344 
L 358.220244 -42.122344 
L 360.131892 -42.122344 
L 362.043539 -42.122344 
L 363.955186 -42.122344 
L 365.866833 -42.122344 
L 367.778481 -42.122344 
L 369.690128 -42.122344 
L 371.601775 -42.122344 
L 373.513423 -42.122344 
L 375.42507 -42.122344 
L 377.336717 -42.122344 
L 379.248365 -42.122344 
L 381.160012 -42.122344 
L 383.071659 -42.122344 
L 384.983307 -42.122344 
L 386.894954 -42.122344 
L 388.806601 -42.122344 
L 390.718249 -42.122344 
L 392.629896 -42.122344 
L 394.541543 -42.122344 
L 396.453191 -42.122344 
L 398.364838 -42.122344 
L 400.276485 -42.122344 
L 402.188133 -42.122344 
L 404.09978 -42.122344 
L 406.011427 -42.122344 
L 407.923075 -42.122344 
L 409.834722 -42.122344 
L 411.746369 -42.122344 
L 413.658016 -42.122344 
L 415.569664 -42.122344 
L 417.481311 -42.122344 
L 419.392958 -42.122344 
L 421.304606 -42.122344 
L 423.216253 -42.122344 
L 425.1279 -42.122344 
L 427.039548 -42.122344 
L 428.951195 -42.122344 
L 430.862842 -42.122344 
L 432.77449 -42.122344 
L 434.686137 -42.122344 
L 436.597784 -42.122344 
L 438.509432 -42.122344 
L 440.421079 -42.122344 
L 442.332726 -42.122344 
L 444.244374 -42.122344 
L 446.156021 -42.122344 
L 448.067668 -42.122344 
L 449.979316 -42.122344 
L 451.890963 -42.122344 
L 451.890963 -42.131241 
L 451.890963 -42.131241 
L 449.979316 -42.139214 
L 448.067668 -42.153131 
L 446.156021 -42.176438 
L 444.244374 -42.213884 
L 442.332726 -42.2716 
L 440.421079 -42.356933 
L 438.509432 -42.477944 
L 436.597784 -42.642522 
L 434.686137 -42.85716 
L 432.77449 -43.125559 
L 430.862842 -43.447335 
L 428.951195 -43.817196 
L 427.039548 -44.22489 
L 425.1279 -44.656148 
L 423.216253 -45.094585 
L 421.304606 -45.524293 
L 419.392958 -45.932662 
L 417.481311 -46.312857 
L 415.569664 -46.665458 
L 413.658016 -46.998946 
L 411.746369 -47.329028 
L 409.834722 -47.676997 
L 407.923075 -48.067544 
L 406.011427 -48.526456 
L 404.09978 -49.078563 
L 402.188133 -49.74616 
L 400.276485 -50.54797 
L 398.364838 -51.498576 
L 396.453191 -52.608235 
L 394.541543 -53.88299 
L 392.629896 -55.325037 
L 390.718249 -56.933391 
L 388.806601 -58.70489 
L 386.894954 -60.635491 
L 384.983307 -62.72171 
L 383.071659 -64.961845 
L 381.160012 -67.356566 
L 379.248365 -69.908464 
L 377.336717 -72.620418 
L 375.42507 -75.493056 
L 373.513423 -78.522037 
L 371.601775 -81.696181 
L 369.690128 -84.997406 
L 367.778481 -88.402974 
L 365.866833 -91.889748 
L 363.955186 -95.439404 
L 362.043539 -99.043009 
L 360.131892 -102.703495 
L 358.220244 -106.435148 
L 356.308597 -110.260267 
L 354.39695 -114.204045 
L 352.485302 -118.289284 
L 350.573655 -122.53244 
L 348.662008 -126.941888 
L 346.75036 -131.518382 
L 344.838713 -136.256948 
L 342.927066 -141.149058 
L 341.015418 -146.184045 
L 339.103771 -151.349237 
L 337.192124 -156.628848 
L 335.280476 -162.002197 
L 333.368829 -167.442045 
L 331.457182 -172.913845 
L 329.545534 -178.376465 
L 327.633887 -183.784569 
L 325.72224 -189.092462 
L 323.810592 -194.258746 
L 321.898945 -199.250814 
L 319.987298 -204.048068 
L 318.07565 -208.6429 
L 316.164003 -213.039002 
L 314.252356 -217.247255 
L 312.340709 -221.280207 
L 310.429061 -225.146557 
L 308.517414 -228.847035 
L 306.605767 -232.372507 
L 304.694119 -235.704285 
L 302.782472 -238.815858 
L 300.870825 -241.67492 
L 298.959177 -244.244855 
L 297.04753 -246.485616 
L 295.135883 -248.354763 
L 293.224235 -249.809849 
L 291.312588 -250.813052 
L 289.400941 -251.337966 
L 287.489293 -251.377254 
L 285.577646 -250.948997 
L 283.665999 -250.099492 
L 281.754351 -248.901085 
L 279.842704 -247.444931 
L 277.931057 -245.829933 
L 276.019409 -244.14991 
L 274.107762 -242.481165 
L 272.196115 -240.872189 
L 270.284468 -239.336614 
L 268.37282 -237.850041 
L 266.461173 -236.351075 
L 264.549526 -234.746767 
L 262.637878 -232.922327 
L 260.726231 -230.754545 
L 258.814584 -228.127616 
L 256.902936 -224.949497 
L 254.991289 -221.166516 
L 253.079642 -216.774007 
L 251.167994 -211.82121 
L 249.256347 -206.409439 
L 247.3447 -200.683491 
L 245.433052 -194.81717 
L 243.521405 -188.994599 
L 241.609758 -183.389533 
L 239.69811 -178.145085 
L 237.786463 -173.356374 
L 235.874816 -169.058362 
L 233.963168 -165.220878 
L 232.051521 -161.752156 
L 230.139874 -158.511219 
L 228.228226 -155.328001 
L 226.316579 -152.028466 
L 224.404932 -148.460627 
L 222.493285 -144.516807 
L 220.581637 -140.148057 
L 218.66999 -135.368347 
L 216.758343 -130.248449 
L 214.846695 -124.901608 
L 212.935048 -119.464593 
L 211.023401 -114.078047 
L 209.111753 -108.869496 
L 207.200106 -103.941082 
L 205.288459 -99.362791 
L 203.376811 -95.170736 
L 201.465164 -91.369401 
L 199.553517 -87.936489 
L 197.641869 -84.829176 
L 195.730222 -81.990941 
L 193.818575 -79.35854 
L 191.906927 -76.868962 
L 189.99528 -74.466162 
L 188.083633 -72.107148 
L 186.171985 -69.766676 
L 184.260338 -67.439656 
L 182.348691 -65.140527 
L 180.437044 -62.899431 
L 178.525396 -60.755749 
L 176.613749 -58.750241 
L 174.702102 -56.917438 
L 172.790454 -55.279785 
L 170.878807 -53.844576 
L 168.96716 -52.603946 
L 167.055512 -51.537483 
L 165.143865 -50.61652 
L 163.232218 -49.808997 
L 161.32057 -49.08395 
L 159.408923 -48.414962 
L 157.497276 -47.78232 
L 155.585628 -47.1739 
L 153.673981 -46.584951 
L 151.762334 -46.017027 
L 149.850686 -45.476287 
L 147.939039 -44.971413 
L 146.027392 -44.511396 
L 144.115744 -44.103527 
L 142.204097 -43.751883 
L 140.29245 -43.456582 
L 138.380802 -43.213889 
L 136.469155 -43.0171 
L 134.557508 -42.857915 
L 132.645861 -42.727928 
L 130.734213 -42.619894 
L 128.822566 -42.528502 
L 126.910919 -42.450592 
L 124.999271 -42.384899 
L 123.087624 -42.331496 
L 121.175977 -42.291154 
L 119.264329 -42.264751 
L 117.352682 -42.252827 
L 115.441035 -42.255261 
L 113.529387 -42.271061 
L 111.61774 -42.298228 
L 109.706093 -42.33371 
L 107.794445 -42.373507 
L 105.882798 -42.412944 
L 103.971151 -42.447165 
L 102.059503 -42.471758 
L 100.147856 -42.483419 
L 98.236209 -42.480476 
L 96.324561 -42.463147 
L 94.412914 -42.433443 
L 92.501267 -42.394733 
L 90.589619 -42.351093 
L 88.677972 -42.306591 
L 86.766325 -42.264678 
L 84.854678 -42.227802 
L 82.94303 -42.197284 
L 81.031383 -42.17342 
L 79.119736 -42.155731 
L 77.208088 -42.143276 
L 75.296441 -42.13493 
L 73.384794 -42.129602 
L 71.473146 -42.126359 
z
" style="stroke: #fa8072"/>
    </defs>
    <g clip-path="url(#p30a72f0114)">
     <use xlink:href="#mced8afd7e0" x="0" y="288" style="fill: #fa8072; fill-opacity: 0.4; stroke: #fa8072"/>
    </g>
   </g>
   <g id="matplotlib.axis_1">
    <g id="xtick_1">
     <g id="line2d_1">
      <defs>
       <path id="m92141ea72d" d="M 0 0 
L 0 3.5 
" style="stroke: #000000; stroke-width: 0.8"/>
      </defs>
      <g>
       <use xlink:href="#m92141ea72d" x="98.142914" y="245.877656" style="stroke: #000000; stroke-width: 0.8"/>
      </g>
     </g>
     <g id="text_1">
      <!-- −0.2 -->
      <g transform="translate(86.001508 260.475312) scale(0.1 -0.1)">
       <defs>
        <path id="DejaVuSans-c9c" d="M 678 2272 
L 4684 2272 
L 4684 1741 
L 678 1741 
L 678 2272 
z
" transform="scale(0.015625)"/>
        <path id="DejaVuSans-13" d="M 2034 4250 
Q 1547 4250 1301 3770 
Q 1056 3291 1056 2328 
Q 1056 1369 1301 889 
Q 1547 409 2034 409 
Q 2525 409 2770 889 
Q 3016 1369 3016 2328 
Q 3016 3291 2770 3770 
Q 2525 4250 2034 4250 
z
M 2034 4750 
Q 2819 4750 3233 4129 
Q 3647 3509 3647 2328 
Q 3647 1150 3233 529 
Q 2819 -91 2034 -91 
Q 1250 -91 836 529 
Q 422 1150 422 2328 
Q 422 3509 836 4129 
Q 1250 4750 2034 4750 
z
" transform="scale(0.015625)"/>
        <path id="DejaVuSans-11" d="M 684 794 
L 1344 794 
L 1344 0 
L 684 0 
L 684 794 
z
" transform="scale(0.015625)"/>
        <path id="DejaVuSans-15" d="M 1228 531 
L 3431 531 
L 3431 0 
L 469 0 
L 469 531 
Q 828 903 1448 1529 
Q 2069 2156 2228 2338 
Q 2531 2678 2651 2914 
Q 2772 3150 2772 3378 
Q 2772 3750 2511 3984 
Q 2250 4219 1831 4219 
Q 1534 4219 1204 4116 
Q 875 4013 500 3803 
L 500 4441 
Q 881 4594 1212 4672 
Q 1544 4750 1819 4750 
Q 2544 4750 2975 4387 
Q 3406 4025 3406 3419 
Q 3406 3131 3298 2873 
Q 3191 2616 2906 2266 
Q 2828 2175 2409 1742 
Q 1991 1309 1228 531 
z
" transform="scale(0.015625)"/>
       </defs>
       <use xlink:href="#DejaVuSans-c9c"/>
       <use xlink:href="#DejaVuSans-13" transform="translate(83.796875 0)"/>
       <use xlink:href="#DejaVuSans-11" transform="translate(147.421875 0)"/>
       <use xlink:href="#DejaVuSans-15" transform="translate(179.203125 0)"/>
      </g>
     </g>
    </g>
    <g id="xtick_2">
     <g id="line2d_2">
      <g>
       <use xlink:href="#m92141ea72d" x="174.273696" y="245.877656" style="stroke: #000000; stroke-width: 0.8"/>
      </g>
     </g>
     <g id="text_2">
      <!-- 0.0 -->
      <g transform="translate(166.322134 260.475312) scale(0.1 -0.1)">
       <use xlink:href="#DejaVuSans-13"/>
       <use xlink:href="#DejaVuSans-11" transform="translate(63.625 0)"/>
       <use xlink:href="#DejaVuSans-13" transform="translate(95.40625 0)"/>
      </g>
     </g>
    </g>
    <g id="xtick_3">
     <g id="line2d_3">
      <g>
       <use xlink:href="#m92141ea72d" x="250.404479" y="245.877656" style="stroke: #000000; stroke-width: 0.8"/>
      </g>
     </g>
     <g id="text_3">
      <!-- 0.2 -->
      <g transform="translate(242.452916 260.475312) scale(0.1 -0.1)">
       <use xlink:href="#DejaVuSans-13"/>
       <use xlink:href="#DejaVuSans-11" transform="translate(63.625 0)"/>
       <use xlink:href="#DejaVuSans-15" transform="translate(95.40625 0)"/>
      </g>
     </g>
    </g>
    <g id="xtick_4">
     <g id="line2d_4">
      <g>
       <use xlink:href="#m92141ea72d" x="326.535261" y="245.877656" style="stroke: #000000; stroke-width: 0.8"/>
      </g>
     </g>
     <g id="text_4">
      <!-- 0.4 -->
      <g transform="translate(318.583698 260.475312) scale(0.1 -0.1)">
       <defs>
        <path id="DejaVuSans-17" d="M 2419 4116 
L 825 1625 
L 2419 1625 
L 2419 4116 
z
M 2253 4666 
L 3047 4666 
L 3047 1625 
L 3713 1625 
L 3713 1100 
L 3047 1100 
L 3047 0 
L 2419 0 
L 2419 1100 
L 313 1100 
L 313 1709 
L 2253 4666 
z
" transform="scale(0.015625)"/>
       </defs>
       <use xlink:href="#DejaVuSans-13"/>
       <use xlink:href="#DejaVuSans-11" transform="translate(63.625 0)"/>
       <use xlink:href="#DejaVuSans-17" transform="translate(95.40625 0)"/>
      </g>
     </g>
    </g>
    <g id="xtick_5">
     <g id="line2d_5">
      <g>
       <use xlink:href="#m92141ea72d" x="402.666043" y="245.877656" style="stroke: #000000; stroke-width: 0.8"/>
      </g>
     </g>
     <g id="text_5">
      <!-- 0.6 -->
      <g transform="translate(394.71448 260.475312) scale(0.1 -0.1)">
       <defs>
        <path id="DejaVuSans-19" d="M 2113 2584 
Q 1688 2584 1439 2293 
Q 1191 2003 1191 1497 
Q 1191 994 1439 701 
Q 1688 409 2113 409 
Q 2538 409 2786 701 
Q 3034 994 3034 1497 
Q 3034 2003 2786 2293 
Q 2538 2584 2113 2584 
z
M 3366 4563 
L 3366 3988 
Q 3128 4100 2886 4159 
Q 2644 4219 2406 4219 
Q 1781 4219 1451 3797 
Q 1122 3375 1075 2522 
Q 1259 2794 1537 2939 
Q 1816 3084 2150 3084 
Q 2853 3084 3261 2657 
Q 3669 2231 3669 1497 
Q 3669 778 3244 343 
Q 2819 -91 2113 -91 
Q 1303 -91 875 529 
Q 447 1150 447 2328 
Q 447 3434 972 4092 
Q 1497 4750 2381 4750 
Q 2619 4750 2861 4703 
Q 3103 4656 3366 4563 
z
" transform="scale(0.015625)"/>
       </defs>
       <use xlink:href="#DejaVuSans-13"/>
       <use xlink:href="#DejaVuSans-11" transform="translate(63.625 0)"/>
       <use xlink:href="#DejaVuSans-19" transform="translate(95.40625 0)"/>
      </g>
     </g>
    </g>
    <g id="xtick_6">
     <g id="line2d_6">
      <g>
       <use xlink:href="#m92141ea72d" x="478.796825" y="245.877656" style="stroke: #000000; stroke-width: 0.8"/>
      </g>
     </g>
     <g id="text_6">
      <!-- 0.8 -->
      <g transform="translate(470.845263 260.475312) scale(0.1 -0.1)">
       <defs>
        <path id="DejaVuSans-1b" d="M 2034 2216 
Q 1584 2216 1326 1975 
Q 1069 1734 1069 1313 
Q 1069 891 1326 650 
Q 1584 409 2034 409 
Q 2484 409 2743 651 
Q 3003 894 3003 1313 
Q 3003 1734 2745 1975 
Q 2488 2216 2034 2216 
z
M 1403 2484 
Q 997 2584 770 2862 
Q 544 3141 544 3541 
Q 544 4100 942 4425 
Q 1341 4750 2034 4750 
Q 2731 4750 3128 4425 
Q 3525 4100 3525 3541 
Q 3525 3141 3298 2862 
Q 3072 2584 2669 2484 
Q 3125 2378 3379 2068 
Q 3634 1759 3634 1313 
Q 3634 634 3220 271 
Q 2806 -91 2034 -91 
Q 1263 -91 848 271 
Q 434 634 434 1313 
Q 434 1759 690 2068 
Q 947 2378 1403 2484 
z
M 1172 3481 
Q 1172 3119 1398 2916 
Q 1625 2713 2034 2713 
Q 2441 2713 2670 2916 
Q 2900 3119 2900 3481 
Q 2900 3844 2670 4047 
Q 2441 4250 2034 4250 
Q 1625 4250 1398 4047 
Q 1172 3844 1172 3481 
z
" transform="scale(0.015625)"/>
       </defs>
       <use xlink:href="#DejaVuSans-13"/>
       <use xlink:href="#DejaVuSans-11" transform="translate(63.625 0)"/>
       <use xlink:href="#DejaVuSans-1b" transform="translate(95.40625 0)"/>
      </g>
     </g>
    </g>
    <g id="xtick_7">
     <g id="line2d_7">
      <g>
       <use xlink:href="#m92141ea72d" x="554.927607" y="245.877656" style="stroke: #000000; stroke-width: 0.8"/>
      </g>
     </g>
     <g id="text_7">
      <!-- 1.0 -->
      <g transform="translate(546.976045 260.475312) scale(0.1 -0.1)">
       <defs>
        <path id="DejaVuSans-14" d="M 794 531 
L 1825 531 
L 1825 4091 
L 703 3866 
L 703 4441 
L 1819 4666 
L 2450 4666 
L 2450 531 
L 3481 531 
L 3481 0 
L 794 0 
L 794 531 
z
" transform="scale(0.015625)"/>
       </defs>
       <use xlink:href="#DejaVuSans-14"/>
       <use xlink:href="#DejaVuSans-11" transform="translate(63.625 0)"/>
       <use xlink:href="#DejaVuSans-13" transform="translate(95.40625 0)"/>
      </g>
     </g>
    </g>
    <g id="text_8">
     <!-- Cosine Similarity -->
     <g transform="translate(264.562422 274.476094) scale(0.1 -0.1)">
      <defs>
       <path id="DejaVuSans-26" d="M 4122 4306 
L 4122 3641 
Q 3803 3938 3442 4084 
Q 3081 4231 2675 4231 
Q 1875 4231 1450 3742 
Q 1025 3253 1025 2328 
Q 1025 1406 1450 917 
Q 1875 428 2675 428 
Q 3081 428 3442 575 
Q 3803 722 4122 1019 
L 4122 359 
Q 3791 134 3420 21 
Q 3050 -91 2638 -91 
Q 1578 -91 968 557 
Q 359 1206 359 2328 
Q 359 3453 968 4101 
Q 1578 4750 2638 4750 
Q 3056 4750 3426 4639 
Q 3797 4528 4122 4306 
z
" transform="scale(0.015625)"/>
       <path id="DejaVuSans-52" d="M 1959 3097 
Q 1497 3097 1228 2736 
Q 959 2375 959 1747 
Q 959 1119 1226 758 
Q 1494 397 1959 397 
Q 2419 397 2687 759 
Q 2956 1122 2956 1747 
Q 2956 2369 2687 2733 
Q 2419 3097 1959 3097 
z
M 1959 3584 
Q 2709 3584 3137 3096 
Q 3566 2609 3566 1747 
Q 3566 888 3137 398 
Q 2709 -91 1959 -91 
Q 1206 -91 779 398 
Q 353 888 353 1747 
Q 353 2609 779 3096 
Q 1206 3584 1959 3584 
z
" transform="scale(0.015625)"/>
       <path id="DejaVuSans-56" d="M 2834 3397 
L 2834 2853 
Q 2591 2978 2328 3040 
Q 2066 3103 1784 3103 
Q 1356 3103 1142 2972 
Q 928 2841 928 2578 
Q 928 2378 1081 2264 
Q 1234 2150 1697 2047 
L 1894 2003 
Q 2506 1872 2764 1633 
Q 3022 1394 3022 966 
Q 3022 478 2636 193 
Q 2250 -91 1575 -91 
Q 1294 -91 989 -36 
Q 684 19 347 128 
L 347 722 
Q 666 556 975 473 
Q 1284 391 1588 391 
Q 1994 391 2212 530 
Q 2431 669 2431 922 
Q 2431 1156 2273 1281 
Q 2116 1406 1581 1522 
L 1381 1569 
Q 847 1681 609 1914 
Q 372 2147 372 2553 
Q 372 3047 722 3315 
Q 1072 3584 1716 3584 
Q 2034 3584 2315 3537 
Q 2597 3491 2834 3397 
z
" transform="scale(0.015625)"/>
       <path id="DejaVuSans-4c" d="M 603 3500 
L 1178 3500 
L 1178 0 
L 603 0 
L 603 3500 
z
M 603 4863 
L 1178 4863 
L 1178 4134 
L 603 4134 
L 603 4863 
z
" transform="scale(0.015625)"/>
       <path id="DejaVuSans-51" d="M 3513 2113 
L 3513 0 
L 2938 0 
L 2938 2094 
Q 2938 2591 2744 2837 
Q 2550 3084 2163 3084 
Q 1697 3084 1428 2787 
Q 1159 2491 1159 1978 
L 1159 0 
L 581 0 
L 581 3500 
L 1159 3500 
L 1159 2956 
Q 1366 3272 1645 3428 
Q 1925 3584 2291 3584 
Q 2894 3584 3203 3211 
Q 3513 2838 3513 2113 
z
" transform="scale(0.015625)"/>
       <path id="DejaVuSans-48" d="M 3597 1894 
L 3597 1613 
L 953 1613 
Q 991 1019 1311 708 
Q 1631 397 2203 397 
Q 2534 397 2845 478 
Q 3156 559 3463 722 
L 3463 178 
Q 3153 47 2828 -22 
Q 2503 -91 2169 -91 
Q 1331 -91 842 396 
Q 353 884 353 1716 
Q 353 2575 817 3079 
Q 1281 3584 2069 3584 
Q 2775 3584 3186 3129 
Q 3597 2675 3597 1894 
z
M 3022 2063 
Q 3016 2534 2758 2815 
Q 2500 3097 2075 3097 
Q 1594 3097 1305 2825 
Q 1016 2553 972 2059 
L 3022 2063 
z
" transform="scale(0.015625)"/>
       <path id="DejaVuSans-3" transform="scale(0.015625)"/>
       <path id="DejaVuSans-36" d="M 3425 4513 
L 3425 3897 
Q 3066 4069 2747 4153 
Q 2428 4238 2131 4238 
Q 1616 4238 1336 4038 
Q 1056 3838 1056 3469 
Q 1056 3159 1242 3001 
Q 1428 2844 1947 2747 
L 2328 2669 
Q 3034 2534 3370 2195 
Q 3706 1856 3706 1288 
Q 3706 609 3251 259 
Q 2797 -91 1919 -91 
Q 1588 -91 1214 -16 
Q 841 59 441 206 
L 441 856 
Q 825 641 1194 531 
Q 1563 422 1919 422 
Q 2459 422 2753 634 
Q 3047 847 3047 1241 
Q 3047 1584 2836 1778 
Q 2625 1972 2144 2069 
L 1759 2144 
Q 1053 2284 737 2584 
Q 422 2884 422 3419 
Q 422 4038 858 4394 
Q 1294 4750 2059 4750 
Q 2388 4750 2728 4690 
Q 3069 4631 3425 4513 
z
" transform="scale(0.015625)"/>
       <path id="DejaVuSans-50" d="M 3328 2828 
Q 3544 3216 3844 3400 
Q 4144 3584 4550 3584 
Q 5097 3584 5394 3201 
Q 5691 2819 5691 2113 
L 5691 0 
L 5113 0 
L 5113 2094 
Q 5113 2597 4934 2840 
Q 4756 3084 4391 3084 
Q 3944 3084 3684 2787 
Q 3425 2491 3425 1978 
L 3425 0 
L 2847 0 
L 2847 2094 
Q 2847 2600 2669 2842 
Q 2491 3084 2119 3084 
Q 1678 3084 1418 2786 
Q 1159 2488 1159 1978 
L 1159 0 
L 581 0 
L 581 3500 
L 1159 3500 
L 1159 2956 
Q 1356 3278 1631 3431 
Q 1906 3584 2284 3584 
Q 2666 3584 2933 3390 
Q 3200 3197 3328 2828 
z
" transform="scale(0.015625)"/>
       <path id="DejaVuSans-4f" d="M 603 4863 
L 1178 4863 
L 1178 0 
L 603 0 
L 603 4863 
z
" transform="scale(0.015625)"/>
       <path id="DejaVuSans-44" d="M 2194 1759 
Q 1497 1759 1228 1600 
Q 959 1441 959 1056 
Q 959 750 1161 570 
Q 1363 391 1709 391 
Q 2188 391 2477 730 
Q 2766 1069 2766 1631 
L 2766 1759 
L 2194 1759 
z
M 3341 1997 
L 3341 0 
L 2766 0 
L 2766 531 
Q 2569 213 2275 61 
Q 1981 -91 1556 -91 
Q 1019 -91 701 211 
Q 384 513 384 1019 
Q 384 1609 779 1909 
Q 1175 2209 1959 2209 
L 2766 2209 
L 2766 2266 
Q 2766 2663 2505 2880 
Q 2244 3097 1772 3097 
Q 1472 3097 1187 3025 
Q 903 2953 641 2809 
L 641 3341 
Q 956 3463 1253 3523 
Q 1550 3584 1831 3584 
Q 2591 3584 2966 3190 
Q 3341 2797 3341 1997 
z
" transform="scale(0.015625)"/>
       <path id="DejaVuSans-55" d="M 2631 2963 
Q 2534 3019 2420 3045 
Q 2306 3072 2169 3072 
Q 1681 3072 1420 2755 
Q 1159 2438 1159 1844 
L 1159 0 
L 581 0 
L 581 3500 
L 1159 3500 
L 1159 2956 
Q 1341 3275 1631 3429 
Q 1922 3584 2338 3584 
Q 2397 3584 2469 3576 
Q 2541 3569 2628 3553 
L 2631 2963 
z
" transform="scale(0.015625)"/>
       <path id="DejaVuSans-57" d="M 1172 4494 
L 1172 3500 
L 2356 3500 
L 2356 3053 
L 1172 3053 
L 1172 1153 
Q 1172 725 1289 603 
Q 1406 481 1766 481 
L 2356 481 
L 2356 0 
L 1766 0 
Q 1100 0 847 248 
Q 594 497 594 1153 
L 594 3053 
L 172 3053 
L 172 3500 
L 594 3500 
L 594 4494 
L 1172 4494 
z
" transform="scale(0.015625)"/>
       <path id="DejaVuSans-5c" d="M 2059 -325 
Q 1816 -950 1584 -1140 
Q 1353 -1331 966 -1331 
L 506 -1331 
L 506 -850 
L 844 -850 
Q 1081 -850 1212 -737 
Q 1344 -625 1503 -206 
L 1606 56 
L 191 3500 
L 800 3500 
L 1894 763 
L 2988 3500 
L 3597 3500 
L 2059 -325 
z
" transform="scale(0.015625)"/>
      </defs>
      <use xlink:href="#DejaVuSans-26"/>
      <use xlink:href="#DejaVuSans-52" transform="translate(69.828125 0)"/>
      <use xlink:href="#DejaVuSans-56" transform="translate(131.015625 0)"/>
      <use xlink:href="#DejaVuSans-4c" transform="translate(183.109375 0)"/>
      <use xlink:href="#DejaVuSans-51" transform="translate(210.890625 0)"/>
      <use xlink:href="#DejaVuSans-48" transform="translate(274.265625 0)"/>
      <use xlink:href="#DejaVuSans-3" transform="translate(335.796875 0)"/>
      <use xlink:href="#DejaVuSans-36" transform="translate(367.578125 0)"/>
      <use xlink:href="#DejaVuSans-4c" transform="translate(431.0625 0)"/>
      <use xlink:href="#DejaVuSans-50" transform="translate(458.84375 0)"/>
      <use xlink:href="#DejaVuSans-4c" transform="translate(556.25 0)"/>
      <use xlink:href="#DejaVuSans-4f" transform="translate(584.03125 0)"/>
      <use xlink:href="#DejaVuSans-44" transform="translate(611.8125 0)"/>
      <use xlink:href="#DejaVuSans-55" transform="translate(673.09375 0)"/>
      <use xlink:href="#DejaVuSans-4c" transform="translate(714.203125 0)"/>
      <use xlink:href="#DejaVuSans-57" transform="translate(741.984375 0)"/>
      <use xlink:href="#DejaVuSans-5c" transform="translate(781.1875 0)"/>
     </g>
    </g>
   </g>
   <g id="matplotlib.axis_2">
    <g id="ytick_1">
     <g id="line2d_8">
      <defs>
       <path id="m4afdc0d099" d="M 0 0 
L -3.5 0 
" style="stroke: #000000; stroke-width: 0.8"/>
      </defs>
      <g>
       <use xlink:href="#m4afdc0d099" x="47.962344" y="245.877656" style="stroke: #000000; stroke-width: 0.8"/>
      </g>
     </g>
     <g id="text_9">
      <!-- 0.0 -->
      <g transform="translate(25.059219 249.676484) scale(0.1 -0.1)">
       <use xlink:href="#DejaVuSans-13"/>
       <use xlink:href="#DejaVuSans-11" transform="translate(63.625 0)"/>
       <use xlink:href="#DejaVuSans-13" transform="translate(95.40625 0)"/>
      </g>
     </g>
    </g>
    <g id="ytick_2">
     <g id="line2d_9">
      <g>
       <use xlink:href="#m4afdc0d099" x="47.962344" y="212.484224" style="stroke: #000000; stroke-width: 0.8"/>
      </g>
     </g>
     <g id="text_10">
      <!-- 0.5 -->
      <g transform="translate(25.059219 216.283053) scale(0.1 -0.1)">
       <defs>
        <path id="DejaVuSans-18" d="M 691 4666 
L 3169 4666 
L 3169 4134 
L 1269 4134 
L 1269 2991 
Q 1406 3038 1543 3061 
Q 1681 3084 1819 3084 
Q 2600 3084 3056 2656 
Q 3513 2228 3513 1497 
Q 3513 744 3044 326 
Q 2575 -91 1722 -91 
Q 1428 -91 1123 -41 
Q 819 9 494 109 
L 494 744 
Q 775 591 1075 516 
Q 1375 441 1709 441 
Q 2250 441 2565 725 
Q 2881 1009 2881 1497 
Q 2881 1984 2565 2268 
Q 2250 2553 1709 2553 
Q 1456 2553 1204 2497 
Q 953 2441 691 2322 
L 691 4666 
z
" transform="scale(0.015625)"/>
       </defs>
       <use xlink:href="#DejaVuSans-13"/>
       <use xlink:href="#DejaVuSans-11" transform="translate(63.625 0)"/>
       <use xlink:href="#DejaVuSans-18" transform="translate(95.40625 0)"/>
      </g>
     </g>
    </g>
    <g id="ytick_3">
     <g id="line2d_10">
      <g>
       <use xlink:href="#m4afdc0d099" x="47.962344" y="179.090793" style="stroke: #000000; stroke-width: 0.8"/>
      </g>
     </g>
     <g id="text_11">
      <!-- 1.0 -->
      <g transform="translate(25.059219 182.889621) scale(0.1 -0.1)">
       <use xlink:href="#DejaVuSans-14"/>
       <use xlink:href="#DejaVuSans-11" transform="translate(63.625 0)"/>
       <use xlink:href="#DejaVuSans-13" transform="translate(95.40625 0)"/>
      </g>
     </g>
    </g>
    <g id="ytick_4">
     <g id="line2d_11">
      <g>
       <use xlink:href="#m4afdc0d099" x="47.962344" y="145.697361" style="stroke: #000000; stroke-width: 0.8"/>
      </g>
     </g>
     <g id="text_12">
      <!-- 1.5 -->
      <g transform="translate(25.059219 149.496189) scale(0.1 -0.1)">
       <use xlink:href="#DejaVuSans-14"/>
       <use xlink:href="#DejaVuSans-11" transform="translate(63.625 0)"/>
       <use xlink:href="#DejaVuSans-18" transform="translate(95.40625 0)"/>
      </g>
     </g>
    </g>
    <g id="ytick_5">
     <g id="line2d_12">
      <g>
       <use xlink:href="#m4afdc0d099" x="47.962344" y="112.303929" style="stroke: #000000; stroke-width: 0.8"/>
      </g>
     </g>
     <g id="text_13">
      <!-- 2.0 -->
      <g transform="translate(25.059219 116.102757) scale(0.1 -0.1)">
       <use xlink:href="#DejaVuSans-15"/>
       <use xlink:href="#DejaVuSans-11" transform="translate(63.625 0)"/>
       <use xlink:href="#DejaVuSans-13" transform="translate(95.40625 0)"/>
      </g>
     </g>
    </g>
    <g id="ytick_6">
     <g id="line2d_13">
      <g>
       <use xlink:href="#m4afdc0d099" x="47.962344" y="78.910497" style="stroke: #000000; stroke-width: 0.8"/>
      </g>
     </g>
     <g id="text_14">
      <!-- 2.5 -->
      <g transform="translate(25.059219 82.709325) scale(0.1 -0.1)">
       <use xlink:href="#DejaVuSans-15"/>
       <use xlink:href="#DejaVuSans-11" transform="translate(63.625 0)"/>
       <use xlink:href="#DejaVuSans-18" transform="translate(95.40625 0)"/>
      </g>
     </g>
    </g>
    <g id="ytick_7">
     <g id="line2d_14">
      <g>
       <use xlink:href="#m4afdc0d099" x="47.962344" y="45.517065" style="stroke: #000000; stroke-width: 0.8"/>
      </g>
     </g>
     <g id="text_15">
      <!-- 3.0 -->
      <g transform="translate(25.059219 49.315893) scale(0.1 -0.1)">
       <defs>
        <path id="DejaVuSans-16" d="M 2597 2516 
Q 3050 2419 3304 2112 
Q 3559 1806 3559 1356 
Q 3559 666 3084 287 
Q 2609 -91 1734 -91 
Q 1441 -91 1130 -33 
Q 819 25 488 141 
L 488 750 
Q 750 597 1062 519 
Q 1375 441 1716 441 
Q 2309 441 2620 675 
Q 2931 909 2931 1356 
Q 2931 1769 2642 2001 
Q 2353 2234 1838 2234 
L 1294 2234 
L 1294 2753 
L 1863 2753 
Q 2328 2753 2575 2939 
Q 2822 3125 2822 3475 
Q 2822 3834 2567 4026 
Q 2313 4219 1838 4219 
Q 1578 4219 1281 4162 
Q 984 4106 628 3988 
L 628 4550 
Q 988 4650 1302 4700 
Q 1616 4750 1894 4750 
Q 2613 4750 3031 4423 
Q 3450 4097 3450 3541 
Q 3450 3153 3228 2886 
Q 3006 2619 2597 2516 
z
" transform="scale(0.015625)"/>
       </defs>
       <use xlink:href="#DejaVuSans-16"/>
       <use xlink:href="#DejaVuSans-11" transform="translate(63.625 0)"/>
       <use xlink:href="#DejaVuSans-13" transform="translate(95.40625 0)"/>
      </g>
     </g>
    </g>
    <g id="text_16">
     <!-- Density -->
     <g transform="translate(18.656875 155.027422) rotate(-90) scale(0.1 -0.1)">
      <defs>
       <path id="DejaVuSans-27" d="M 1259 4147 
L 1259 519 
L 2022 519 
Q 2988 519 3436 956 
Q 3884 1394 3884 2338 
Q 3884 3275 3436 3711 
Q 2988 4147 2022 4147 
L 1259 4147 
z
M 628 4666 
L 1925 4666 
Q 3281 4666 3915 4102 
Q 4550 3538 4550 2338 
Q 4550 1131 3912 565 
Q 3275 0 1925 0 
L 628 0 
L 628 4666 
z
" transform="scale(0.015625)"/>
      </defs>
      <use xlink:href="#DejaVuSans-27"/>
      <use xlink:href="#DejaVuSans-48" transform="translate(77 0)"/>
      <use xlink:href="#DejaVuSans-51" transform="translate(138.53125 0)"/>
      <use xlink:href="#DejaVuSans-56" transform="translate(201.90625 0)"/>
      <use xlink:href="#DejaVuSans-4c" transform="translate(254 0)"/>
      <use xlink:href="#DejaVuSans-57" transform="translate(281.78125 0)"/>
      <use xlink:href="#DejaVuSans-5c" transform="translate(320.984375 0)"/>
     </g>
    </g>
   </g>
   <g id="line2d_15">
    <path d="M 307.293361 245.877656 
L 307.293361 26.16 
" clip-path="url(#p30a72f0114)" style="fill: none; stroke-dasharray: 3.7,1.6; stroke-dashoffset: 0; stroke: #000000"/>
   </g>
   <g id="patch_3">
    <path d="M 47.962344 245.877656 
L 47.962344 26.16 
" style="fill: none; stroke: #000000; stroke-width: 0.8; stroke-linejoin: miter; stroke-linecap: square"/>
   </g>
   <g id="patch_4">
    <path d="M 565.2 245.877656 
L 565.2 26.16 
" style="fill: none; stroke: #000000; stroke-width: 0.8; stroke-linejoin: miter; stroke-linecap: square"/>
   </g>
   <g id="patch_5">
    <path d="M 47.962344 245.877656 
L 565.2 245.877656 
" style="fill: none; stroke: #000000; stroke-width: 0.8; stroke-linejoin: miter; stroke-linecap: square"/>
   </g>
   <g id="patch_6">
    <path d="M 47.962344 26.16 
L 565.2 26.16 
" style="fill: none; stroke: #000000; stroke-width: 0.8; stroke-linejoin: miter; stroke-linecap: square"/>
   </g>
   <g id="text_17">
    <!-- Indian — Motion Blur (k=17) -->
    <g transform="translate(221.213359 20.16) scale(0.12 -0.12)">
     <defs>
      <path id="DejaVuSans-2c" d="M 628 4666 
L 1259 4666 
L 1259 0 
L 628 0 
L 628 4666 
z
" transform="scale(0.015625)"/>
      <path id="DejaVuSans-47" d="M 2906 2969 
L 2906 4863 
L 3481 4863 
L 3481 0 
L 2906 0 
L 2906 525 
Q 2725 213 2448 61 
Q 2172 -91 1784 -91 
Q 1150 -91 751 415 
Q 353 922 353 1747 
Q 353 2572 751 3078 
Q 1150 3584 1784 3584 
Q 2172 3584 2448 3432 
Q 2725 3281 2906 2969 
z
M 947 1747 
Q 947 1113 1208 752 
Q 1469 391 1925 391 
Q 2381 391 2643 752 
Q 2906 1113 2906 1747 
Q 2906 2381 2643 2742 
Q 2381 3103 1925 3103 
Q 1469 3103 1208 2742 
Q 947 2381 947 1747 
z
" transform="scale(0.015625)"/>
      <path id="DejaVuSans-af6" d="M 313 1978 
L 6088 1978 
L 6088 1528 
L 313 1528 
L 313 1978 
z
" transform="scale(0.015625)"/>
      <path id="DejaVuSans-30" d="M 628 4666 
L 1569 4666 
L 2759 1491 
L 3956 4666 
L 4897 4666 
L 4897 0 
L 4281 0 
L 4281 4097 
L 3078 897 
L 2444 897 
L 1241 4097 
L 1241 0 
L 628 0 
L 628 4666 
z
" transform="scale(0.015625)"/>
      <path id="DejaVuSans-25" d="M 1259 2228 
L 1259 519 
L 2272 519 
Q 2781 519 3026 730 
Q 3272 941 3272 1375 
Q 3272 1813 3026 2020 
Q 2781 2228 2272 2228 
L 1259 2228 
z
M 1259 4147 
L 1259 2741 
L 2194 2741 
Q 2656 2741 2882 2914 
Q 3109 3088 3109 3444 
Q 3109 3797 2882 3972 
Q 2656 4147 2194 4147 
L 1259 4147 
z
M 628 4666 
L 2241 4666 
Q 2963 4666 3353 4366 
Q 3744 4066 3744 3513 
Q 3744 3084 3544 2831 
Q 3344 2578 2956 2516 
Q 3422 2416 3680 2098 
Q 3938 1781 3938 1306 
Q 3938 681 3513 340 
Q 3088 0 2303 0 
L 628 0 
L 628 4666 
z
" transform="scale(0.015625)"/>
      <path id="DejaVuSans-58" d="M 544 1381 
L 544 3500 
L 1119 3500 
L 1119 1403 
Q 1119 906 1312 657 
Q 1506 409 1894 409 
Q 2359 409 2629 706 
Q 2900 1003 2900 1516 
L 2900 3500 
L 3475 3500 
L 3475 0 
L 2900 0 
L 2900 538 
Q 2691 219 2414 64 
Q 2138 -91 1772 -91 
Q 1169 -91 856 284 
Q 544 659 544 1381 
z
M 1991 3584 
L 1991 3584 
z
" transform="scale(0.015625)"/>
      <path id="DejaVuSans-b" d="M 1984 4856 
Q 1566 4138 1362 3434 
Q 1159 2731 1159 2009 
Q 1159 1288 1364 580 
Q 1569 -128 1984 -844 
L 1484 -844 
Q 1016 -109 783 600 
Q 550 1309 550 2009 
Q 550 2706 781 3412 
Q 1013 4119 1484 4856 
L 1984 4856 
z
" transform="scale(0.015625)"/>
      <path id="DejaVuSans-4e" d="M 581 4863 
L 1159 4863 
L 1159 1991 
L 2875 3500 
L 3609 3500 
L 1753 1863 
L 3688 0 
L 2938 0 
L 1159 1709 
L 1159 0 
L 581 0 
L 581 4863 
z
" transform="scale(0.015625)"/>
      <path id="DejaVuSans-20" d="M 678 2906 
L 4684 2906 
L 4684 2381 
L 678 2381 
L 678 2906 
z
M 678 1631 
L 4684 1631 
L 4684 1100 
L 678 1100 
L 678 1631 
z
" transform="scale(0.015625)"/>
      <path id="DejaVuSans-1a" d="M 525 4666 
L 3525 4666 
L 3525 4397 
L 1831 0 
L 1172 0 
L 2766 4134 
L 525 4134 
L 525 4666 
z
" transform="scale(0.015625)"/>
      <path id="DejaVuSans-c" d="M 513 4856 
L 1013 4856 
Q 1481 4119 1714 3412 
Q 1947 2706 1947 2009 
Q 1947 1309 1714 600 
Q 1481 -109 1013 -844 
L 513 -844 
Q 928 -128 1133 580 
Q 1338 1288 1338 2009 
Q 1338 2731 1133 3434 
Q 928 4138 513 4856 
z
" transform="scale(0.015625)"/>
     </defs>
     <use xlink:href="#DejaVuSans-2c"/>
     <use xlink:href="#DejaVuSans-51" transform="translate(29.5 0)"/>
     <use xlink:href="#DejaVuSans-47" transform="translate(92.875 0)"/>
     <use xlink:href="#DejaVuSans-4c" transform="translate(156.359375 0)"/>
     <use xlink:href="#DejaVuSans-44" transform="translate(184.140625 0)"/>
     <use xlink:href="#DejaVuSans-51" transform="translate(245.421875 0)"/>
     <use xlink:href="#DejaVuSans-3" transform="translate(308.796875 0)"/>
     <use xlink:href="#DejaVuSans-af6" transform="translate(340.578125 0)"/>
     <use xlink:href="#DejaVuSans-3" transform="translate(440.578125 0)"/>
     <use xlink:href="#DejaVuSans-30" transform="translate(472.359375 0)"/>
     <use xlink:href="#DejaVuSans-52" transform="translate(558.640625 0)"/>
     <use xlink:href="#DejaVuSans-57" transform="translate(619.828125 0)"/>
     <use xlink:href="#DejaVuSans-4c" transform="translate(659.03125 0)"/>
     <use xlink:href="#DejaVuSans-52" transform="translate(686.8125 0)"/>
     <use xlink:href="#DejaVuSans-51" transform="translate(748 0)"/>
     <use xlink:href="#DejaVuSans-3" transform="translate(811.375 0)"/>
     <use xlink:href="#DejaVuSans-25" transform="translate(843.15625 0)"/>
     <use xlink:href="#DejaVuSans-4f" transform="translate(911.765625 0)"/>
     <use xlink:href="#DejaVuSans-58" transform="translate(939.546875 0)"/>
     <use xlink:href="#DejaVuSans-55" transform="translate(1002.921875 0)"/>
     <use xlink:href="#DejaVuSans-3" transform="translate(1044.03125 0)"/>
     <use xlink:href="#DejaVuSans-b" transform="translate(1075.8125 0)"/>
     <use xlink:href="#DejaVuSans-4e" transform="translate(1114.828125 0)"/>
     <use xlink:href="#DejaVuSans-20" transform="translate(1172.734375 0)"/>
     <use xlink:href="#DejaVuSans-14" transform="translate(1256.53125 0)"/>
     <use xlink:href="#DejaVuSans-1a" transform="translate(1320.15625 0)"/>
     <use xlink:href="#DejaVuSans-c" transform="translate(1383.78125 0)"/>
    </g>
   </g>
   <g id="legend_1">
    <g id="patch_7">
     <path d="M 452.059375 79.162344 
L 558.2 79.162344 
Q 560.2 79.162344 560.2 77.162344 
L 560.2 33.16 
Q 560.2 31.16 558.2 31.16 
L 452.059375 31.16 
Q 450.059375 31.16 450.059375 33.16 
L 450.059375 77.162344 
Q 450.059375 79.162344 452.059375 79.162344 
z
" style="fill: #ffffff; opacity: 0.8; stroke: #cccccc; stroke-linejoin: miter"/>
    </g>
    <g id="patch_8">
     <path d="M 454.059375 42.758437 
L 474.059375 42.758437 
L 474.059375 35.758437 
L 454.059375 35.758437 
z
" style="fill: #4682b4; fill-opacity: 0.4; stroke: #4682b4; stroke-linejoin: miter"/>
    </g>
    <g id="text_18">
     <!-- Genuine -->
     <g transform="translate(482.059375 42.758437) scale(0.1 -0.1)">
      <defs>
       <path id="DejaVuSans-2a" d="M 3809 666 
L 3809 1919 
L 2778 1919 
L 2778 2438 
L 4434 2438 
L 4434 434 
Q 4069 175 3628 42 
Q 3188 -91 2688 -91 
Q 1594 -91 976 548 
Q 359 1188 359 2328 
Q 359 3472 976 4111 
Q 1594 4750 2688 4750 
Q 3144 4750 3555 4637 
Q 3966 4525 4313 4306 
L 4313 3634 
Q 3963 3931 3569 4081 
Q 3175 4231 2741 4231 
Q 1884 4231 1454 3753 
Q 1025 3275 1025 2328 
Q 1025 1384 1454 906 
Q 1884 428 2741 428 
Q 3075 428 3337 486 
Q 3600 544 3809 666 
z
" transform="scale(0.015625)"/>
      </defs>
      <use xlink:href="#DejaVuSans-2a"/>
      <use xlink:href="#DejaVuSans-48" transform="translate(77.484375 0)"/>
      <use xlink:href="#DejaVuSans-51" transform="translate(139.015625 0)"/>
      <use xlink:href="#DejaVuSans-58" transform="translate(202.390625 0)"/>
      <use xlink:href="#DejaVuSans-4c" transform="translate(265.765625 0)"/>
      <use xlink:href="#DejaVuSans-51" transform="translate(293.546875 0)"/>
      <use xlink:href="#DejaVuSans-48" transform="translate(356.921875 0)"/>
     </g>
    </g>
    <g id="patch_9">
     <path d="M 454.059375 57.759219 
L 474.059375 57.759219 
L 474.059375 50.759219 
L 454.059375 50.759219 
z
" style="fill: #fa8072; fill-opacity: 0.4; stroke: #fa8072; stroke-linejoin: miter"/>
    </g>
    <g id="text_19">
     <!-- Impostor -->
     <g transform="translate(482.059375 57.759219) scale(0.1 -0.1)">
      <defs>
       <path id="DejaVuSans-53" d="M 1159 525 
L 1159 -1331 
L 581 -1331 
L 581 3500 
L 1159 3500 
L 1159 2969 
Q 1341 3281 1617 3432 
Q 1894 3584 2278 3584 
Q 2916 3584 3314 3078 
Q 3713 2572 3713 1747 
Q 3713 922 3314 415 
Q 2916 -91 2278 -91 
Q 1894 -91 1617 61 
Q 1341 213 1159 525 
z
M 3116 1747 
Q 3116 2381 2855 2742 
Q 2594 3103 2138 3103 
Q 1681 3103 1420 2742 
Q 1159 2381 1159 1747 
Q 1159 1113 1420 752 
Q 1681 391 2138 391 
Q 2594 391 2855 752 
Q 3116 1113 3116 1747 
z
" transform="scale(0.015625)"/>
      </defs>
      <use xlink:href="#DejaVuSans-2c"/>
      <use xlink:href="#DejaVuSans-50" transform="translate(29.5 0)"/>
      <use xlink:href="#DejaVuSans-53" transform="translate(126.90625 0)"/>
      <use xlink:href="#DejaVuSans-52" transform="translate(190.390625 0)"/>
      <use xlink:href="#DejaVuSans-56" transform="translate(251.578125 0)"/>
      <use xlink:href="#DejaVuSans-57" transform="translate(303.671875 0)"/>
      <use xlink:href="#DejaVuSans-52" transform="translate(342.875 0)"/>
      <use xlink:href="#DejaVuSans-55" transform="translate(404.0625 0)"/>
     </g>
    </g>
    <g id="line2d_16">
     <path d="M 454.059375 69.26 
L 464.059375 69.26 
L 474.059375 69.26 
" style="fill: none; stroke-dasharray: 3.7,1.6; stroke-dashoffset: 0; stroke: #000000"/>
    </g>
    <g id="text_20">
     <!-- EER thr=0.349 -->
     <g transform="translate(482.059375 72.76) scale(0.1 -0.1)">
      <defs>
       <path id="DejaVuSans-28" d="M 628 4666 
L 3578 4666 
L 3578 4134 
L 1259 4134 
L 1259 2753 
L 3481 2753 
L 3481 2222 
L 1259 2222 
L 1259 531 
L 3634 531 
L 3634 0 
L 628 0 
L 628 4666 
z
" transform="scale(0.015625)"/>
       <path id="DejaVuSans-35" d="M 2841 2188 
Q 3044 2119 3236 1894 
Q 3428 1669 3622 1275 
L 4263 0 
L 3584 0 
L 2988 1197 
Q 2756 1666 2539 1819 
Q 2322 1972 1947 1972 
L 1259 1972 
L 1259 0 
L 628 0 
L 628 4666 
L 2053 4666 
Q 2853 4666 3247 4331 
Q 3641 3997 3641 3322 
Q 3641 2881 3436 2590 
Q 3231 2300 2841 2188 
z
M 1259 4147 
L 1259 2491 
L 2053 2491 
Q 2509 2491 2742 2702 
Q 2975 2913 2975 3322 
Q 2975 3731 2742 3939 
Q 2509 4147 2053 4147 
L 1259 4147 
z
" transform="scale(0.015625)"/>
       <path id="DejaVuSans-4b" d="M 3513 2113 
L 3513 0 
L 2938 0 
L 2938 2094 
Q 2938 2591 2744 2837 
Q 2550 3084 2163 3084 
Q 1697 3084 1428 2787 
Q 1159 2491 1159 1978 
L 1159 0 
L 581 0 
L 581 4863 
L 1159 4863 
L 1159 2956 
Q 1366 3272 1645 3428 
Q 1925 3584 2291 3584 
Q 2894 3584 3203 3211 
Q 3513 2838 3513 2113 
z
" transform="scale(0.015625)"/>
       <path id="DejaVuSans-1c" d="M 703 97 
L 703 672 
Q 941 559 1184 500 
Q 1428 441 1663 441 
Q 2288 441 2617 861 
Q 2947 1281 2994 2138 
Q 2813 1869 2534 1725 
Q 2256 1581 1919 1581 
Q 1219 1581 811 2004 
Q 403 2428 403 3163 
Q 403 3881 828 4315 
Q 1253 4750 1959 4750 
Q 2769 4750 3195 4129 
Q 3622 3509 3622 2328 
Q 3622 1225 3098 567 
Q 2575 -91 1691 -91 
Q 1453 -91 1209 -44 
Q 966 3 703 97 
z
M 1959 2075 
Q 2384 2075 2632 2365 
Q 2881 2656 2881 3163 
Q 2881 3666 2632 3958 
Q 2384 4250 1959 4250 
Q 1534 4250 1286 3958 
Q 1038 3666 1038 3163 
Q 1038 2656 1286 2365 
Q 1534 2075 1959 2075 
z
" transform="scale(0.015625)"/>
      </defs>
      <use xlink:href="#DejaVuSans-28"/>
      <use xlink:href="#DejaVuSans-28" transform="translate(63.1875 0)"/>
      <use xlink:href="#DejaVuSans-35" transform="translate(126.375 0)"/>
      <use xlink:href="#DejaVuSans-3" transform="translate(195.859375 0)"/>
      <use xlink:href="#DejaVuSans-57" transform="translate(227.640625 0)"/>
      <use xlink:href="#DejaVuSans-4b" transform="translate(266.84375 0)"/>
      <use xlink:href="#DejaVuSans-55" transform="translate(330.21875 0)"/>
      <use xlink:href="#DejaVuSans-20" transform="translate(371.328125 0)"/>
      <use xlink:href="#DejaVuSans-13" transform="translate(455.125 0)"/>
      <use xlink:href="#DejaVuSans-11" transform="translate(518.75 0)"/>
      <use xlink:href="#DejaVuSans-16" transform="translate(550.53125 0)"/>
      <use xlink:href="#DejaVuSans-17" transform="translate(614.15625 0)"/>
      <use xlink:href="#DejaVuSans-1c" transform="translate(677.78125 0)"/>
     </g>
    </g>
   </g>
  </g>
 </g>
 <defs>
  <clipPath id="p30a72f0114">
   <rect x="47.962344" y="26.16" width="517.237656" height="219.717656"/>
  </clipPath>
 </defs>
</svg>
